<svg width="44" height="44" viewBox="0 0 44 44" fill="none" xmlns="http://www.w3.org/2000/svg">
<g clip-path="url(#clip0_292_7975)">
<path fill-rule="evenodd" clip-rule="evenodd" d="M0 0H4.88889V4.88889H0V0ZM9.77776 4.88984H4.88887V9.77873H9.77776V4.88984ZM9.77781 9.77754H14.6667V14.6663H19.5556V19.555H24.4444V19.5562V24.4438V24.445H19.5556V29.3337H14.6667V34.2225H9.77781V29.3336H14.6667V24.4448H19.5555V24.4438V19.5562V19.5552H14.6667V14.6664H9.77781V9.77754ZM29.3333 24.4438H24.4445V29.3327H29.3333V24.4438ZM29.3333 29.3337H34.2222L34.2222 34.2225H39.1111V39.1114H34.2222L34.2222 34.2226H29.3333V29.3337ZM44 39.1102H39.1111V43.999H44V39.1102ZM39.1111 0.000954628V4.88984H44V0.000954414L39.1111 0.000954628ZM34.2222 9.77742L34.2222 4.88865H39.1111V9.77754H34.2222L34.2222 14.6663H29.3333V9.77742H34.2222ZM24.4445 19.5562V14.6673H29.3333V19.5562H24.4445ZM4.88887 39.1102V34.2213H9.77776V39.1102H4.88887ZM0 39.1111V44H4.88889V39.1111H0Z" fill="black"/>
</g>
<defs>
<clipPath id="clip0_292_7975">
<rect width="44" height="44" fill="white"/>
</clipPath>
</defs>
</svg>
