<svg width="574" height="197" viewBox="0 0 574 197" fill="none" xmlns="http://www.w3.org/2000/svg">
<path d="M117.983 187.076H110.18V196.882H117.983V187.076Z" fill="black"/>
<path d="M110.18 187.076H102.377V196.882H110.18V187.076Z" fill="black"/>
<path d="M102.376 187.076H94.5735V196.882H102.376V187.076Z" fill="black"/>
<path d="M94.5737 187.076H86.771V196.882H94.5737V187.076Z" fill="black"/>
<path d="M86.7708 187.076H78.968V196.882H86.7708V187.076Z" fill="black"/>
<path d="M78.9683 187.076H71.1655V196.882H78.9683V187.076Z" fill="black"/>
<path d="M71.1653 187.076H63.3625V196.882H71.1653V187.076Z" fill="black"/>
<path d="M63.3616 187.076H55.5588V196.882H63.3616V187.076Z" fill="black"/>
<path d="M55.5589 187.076H47.7561V196.882H55.5589V187.076Z" fill="black"/>
<path d="M47.7561 187.076H39.9534V196.882H47.7561V187.076Z" fill="black"/>
<path d="M39.9534 187.076H32.1506V196.882H39.9534V187.076Z" fill="black"/>
<path d="M141.391 177.27H133.588V187.076H141.391V177.27Z" fill="black"/>
<path d="M133.588 177.27H125.786V187.076H133.588V177.27Z" fill="black"/>
<path d="M125.786 177.27H117.983V187.076H125.786V177.27Z" fill="black"/>
<path d="M117.983 177.27H110.18V187.076H117.983V177.27Z" fill="black"/>
<path d="M110.18 177.27H102.377V187.076H110.18V177.27Z" fill="black"/>
<path d="M102.376 177.27H94.5735V187.076H102.376V177.27Z" fill="black"/>
<path d="M94.5737 177.27H86.771V187.076H94.5737V177.27Z" fill="black"/>
<path d="M86.7708 177.27H78.968V187.076H86.7708V177.27Z" fill="black"/>
<path d="M78.9683 177.27H71.1655V187.076H78.9683V177.27Z" fill="black"/>
<path d="M71.1653 177.27H63.3625V187.076H71.1653V177.27Z" fill="black"/>
<path d="M63.3616 177.27H55.5588V187.076H63.3616V177.27Z" fill="black"/>
<path d="M55.5589 177.27H47.7561V187.076H55.5589V177.27Z" fill="black"/>
<path d="M47.7561 177.27H39.9534V187.076H47.7561V177.27Z" fill="black"/>
<path d="M39.9534 177.27H32.1506V187.076H39.9534V177.27Z" fill="black"/>
<path d="M32.1506 177.27H24.3479V187.076H32.1506V177.27Z" fill="black"/>
<path d="M24.3469 177.27H16.5442V187.076H24.3469V177.27Z" fill="black"/>
<path d="M149.194 167.465H141.391V177.27H149.194V167.465Z" fill="black"/>
<path d="M141.391 167.465H133.588V177.27H141.391V167.465Z" fill="black"/>
<path d="M133.588 167.465H125.786V177.27H133.588V167.465Z" fill="black"/>
<path d="M125.786 167.465H117.983V177.27H125.786V167.465Z" fill="black"/>
<path d="M117.983 167.465H110.18V177.27H117.983V167.465Z" fill="black"/>
<path d="M110.18 167.465H102.377V177.27H110.18V167.465Z" fill="black"/>
<path d="M102.376 167.465H94.5735V177.27H102.376V167.465Z" fill="black"/>
<path d="M94.5737 167.465H86.771V177.27H94.5737V167.465Z" fill="black"/>
<path d="M86.7708 167.465H78.968V177.27H86.7708V167.465Z" fill="black"/>
<path d="M78.9683 167.465H71.1655V177.27H78.9683V167.465Z" fill="black"/>
<path d="M71.1653 167.465H63.3625V177.27H71.1653V167.465Z" fill="black"/>
<path d="M63.3616 167.465H55.5588V177.27H63.3616V167.465Z" fill="black"/>
<path d="M55.5589 167.465H47.7561V177.27H55.5589V167.465Z" fill="black"/>
<path d="M47.7561 167.465H39.9534V177.27H47.7561V167.465Z" fill="black"/>
<path d="M39.9534 167.465H32.1506V177.27H39.9534V167.465Z" fill="black"/>
<path d="M32.1506 167.465H24.3479V177.27H32.1506V167.465Z" fill="black"/>
<path d="M24.3469 167.465H16.5442V177.27H24.3469V167.465Z" fill="black"/>
<path d="M16.544 167.465H8.74121V177.27H16.544V167.465Z" fill="black"/>
<path d="M156.998 157.659H149.195V167.465H156.998V157.659Z" fill="black"/>
<path d="M149.194 157.659H141.391V167.465H149.194V157.659Z" fill="black"/>
<path d="M141.391 157.659H133.588V167.465H141.391V157.659Z" fill="black"/>
<path d="M133.588 157.659H125.786V167.465H133.588V157.659Z" fill="black"/>
<path d="M125.786 157.659H117.983V167.465H125.786V157.659Z" fill="black"/>
<path d="M117.983 157.659H110.18V167.465H117.983V157.659Z" fill="black"/>
<path d="M110.18 157.659H102.377V167.465H110.18V157.659Z" fill="black"/>
<path d="M102.376 157.659H94.5735V167.465H102.376V157.659Z" fill="black"/>
<path d="M94.5737 157.659H86.771V167.465H94.5737V157.659Z" fill="black"/>
<path d="M86.7708 157.659H78.968V167.465H86.7708V157.659Z" fill="black"/>
<path d="M78.9683 157.659H71.1655V167.465H78.9683V157.659Z" fill="black"/>
<path d="M71.1653 157.659H63.3625V167.465H71.1653V157.659Z" fill="black"/>
<path d="M63.3616 157.659H55.5588V167.465H63.3616V157.659Z" fill="black"/>
<path d="M55.5589 157.659H47.7561V167.465H55.5589V157.659Z" fill="black"/>
<path d="M47.7561 157.659H39.9534V167.465H47.7561V157.659Z" fill="black"/>
<path d="M39.9534 157.659H32.1506V167.465H39.9534V157.659Z" fill="black"/>
<path d="M32.1506 157.659H24.3479V167.465H32.1506V157.659Z" fill="black"/>
<path d="M24.3469 157.659H16.5442V167.465H24.3469V157.659Z" fill="black"/>
<path d="M16.544 157.659H8.74121V167.465H16.544V157.659Z" fill="black"/>
<path d="M8.74147 157.659H0.938721V167.465H8.74147V157.659Z" fill="black"/>
<path d="M78.9683 147.854H71.1655V157.66H78.9683V147.854Z" fill="black"/>
<path d="M149.194 138.049H141.391V147.854H149.194V138.049Z" fill="black"/>
<path d="M141.391 138.049H133.588V147.854H141.391V138.049Z" fill="black"/>
<path d="M133.588 138.049H125.786V147.854H133.588V138.049Z" fill="black"/>
<path d="M125.786 138.049H117.983V147.854H125.786V138.049Z" fill="black"/>
<path d="M117.983 138.049H110.18V147.854H117.983V138.049Z" fill="black"/>
<path d="M110.18 138.049H102.377V147.854H110.18V138.049Z" fill="black"/>
<path d="M102.376 138.049H94.5735V147.854H102.376V138.049Z" fill="black"/>
<path d="M94.5737 138.049H86.771V147.854H94.5737V138.049Z" fill="black"/>
<path d="M86.7708 138.049H78.968V147.854H86.7708V138.049Z" fill="black"/>
<path d="M78.9683 138.049H71.1655V147.854H78.9683V138.049Z" fill="black"/>
<path d="M71.1653 138.049H63.3625V147.854H71.1653V138.049Z" fill="black"/>
<path d="M63.3616 138.049H55.5588V147.854H63.3616V138.049Z" fill="black"/>
<path d="M55.5589 138.049H47.7561V147.854H55.5589V138.049Z" fill="black"/>
<path d="M47.7561 138.049H39.9534V147.854H47.7561V138.049Z" fill="black"/>
<path d="M39.9534 138.049H32.1506V147.854H39.9534V138.049Z" fill="black"/>
<path d="M32.1506 138.049H24.3479V147.854H32.1506V138.049Z" fill="black"/>
<path d="M24.3469 138.049H16.5442V147.854H24.3469V138.049Z" fill="black"/>
<path d="M16.544 138.049H8.74121V147.854H16.544V138.049Z" fill="black"/>
<path d="M141.391 128.243H133.588V138.049H141.391V128.243Z" fill="black"/>
<path d="M133.588 128.243H125.786V138.049H133.588V128.243Z" fill="black"/>
<path d="M125.786 128.243H117.983V138.049H125.786V128.243Z" fill="black"/>
<path d="M117.983 128.243H110.18V138.049H117.983V128.243Z" fill="black"/>
<path d="M110.18 128.243H102.377V138.049H110.18V128.243Z" fill="black"/>
<path d="M102.376 128.243H94.5735V138.049H102.376V128.243Z" fill="black"/>
<path d="M94.5737 128.243H86.771V138.049H94.5737V128.243Z" fill="black"/>
<path d="M86.7708 128.243H78.968V138.049H86.7708V128.243Z" fill="black"/>
<path d="M78.9683 128.243H71.1655V138.049H78.9683V128.243Z" fill="black"/>
<path d="M63.3616 128.243H55.5588V138.049H63.3616V128.243Z" fill="black"/>
<path d="M55.5589 128.243H47.7561V138.049H55.5589V128.243Z" fill="black"/>
<path d="M47.7561 128.243H39.9534V138.049H47.7561V128.243Z" fill="black"/>
<path d="M39.9534 128.243H32.1506V138.049H39.9534V128.243Z" fill="black"/>
<path d="M32.1506 128.243H24.3479V138.049H32.1506V128.243Z" fill="black"/>
<path d="M24.3469 128.243H16.5442V138.049H24.3469V128.243Z" fill="black"/>
<path d="M16.544 128.243H8.74121V138.049H16.544V128.243Z" fill="black"/>
<path d="M8.74147 128.243H0.938721V138.049H8.74147V128.243Z" fill="black"/>
<path d="M125.786 118.437H117.983V128.243H125.786V118.437Z" fill="black"/>
<path d="M117.983 118.437H110.18V128.243H117.983V118.437Z" fill="black"/>
<path d="M110.18 118.437H102.377V128.243H110.18V118.437Z" fill="black"/>
<path d="M102.376 118.437H94.5735V128.243H102.376V118.437Z" fill="black"/>
<path d="M94.5737 118.437H86.771V128.243H94.5737V118.437Z" fill="black"/>
<path d="M86.7708 118.437H78.968V128.243H86.7708V118.437Z" fill="black"/>
<path d="M78.9683 118.437H71.1655V128.243H78.9683V118.437Z" fill="black"/>
<path d="M55.5589 118.437H47.7561V128.243H55.5589V118.437Z" fill="black"/>
<path d="M47.7561 118.437H39.9534V128.243H47.7561V118.437Z" fill="black"/>
<path d="M39.9534 118.437H32.1506V128.243H39.9534V118.437Z" fill="black"/>
<path d="M32.1506 118.437H24.3479V128.243H32.1506V118.437Z" fill="black"/>
<path d="M24.3469 118.437H16.5442V128.243H24.3469V118.437Z" fill="black"/>
<path d="M16.544 118.437H8.74121V128.243H16.544V118.437Z" fill="black"/>
<path d="M8.74147 118.437H0.938721V128.243H8.74147V118.437Z" fill="black"/>
<path d="M117.983 108.632H110.18V118.437H117.983V108.632Z" fill="black"/>
<path d="M110.18 108.632H102.377V118.437H110.18V108.632Z" fill="black"/>
<path d="M102.376 108.632H94.5735V118.437H102.376V108.632Z" fill="black"/>
<path d="M94.5737 108.632H86.771V118.437H94.5737V108.632Z" fill="black"/>
<path d="M86.7708 108.632H78.968V118.437H86.7708V108.632Z" fill="black"/>
<path d="M78.9683 108.632H71.1655V118.437H78.9683V108.632Z" fill="black"/>
<path d="M71.1653 108.632H63.3625V118.437H71.1653V108.632Z" fill="black"/>
<path d="M55.5589 108.632H47.7561V118.437H55.5589V108.632Z" fill="black"/>
<path d="M47.7561 108.632H39.9534V118.437H47.7561V108.632Z" fill="black"/>
<path d="M39.9534 108.632H32.1506V118.437H39.9534V108.632Z" fill="black"/>
<path d="M32.1506 108.632H24.3479V118.437H32.1506V108.632Z" fill="black"/>
<path d="M24.3469 108.632H16.5442V118.437H24.3469V108.632Z" fill="black"/>
<path d="M16.544 108.632H8.74121V118.437H16.544V108.632Z" fill="black"/>
<path d="M8.74147 108.632H0.938721V118.437H8.74147V108.632Z" fill="black"/>
<path d="M110.18 98.8259H102.377V108.632H110.18V98.8259Z" fill="black"/>
<path d="M102.376 98.8259H94.5735V108.632H102.376V98.8259Z" fill="black"/>
<path d="M94.5737 98.8259H86.771V108.632H94.5737V98.8259Z" fill="black"/>
<path d="M86.7708 98.8259H78.968V108.632H86.7708V98.8259Z" fill="black"/>
<path d="M78.9683 98.8259H71.1655V108.632H78.9683V98.8259Z" fill="black"/>
<path d="M71.1653 98.8259H63.3625V108.632H71.1653V98.8259Z" fill="black"/>
<path d="M47.7561 98.8259H39.9534V108.632H47.7561V98.8259Z" fill="black"/>
<path d="M39.9534 98.8259H32.1506V108.632H39.9534V98.8259Z" fill="black"/>
<path d="M32.1506 98.8259H24.3479V108.632H32.1506V98.8259Z" fill="black"/>
<path d="M24.3469 98.8259H16.5442V108.632H24.3469V98.8259Z" fill="black"/>
<path d="M16.544 98.8259H8.74121V108.632H16.544V98.8259Z" fill="black"/>
<path d="M8.74147 98.8259H0.938721V108.632H8.74147V98.8259Z" fill="black"/>
<path d="M102.376 89.0201H94.5735V98.8258H102.376V89.0201Z" fill="black"/>
<path d="M94.5737 89.0201H86.771V98.8258H94.5737V89.0201Z" fill="black"/>
<path d="M86.7708 89.0201H78.968V98.8258H86.7708V89.0201Z" fill="black"/>
<path d="M78.9683 89.0201H71.1655V98.8258H78.9683V89.0201Z" fill="black"/>
<path d="M71.1653 89.0201H63.3625V98.8258H71.1653V89.0201Z" fill="black"/>
<path d="M47.7561 89.0201H39.9534V98.8258H47.7561V89.0201Z" fill="black"/>
<path d="M39.9534 89.0201H32.1506V98.8258H39.9534V89.0201Z" fill="black"/>
<path d="M32.1506 89.0201H24.3479V98.8258H32.1506V89.0201Z" fill="black"/>
<path d="M24.3469 89.0201H16.5442V98.8258H24.3469V89.0201Z" fill="black"/>
<path d="M16.544 89.0201H8.74121V98.8258H16.544V89.0201Z" fill="black"/>
<path d="M94.5737 79.2145H86.771V89.0202H94.5737V79.2145Z" fill="black"/>
<path d="M86.7708 79.2145H78.968V89.0202H86.7708V79.2145Z" fill="black"/>
<path d="M78.9683 79.2145H71.1655V89.0202H78.9683V79.2145Z" fill="black"/>
<path d="M71.1653 79.2145H63.3625V89.0202H71.1653V79.2145Z" fill="black"/>
<path d="M39.9534 79.2145H32.1506V89.0202H39.9534V79.2145Z" fill="black"/>
<path d="M32.1506 79.2145H24.3479V89.0202H32.1506V79.2145Z" fill="black"/>
<path d="M24.3469 79.2145H16.5442V89.0202H24.3469V79.2145Z" fill="black"/>
<path d="M16.544 79.2145H8.74121V89.0202H16.544V79.2145Z" fill="black"/>
<path d="M86.7708 69.4088H78.968V79.2145H86.7708V69.4088Z" fill="black"/>
<path d="M78.9683 69.4088H71.1655V79.2145H78.9683V69.4088Z" fill="black"/>
<path d="M71.1653 69.4088H63.3625V79.2145H71.1653V69.4088Z" fill="black"/>
<path d="M39.9534 69.4088H32.1506V79.2145H39.9534V69.4088Z" fill="black"/>
<path d="M32.1506 69.4088H24.3479V79.2145H32.1506V69.4088Z" fill="black"/>
<path d="M24.3469 69.4088H16.5442V79.2145H24.3469V69.4088Z" fill="black"/>
<path d="M86.7708 59.6031H78.968V69.4088H86.7708V59.6031Z" fill="black"/>
<path d="M78.9683 59.6031H71.1655V69.4088H78.9683V59.6031Z" fill="black"/>
<path d="M71.1653 59.6031H63.3625V69.4088H71.1653V59.6031Z" fill="black"/>
<path d="M47.7561 59.6031H39.9534V69.4088H47.7561V59.6031Z" fill="black"/>
<path d="M39.9534 59.6031H32.1506V69.4088H39.9534V59.6031Z" fill="black"/>
<path d="M32.1506 59.6031H24.3479V69.4088H32.1506V59.6031Z" fill="black"/>
<path d="M78.9683 49.7985H71.1655V59.6041H78.9683V49.7985Z" fill="black"/>
<path d="M71.1653 49.7985H63.3625V59.6041H71.1653V49.7985Z" fill="black"/>
<path d="M47.7561 49.7985H39.9534V59.6041H47.7561V49.7985Z" fill="black"/>
<path d="M39.9534 49.7985H32.1506V59.6041H39.9534V49.7985Z" fill="black"/>
<path d="M78.9683 39.9928H71.1655V49.7985H78.9683V39.9928Z" fill="black"/>
<path d="M71.1653 39.9928H63.3625V49.7985H71.1653V39.9928Z" fill="black"/>
<path d="M55.5589 39.9928H47.7561V49.7985H55.5589V39.9928Z" fill="black"/>
<path d="M47.7561 39.9928H39.9534V49.7985H47.7561V39.9928Z" fill="black"/>
<path d="M71.1653 30.1871H63.3625V39.9928H71.1653V30.1871Z" fill="black"/>
<path d="M55.5589 30.1871H47.7561V39.9928H55.5589V30.1871Z" fill="black"/>
<path d="M71.1653 20.3814H63.3625V30.1871H71.1653V20.3814Z" fill="black"/>
<path d="M63.3616 20.3814H55.5588V30.1871H63.3616V20.3814Z" fill="black"/>
<path d="M63.3616 10.5757H55.5588V20.3814H63.3616V10.5757Z" fill="black"/>
<path d="M63.3616 0.770081H55.5588V10.5758H63.3616V0.770081Z" fill="black"/>
<path d="M231.494 125.349V112.45H244.394V125.349H231.494Z" fill="black" stroke="black" stroke-width="0.311862"/>
<path d="M244.706 125.349V112.45H257.606V125.349H244.706Z" fill="black" stroke="black" stroke-width="0.311862"/>
<path d="M257.918 125.349V112.45H270.818V125.349H257.918Z" fill="black" stroke="black" stroke-width="0.311862"/>
<path d="M271.13 138.561V125.661H284.029V138.561H271.13Z" fill="black" stroke="black" stroke-width="0.311862"/>
<path d="M271.13 151.772V138.873H284.029V151.772H271.13Z" fill="black" stroke="black" stroke-width="0.311862"/>
<path d="M231.494 138.561V125.661H244.394V138.561H231.494Z" fill="black" stroke="black" stroke-width="0.311862"/>
<path d="M231.494 151.772V138.873H244.394V151.772H231.494Z" fill="black" stroke="black" stroke-width="0.311862"/>
<path d="M231.494 164.985V152.085H244.394V164.985H231.494Z" fill="black" stroke="black" stroke-width="0.311862"/>
<path d="M231.494 178.196V165.297H244.394V178.196H231.494Z" fill="black" stroke="black" stroke-width="0.311862"/>
<path d="M257.918 151.772V138.873H270.818V151.772H257.918Z" fill="black" stroke="black" stroke-width="0.311862"/>
<path d="M244.706 151.772V138.873H257.606V151.772H244.706Z" fill="black" stroke="black" stroke-width="0.311862"/>
<path d="M271.13 164.985V152.085H284.029V164.985H271.13Z" fill="black" stroke="black" stroke-width="0.311862"/>
<path d="M244.706 178.196V165.297H257.606V178.196H244.706Z" fill="black" stroke="black" stroke-width="0.311862"/>
<path d="M257.918 178.196V165.297H270.818V178.196H257.918Z" fill="black" stroke="black" stroke-width="0.311862"/>
<path d="M294.235 125.349V112.45H307.134V125.349H294.235Z" fill="black" stroke="black" stroke-width="0.311862"/>
<path d="M294.235 138.561V125.661H307.134V138.561H294.235Z" fill="black" stroke="black" stroke-width="0.311862"/>
<path d="M294.235 151.772V138.873H307.134V151.772H294.235Z" fill="black" stroke="black" stroke-width="0.311862"/>
<path d="M294.235 164.985V152.085H307.134V164.985H294.235Z" fill="black" stroke="black" stroke-width="0.311862"/>
<path d="M307.447 178.196V165.297H320.347V178.196H307.447Z" fill="black" stroke="black" stroke-width="0.311862"/>
<path d="M320.659 178.196V165.297H333.558V178.196H320.659Z" fill="black" stroke="black" stroke-width="0.311862"/>
<path d="M307.447 125.349V112.45H320.347V125.349H307.447Z" fill="black" stroke="black" stroke-width="0.311862"/>
<path d="M320.659 125.349V112.45H333.558V125.349H320.659Z" fill="black" stroke="black" stroke-width="0.311862"/>
<path d="M333.87 138.561V125.661H346.77V138.561H333.87Z" fill="black" stroke="black" stroke-width="0.311862"/>
<path d="M333.87 151.772V138.873H346.77V151.772H333.87Z" fill="black" stroke="black" stroke-width="0.311862"/>
<path d="M333.87 164.985V152.085H346.77V164.985H333.87Z" fill="black" stroke="black" stroke-width="0.311862"/>
<path d="M333.87 178.196V165.297H346.77V178.196H333.87Z" fill="black" stroke="black" stroke-width="0.311862"/>
<path d="M419.716 125.349V112.45H432.616V125.349H419.716Z" fill="black" stroke="black" stroke-width="0.311862"/>
<path d="M439.472 138.561V125.661H452.372V138.561H439.472Z" fill="black" stroke="black" stroke-width="0.311862"/>
<path d="M439.472 151.772V138.873H452.372V151.772H439.472Z" fill="black" stroke="black" stroke-width="0.311862"/>
<path d="M439.472 164.985V152.085H452.372V164.985H439.472Z" fill="black" stroke="black" stroke-width="0.311862"/>
<path d="M439.472 178.196V165.297H452.372V178.196H439.472Z" fill="black" stroke="black" stroke-width="0.311862"/>
<path d="M432.929 125.349V112.45H445.828V125.349H432.929Z" fill="black" stroke="black" stroke-width="0.311862"/>
<path d="M446.14 125.349V112.45H459.04V125.349H446.14Z" fill="black" stroke="black" stroke-width="0.311862"/>
<path d="M459.29 125.349V112.45H472.19V125.349H459.29Z" fill="black" stroke="black" stroke-width="0.311862"/>
<path d="M356.975 125.349V112.45H369.875V125.349H356.975Z" fill="black" stroke="black" stroke-width="0.311862"/>
<path d="M356.975 151.772V138.873H369.875V151.772H356.975Z" fill="black" stroke="black" stroke-width="0.311862"/>
<path d="M370.188 151.772V138.873H383.087V151.772H370.188Z" fill="black" stroke="black" stroke-width="0.311862"/>
<path d="M383.399 151.772V138.873H396.299V151.772H383.399Z" fill="black" stroke="black" stroke-width="0.311862"/>
<path d="M356.975 164.985V152.085H369.875V164.985H356.975Z" fill="black" stroke="black" stroke-width="0.311862"/>
<path d="M370.188 125.349V112.45H383.087V125.349H370.188Z" fill="black" stroke="black" stroke-width="0.311862"/>
<path d="M383.399 125.349V112.45H396.299V125.349H383.399Z" fill="black" stroke="black" stroke-width="0.311862"/>
<path d="M396.611 138.561V125.661H409.51V138.561H396.611Z" fill="black" stroke="black" stroke-width="0.311862"/>
<path d="M396.611 151.772V138.873H409.51V151.772H396.611Z" fill="black" stroke="black" stroke-width="0.311862"/>
<path d="M396.611 164.985V152.085H409.51V164.985H396.611Z" fill="black" stroke="black" stroke-width="0.311862"/>
<path d="M383.399 178.196V165.297H396.299V178.196H383.399Z" fill="black" stroke="black" stroke-width="0.311862"/>
<path d="M370.188 178.196V165.297H383.087V178.196H370.188Z" fill="black" stroke="black" stroke-width="0.311862"/>
<path d="M130.726 29.2407V16.3411H143.626V29.2407H130.726Z" fill="black" stroke="black" stroke-width="0.311862"/>
<path d="M130.726 42.4522V29.5526H143.626V42.4522H130.726Z" fill="black" stroke="black" stroke-width="0.311862"/>
<path d="M130.726 55.6637V42.7641H143.626V55.6637H130.726Z" fill="black" stroke="black" stroke-width="0.311862"/>
<path d="M130.726 68.8752V55.9756H143.626V68.8752H130.726Z" fill="black" stroke="black" stroke-width="0.311862"/>
<path d="M130.726 82.0877V69.1881H143.626V82.0877H130.726Z" fill="black" stroke="black" stroke-width="0.311862"/>
<path d="M143.939 29.2407V16.3411H156.839V29.2407H143.939Z" fill="black" stroke="black" stroke-width="0.311862"/>
<path d="M157.151 29.2407V16.3411H170.05V29.2407H157.151Z" fill="black" stroke="black" stroke-width="0.311862"/>
<path d="M170.362 42.4522V29.5526H183.262V42.4522H170.362Z" fill="black" stroke="black" stroke-width="0.311862"/>
<path d="M170.362 55.6637V42.7641H183.262V55.6637H170.362Z" fill="black" stroke="black" stroke-width="0.311862"/>
<path d="M170.362 68.8752V55.9756H183.262V68.8752H170.362Z" fill="black" stroke="black" stroke-width="0.311862"/>
<path d="M170.362 82.0877V69.1881H183.262V82.0877H170.362Z" fill="black" stroke="black" stroke-width="0.311862"/>
<path d="M256.208 29.2407V16.3411H269.108V29.2407H256.208Z" fill="black" stroke="black" stroke-width="0.311862"/>
<path d="M256.208 42.4522V29.5526H269.108V42.4522H256.208Z" fill="black" stroke="black" stroke-width="0.311862"/>
<path d="M256.208 55.6637V42.7641H269.108V55.6637H256.208Z" fill="black" stroke="black" stroke-width="0.311862"/>
<path d="M256.208 68.8752V55.9756H269.108V68.8752H256.208Z" fill="black" stroke="black" stroke-width="0.311862"/>
<path d="M256.208 82.0877V69.1881H269.108V82.0877H256.208Z" fill="black" stroke="black" stroke-width="0.311862"/>
<path d="M269.42 29.2407V16.3411H282.32V29.2407H269.42Z" fill="black" stroke="black" stroke-width="0.311862"/>
<path d="M282.632 29.2407V16.3411H295.531V29.2407H282.632Z" fill="black" stroke="black" stroke-width="0.311862"/>
<path d="M295.843 42.4522V29.5526H308.743V42.4522H295.843Z" fill="black" stroke="black" stroke-width="0.311862"/>
<path d="M295.843 55.6637V42.7641H308.743V55.6637H295.843Z" fill="black" stroke="black" stroke-width="0.311862"/>
<path d="M295.843 68.8752V55.9756H308.743V68.8752H295.843Z" fill="black" stroke="black" stroke-width="0.311862"/>
<path d="M295.843 82.0877V69.1881H308.743V82.0877H295.843Z" fill="black" stroke="black" stroke-width="0.311862"/>
<path d="M520.334 29.2407V16.3411H533.234V29.2407H520.334Z" fill="black" stroke="black" stroke-width="0.311862"/>
<path d="M520.334 42.4522V29.5526H533.234V42.4522H520.334Z" fill="black" stroke="black" stroke-width="0.311862"/>
<path d="M520.334 55.6637V42.7641H533.234V55.6637H520.334Z" fill="black" stroke="black" stroke-width="0.311862"/>
<path d="M520.334 68.8752V55.9756H533.234V68.8752H520.334Z" fill="black" stroke="black" stroke-width="0.311862"/>
<path d="M520.334 82.0877V69.1881H533.234V82.0877H520.334Z" fill="black" stroke="black" stroke-width="0.311862"/>
<path d="M533.546 29.2407V16.3411H546.445V29.2407H533.546Z" fill="black" stroke="black" stroke-width="0.311862"/>
<path d="M546.758 29.2407V16.3411H559.658V29.2407H546.758Z" fill="black" stroke="black" stroke-width="0.311862"/>
<path d="M559.97 42.4522V29.5526H572.87V42.4522H559.97Z" fill="black" stroke="black" stroke-width="0.311862"/>
<path d="M559.97 55.6637V42.7641H572.87V55.6637H559.97Z" fill="black" stroke="black" stroke-width="0.311862"/>
<path d="M559.97 68.8752V55.9756H572.87V68.8752H559.97Z" fill="black" stroke="black" stroke-width="0.311862"/>
<path d="M559.97 82.0877V69.1881H572.87V82.0877H559.97Z" fill="black" stroke="black" stroke-width="0.311862"/>
<path d="M381.565 29.2407V16.3411H394.465V29.2407H381.565Z" fill="black" stroke="black" stroke-width="0.311862"/>
<path d="M381.565 42.4522V29.5526H394.465V42.4522H381.565Z" fill="black" stroke="black" stroke-width="0.311862"/>
<path d="M381.565 55.6637V42.7641H394.465V55.6637H381.565Z" fill="black" stroke="black" stroke-width="0.311862"/>
<path d="M381.565 68.8752V55.9756H394.465V68.8752H381.565Z" fill="black" stroke="black" stroke-width="0.311862"/>
<path d="M381.565 82.0877V69.1881H394.465V82.0877H381.565Z" fill="black" stroke="black" stroke-width="0.311862"/>
<path d="M394.777 29.2407V16.3411H407.676V29.2407H394.777Z" fill="black" stroke="black" stroke-width="0.311862"/>
<path d="M407.988 29.2407V16.3411H420.888V29.2407H407.988Z" fill="black" stroke="black" stroke-width="0.311862"/>
<path d="M421.199 29.2407V16.3411H434.099V29.2407H421.199Z" fill="black" stroke="black" stroke-width="0.311862"/>
<path d="M434.412 42.4522V29.5526H447.312V42.4522H434.412Z" fill="black" stroke="black" stroke-width="0.311862"/>
<path d="M434.412 55.6637V42.7641H447.312V55.6637H434.412Z" fill="black" stroke="black" stroke-width="0.311862"/>
<path d="M434.412 68.8752V55.9756H447.312V68.8752H434.412Z" fill="black" stroke="black" stroke-width="0.311862"/>
<path d="M434.412 82.0877V69.1881H447.312V82.0877H434.412Z" fill="black" stroke="black" stroke-width="0.311862"/>
<path d="M407.988 42.4522V29.5526H420.888V42.4522H407.988Z" fill="black" stroke="black" stroke-width="0.311862"/>
<path d="M407.988 55.6637V42.7641H420.888V55.6637H407.988Z" fill="black" stroke="black" stroke-width="0.311862"/>
<path d="M407.988 68.8752V55.9756H420.888V68.8752H407.988Z" fill="black" stroke="black" stroke-width="0.311862"/>
<path d="M407.988 82.0877V69.1881H420.888V82.0877H407.988Z" fill="black" stroke="black" stroke-width="0.311862"/>
<path d="M193.467 29.2407V16.3411H206.367V29.2407H193.467Z" fill="black" stroke="black" stroke-width="0.311862"/>
<path d="M193.467 55.6637V42.7641H206.367V55.6637H193.467Z" fill="black" stroke="black" stroke-width="0.311862"/>
<path d="M206.68 55.6637V42.7641H219.579V55.6637H206.68Z" fill="black" stroke="black" stroke-width="0.311862"/>
<path d="M219.891 55.6637V42.7641H232.791V55.6637H219.891Z" fill="black" stroke="black" stroke-width="0.311862"/>
<path d="M193.467 68.8752V55.9756H206.367V68.8752H193.467Z" fill="black" stroke="black" stroke-width="0.311862"/>
<path d="M206.68 29.2407V16.3411H219.579V29.2407H206.68Z" fill="black" stroke="black" stroke-width="0.311862"/>
<path d="M219.891 29.2407V16.3411H232.791V29.2407H219.891Z" fill="black" stroke="black" stroke-width="0.311862"/>
<path d="M233.103 42.4522V29.5526H246.002V42.4522H233.103Z" fill="black" stroke="black" stroke-width="0.311862"/>
<path d="M233.103 55.6637V42.7641H246.002V55.6637H233.103Z" fill="black" stroke="black" stroke-width="0.311862"/>
<path d="M233.103 68.8752V55.9756H246.002V68.8752H233.103Z" fill="black" stroke="black" stroke-width="0.311862"/>
<path d="M219.891 82.0877V69.1881H232.791V82.0877H219.891Z" fill="black" stroke="black" stroke-width="0.311862"/>
<path d="M206.68 82.0877V69.1881H219.579V82.0877H206.68Z" fill="black" stroke="black" stroke-width="0.311862"/>
<path d="M457.555 29.2407V16.3411H470.455V29.2407H457.555Z" fill="black" stroke="black" stroke-width="0.311862"/>
<path d="M457.555 55.6637V42.7641H470.455V55.6637H457.555Z" fill="black" stroke="black" stroke-width="0.311862"/>
<path d="M470.767 55.6637V42.7641H483.666V55.6637H470.767Z" fill="black" stroke="black" stroke-width="0.311862"/>
<path d="M483.978 55.6637V42.7641H496.878V55.6637H483.978Z" fill="black" stroke="black" stroke-width="0.311862"/>
<path d="M457.555 68.8752V55.9756H470.455V68.8752H457.555Z" fill="black" stroke="black" stroke-width="0.311862"/>
<path d="M470.767 29.2407V16.3411H483.666V29.2407H470.767Z" fill="black" stroke="black" stroke-width="0.311862"/>
<path d="M483.978 29.2407V16.3411H496.878V29.2407H483.978Z" fill="black" stroke="black" stroke-width="0.311862"/>
<path d="M497.191 42.4522V29.5526H510.091V42.4522H497.191Z" fill="black" stroke="black" stroke-width="0.311862"/>
<path d="M497.191 55.6637V42.7641H510.091V55.6637H497.191Z" fill="black" stroke="black" stroke-width="0.311862"/>
<path d="M497.191 68.8752V55.9756H510.091V68.8752H497.191Z" fill="black" stroke="black" stroke-width="0.311862"/>
<path d="M483.978 82.0877V69.1881H496.878V82.0877H483.978Z" fill="black" stroke="black" stroke-width="0.311862"/>
<path d="M470.767 82.0877V69.1881H483.666V82.0877H470.767Z" fill="black" stroke="black" stroke-width="0.311862"/>
<path d="M318.987 42.4522V29.5526H331.886V42.4522H318.987Z" fill="black" stroke="black" stroke-width="0.311862"/>
<path d="M318.987 55.6637V42.7641H331.886V55.6637H318.987Z" fill="black" stroke="black" stroke-width="0.311862"/>
<path d="M318.987 68.8752V55.9756H331.886V68.8752H318.987Z" fill="black" stroke="black" stroke-width="0.311862"/>
<path d="M332.143 29.2407V16.3411H345.043V29.2407H332.143Z" fill="black" stroke="black" stroke-width="0.311862"/>
<path d="M345.269 29.2407V16.3411H358.168V29.2407H345.269Z" fill="black" stroke="black" stroke-width="0.311862"/>
<path d="M358.422 29.2407V16.3411H371.321V29.2407H358.422Z" fill="black" stroke="black" stroke-width="0.311862"/>
<path d="M358.415 55.6637V42.7641H371.315V55.6637H358.415Z" fill="black" stroke="black" stroke-width="0.311862"/>
<path d="M345.269 55.6637V42.7641H358.168V55.6637H345.269Z" fill="black" stroke="black" stroke-width="0.311862"/>
<path d="M358.415 68.8752V55.9756H371.315V68.8752H358.415Z" fill="black" stroke="black" stroke-width="0.311862"/>
<path d="M345.282 82.0878V69.1882H358.182V82.0878H345.282Z" fill="black" stroke="black" stroke-width="0.311862"/>
<path d="M332.143 82.0878V69.1882H345.043V82.0878H332.143Z" fill="black" stroke="black" stroke-width="0.311862"/>
</svg>
