<svg width="452" height="72" viewBox="0 0 452 72" fill="none" xmlns="http://www.w3.org/2000/svg">
<path d="M43.3014 68.3516H40.4412V71.946H43.3014V68.3516Z" fill="black"/>
<path d="M40.4413 68.3516H37.5811V71.946H40.4413V68.3516Z" fill="black"/>
<path d="M37.5807 68.3516H34.7205V71.946H37.5807V68.3516Z" fill="black"/>
<path d="M34.7204 68.3516H31.8601V71.946H34.7204V68.3516Z" fill="black"/>
<path d="M31.86 68.3516H28.9998V71.946H31.86V68.3516Z" fill="black"/>
<path d="M28.9999 68.3516H26.1396V71.946H28.9999V68.3516Z" fill="black"/>
<path d="M26.1395 68.3516H23.2793V71.946H26.1395V68.3516Z" fill="black"/>
<path d="M23.2789 68.3516H20.4187V71.946H23.2789V68.3516Z" fill="black"/>
<path d="M20.4188 68.3516H17.5586V71.946H20.4188V68.3516Z" fill="black"/>
<path d="M17.5585 68.3516H14.6982V71.946H17.5585V68.3516Z" fill="black"/>
<path d="M14.6984 68.3516H11.8381V71.946H14.6984V68.3516Z" fill="black"/>
<path d="M51.8822 64.7559H49.022V68.3503H51.8822V64.7559Z" fill="black"/>
<path d="M49.0221 64.7559H46.1619V68.3503H49.0221V64.7559Z" fill="black"/>
<path d="M46.1618 64.7559H43.3015V68.3503H46.1618V64.7559Z" fill="black"/>
<path d="M43.3014 64.7559H40.4412V68.3503H43.3014V64.7559Z" fill="black"/>
<path d="M40.4413 64.7559H37.5811V68.3503H40.4413V64.7559Z" fill="black"/>
<path d="M37.5807 64.7559H34.7205V68.3503H37.5807V64.7559Z" fill="black"/>
<path d="M34.7204 64.7559H31.8601V68.3503H34.7204V64.7559Z" fill="black"/>
<path d="M31.86 64.7559H28.9998V68.3503H31.86V64.7559Z" fill="black"/>
<path d="M28.9999 64.7559H26.1396V68.3503H28.9999V64.7559Z" fill="black"/>
<path d="M26.1395 64.7559H23.2793V68.3503H26.1395V64.7559Z" fill="black"/>
<path d="M23.2789 64.7559H20.4187V68.3503H23.2789V64.7559Z" fill="black"/>
<path d="M20.4188 64.7559H17.5586V68.3503H20.4188V64.7559Z" fill="black"/>
<path d="M17.5585 64.7559H14.6982V68.3503H17.5585V64.7559Z" fill="black"/>
<path d="M14.6984 64.7559H11.8381V68.3503H14.6984V64.7559Z" fill="black"/>
<path d="M11.838 64.7559H8.97778V68.3503H11.838V64.7559Z" fill="black"/>
<path d="M8.97743 64.7559H6.11719V68.3503H8.97743V64.7559Z" fill="black"/>
<path d="M54.7426 61.1621H51.8823V64.7566H54.7426V61.1621Z" fill="black"/>
<path d="M51.8822 61.1621H49.022V64.7566H51.8822V61.1621Z" fill="black"/>
<path d="M49.0221 61.1621H46.1619V64.7566H49.0221V61.1621Z" fill="black"/>
<path d="M46.1618 61.1621H43.3015V64.7566H46.1618V61.1621Z" fill="black"/>
<path d="M43.3014 61.1621H40.4412V64.7566H43.3014V61.1621Z" fill="black"/>
<path d="M40.4413 61.1621H37.5811V64.7566H40.4413V61.1621Z" fill="black"/>
<path d="M37.5807 61.1621H34.7205V64.7566H37.5807V61.1621Z" fill="black"/>
<path d="M34.7204 61.1621H31.8601V64.7566H34.7204V61.1621Z" fill="black"/>
<path d="M31.86 61.1621H28.9998V64.7566H31.86V61.1621Z" fill="black"/>
<path d="M28.9999 61.1621H26.1396V64.7566H28.9999V61.1621Z" fill="black"/>
<path d="M26.1395 61.1621H23.2793V64.7566H26.1395V61.1621Z" fill="black"/>
<path d="M23.2789 61.1621H20.4187V64.7566H23.2789V61.1621Z" fill="black"/>
<path d="M20.4188 61.1621H17.5586V64.7566H20.4188V61.1621Z" fill="black"/>
<path d="M17.5585 61.1621H14.6982V64.7566H17.5585V61.1621Z" fill="black"/>
<path d="M14.6984 61.1621H11.8381V64.7566H14.6984V61.1621Z" fill="black"/>
<path d="M11.838 61.1621H8.97778V64.7566H11.838V61.1621Z" fill="black"/>
<path d="M8.97743 61.1621H6.11719V64.7566H8.97743V61.1621Z" fill="black"/>
<path d="M6.11708 61.1621H3.25684V64.7566H6.11708V61.1621Z" fill="black"/>
<path d="M57.6032 57.5664H54.7429V61.1609H57.6032V57.5664Z" fill="black"/>
<path d="M54.7426 57.5664H51.8823V61.1609H54.7426V57.5664Z" fill="black"/>
<path d="M51.8822 57.5664H49.022V61.1609H51.8822V57.5664Z" fill="black"/>
<path d="M49.0221 57.5664H46.1619V61.1609H49.0221V57.5664Z" fill="black"/>
<path d="M46.1618 57.5664H43.3015V61.1609H46.1618V57.5664Z" fill="black"/>
<path d="M43.3014 57.5664H40.4412V61.1609H43.3014V57.5664Z" fill="black"/>
<path d="M40.4413 57.5664H37.5811V61.1609H40.4413V57.5664Z" fill="black"/>
<path d="M37.5807 57.5664H34.7205V61.1609H37.5807V57.5664Z" fill="black"/>
<path d="M34.7204 57.5664H31.8601V61.1609H34.7204V57.5664Z" fill="black"/>
<path d="M31.86 57.5664H28.9998V61.1609H31.86V57.5664Z" fill="black"/>
<path d="M28.9999 57.5664H26.1396V61.1609H28.9999V57.5664Z" fill="black"/>
<path d="M26.1395 57.5664H23.2793V61.1609H26.1395V57.5664Z" fill="black"/>
<path d="M23.2789 57.5664H20.4187V61.1609H23.2789V57.5664Z" fill="black"/>
<path d="M20.4188 57.5664H17.5586V61.1609H20.4188V57.5664Z" fill="black"/>
<path d="M17.5585 57.5664H14.6982V61.1609H17.5585V57.5664Z" fill="black"/>
<path d="M14.6984 57.5664H11.8381V61.1609H14.6984V57.5664Z" fill="black"/>
<path d="M11.838 57.5664H8.97778V61.1609H11.838V57.5664Z" fill="black"/>
<path d="M8.97743 57.5664H6.11719V61.1609H8.97743V57.5664Z" fill="black"/>
<path d="M6.11708 57.5664H3.25684V61.1609H6.11708V57.5664Z" fill="black"/>
<path d="M3.25698 57.5664H0.396729V61.1609H3.25698V57.5664Z" fill="black"/>
<path d="M28.9999 53.9727H26.1396V57.5671H28.9999V53.9727Z" fill="black"/>
<path d="M54.7426 50.3789H51.8823V53.9734H54.7426V50.3789Z" fill="black"/>
<path d="M51.8822 50.3789H49.022V53.9734H51.8822V50.3789Z" fill="black"/>
<path d="M49.0221 50.3789H46.1619V53.9734H49.0221V50.3789Z" fill="black"/>
<path d="M46.1618 50.3789H43.3015V53.9734H46.1618V50.3789Z" fill="black"/>
<path d="M43.3014 50.3789H40.4412V53.9734H43.3014V50.3789Z" fill="black"/>
<path d="M40.4413 50.3789H37.5811V53.9734H40.4413V50.3789Z" fill="black"/>
<path d="M37.5807 50.3789H34.7205V53.9734H37.5807V50.3789Z" fill="black"/>
<path d="M34.7204 50.3789H31.8601V53.9734H34.7204V50.3789Z" fill="black"/>
<path d="M31.86 50.3789H28.9998V53.9734H31.86V50.3789Z" fill="black"/>
<path d="M28.9999 50.3789H26.1396V53.9734H28.9999V50.3789Z" fill="black"/>
<path d="M26.1395 50.3789H23.2793V53.9734H26.1395V50.3789Z" fill="black"/>
<path d="M23.2789 50.3789H20.4187V53.9734H23.2789V50.3789Z" fill="black"/>
<path d="M20.4188 50.3789H17.5586V53.9734H20.4188V50.3789Z" fill="black"/>
<path d="M17.5585 50.3789H14.6982V53.9734H17.5585V50.3789Z" fill="black"/>
<path d="M14.6984 50.3789H11.8381V53.9734H14.6984V50.3789Z" fill="black"/>
<path d="M11.838 50.3789H8.97778V53.9734H11.838V50.3789Z" fill="black"/>
<path d="M8.97743 50.3789H6.11719V53.9734H8.97743V50.3789Z" fill="black"/>
<path d="M6.11708 50.3789H3.25684V53.9734H6.11708V50.3789Z" fill="black"/>
<path d="M51.8822 46.7852H49.022V50.3796H51.8822V46.7852Z" fill="black"/>
<path d="M49.0221 46.7852H46.1619V50.3796H49.0221V46.7852Z" fill="black"/>
<path d="M46.1618 46.7852H43.3015V50.3796H46.1618V46.7852Z" fill="black"/>
<path d="M43.3014 46.7852H40.4412V50.3796H43.3014V46.7852Z" fill="black"/>
<path d="M40.4413 46.7852H37.5811V50.3796H40.4413V46.7852Z" fill="black"/>
<path d="M37.5807 46.7852H34.7205V50.3796H37.5807V46.7852Z" fill="black"/>
<path d="M34.7204 46.7852H31.8601V50.3796H34.7204V46.7852Z" fill="black"/>
<path d="M31.86 46.7852H28.9998V50.3796H31.86V46.7852Z" fill="black"/>
<path d="M28.9999 46.7852H26.1396V50.3796H28.9999V46.7852Z" fill="black"/>
<path d="M23.2789 46.7852H20.4187V50.3796H23.2789V46.7852Z" fill="black"/>
<path d="M20.4188 46.7852H17.5586V50.3796H20.4188V46.7852Z" fill="black"/>
<path d="M17.5585 46.7852H14.6982V50.3796H17.5585V46.7852Z" fill="black"/>
<path d="M14.6984 46.7852H11.8381V50.3796H14.6984V46.7852Z" fill="black"/>
<path d="M11.838 46.7852H8.97778V50.3796H11.838V46.7852Z" fill="black"/>
<path d="M8.97743 46.7852H6.11719V50.3796H8.97743V46.7852Z" fill="black"/>
<path d="M6.11708 46.7852H3.25684V50.3796H6.11708V46.7852Z" fill="black"/>
<path d="M3.25698 46.7852H0.396729V50.3796H3.25698V46.7852Z" fill="black"/>
<path d="M46.1618 43.1895H43.3015V46.7839H46.1618V43.1895Z" fill="black"/>
<path d="M43.3014 43.1895H40.4412V46.7839H43.3014V43.1895Z" fill="black"/>
<path d="M40.4413 43.1895H37.5811V46.7839H40.4413V43.1895Z" fill="black"/>
<path d="M37.5807 43.1895H34.7205V46.7839H37.5807V43.1895Z" fill="black"/>
<path d="M34.7204 43.1895H31.8601V46.7839H34.7204V43.1895Z" fill="black"/>
<path d="M31.86 43.1895H28.9998V46.7839H31.86V43.1895Z" fill="black"/>
<path d="M28.9999 43.1895H26.1396V46.7839H28.9999V43.1895Z" fill="black"/>
<path d="M20.4188 43.1895H17.5586V46.7839H20.4188V43.1895Z" fill="black"/>
<path d="M17.5585 43.1895H14.6982V46.7839H17.5585V43.1895Z" fill="black"/>
<path d="M14.6984 43.1895H11.8381V46.7839H14.6984V43.1895Z" fill="black"/>
<path d="M11.838 43.1895H8.97778V46.7839H11.838V43.1895Z" fill="black"/>
<path d="M8.97743 43.1895H6.11719V46.7839H8.97743V43.1895Z" fill="black"/>
<path d="M6.11708 43.1895H3.25684V46.7839H6.11708V43.1895Z" fill="black"/>
<path d="M3.25698 43.1895H0.396729V46.7839H3.25698V43.1895Z" fill="black"/>
<path d="M43.3014 39.5957H40.4412V43.1902H43.3014V39.5957Z" fill="black"/>
<path d="M40.4413 39.5957H37.5811V43.1902H40.4413V39.5957Z" fill="black"/>
<path d="M37.5807 39.5957H34.7205V43.1902H37.5807V39.5957Z" fill="black"/>
<path d="M34.7204 39.5957H31.8601V43.1902H34.7204V39.5957Z" fill="black"/>
<path d="M31.86 39.5957H28.9998V43.1902H31.86V39.5957Z" fill="black"/>
<path d="M28.9999 39.5957H26.1396V43.1902H28.9999V39.5957Z" fill="black"/>
<path d="M26.1395 39.5957H23.2793V43.1902H26.1395V39.5957Z" fill="black"/>
<path d="M20.4188 39.5957H17.5586V43.1902H20.4188V39.5957Z" fill="black"/>
<path d="M17.5585 39.5957H14.6982V43.1902H17.5585V39.5957Z" fill="black"/>
<path d="M14.6984 39.5957H11.8381V43.1902H14.6984V39.5957Z" fill="black"/>
<path d="M11.838 39.5957H8.97778V43.1902H11.838V39.5957Z" fill="black"/>
<path d="M8.97743 39.5957H6.11719V43.1902H8.97743V39.5957Z" fill="black"/>
<path d="M6.11708 39.5957H3.25684V43.1902H6.11708V39.5957Z" fill="black"/>
<path d="M3.25698 39.5957H0.396729V43.1902H3.25698V39.5957Z" fill="black"/>
<path d="M40.4413 36H37.5811V39.5945H40.4413V36Z" fill="black"/>
<path d="M37.5807 36H34.7205V39.5945H37.5807V36Z" fill="black"/>
<path d="M34.7204 36H31.8601V39.5945H34.7204V36Z" fill="black"/>
<path d="M31.86 36H28.9998V39.5945H31.86V36Z" fill="black"/>
<path d="M28.9999 36H26.1396V39.5945H28.9999V36Z" fill="black"/>
<path d="M26.1395 36H23.2793V39.5945H26.1395V36Z" fill="black"/>
<path d="M17.5585 36H14.6982V39.5945H17.5585V36Z" fill="black"/>
<path d="M14.6984 36H11.8381V39.5945H14.6984V36Z" fill="black"/>
<path d="M11.838 36H8.97778V39.5945H11.838V36Z" fill="black"/>
<path d="M8.97743 36H6.11719V39.5945H8.97743V36Z" fill="black"/>
<path d="M6.11708 36H3.25684V39.5945H6.11708V36Z" fill="black"/>
<path d="M3.25698 36H0.396729V39.5945H3.25698V36Z" fill="black"/>
<path d="M37.5807 32.4062H34.7205V36.0007H37.5807V32.4062Z" fill="black"/>
<path d="M34.7204 32.4062H31.8601V36.0007H34.7204V32.4062Z" fill="black"/>
<path d="M31.86 32.4062H28.9998V36.0007H31.86V32.4062Z" fill="black"/>
<path d="M28.9999 32.4062H26.1396V36.0007H28.9999V32.4062Z" fill="black"/>
<path d="M26.1395 32.4062H23.2793V36.0007H26.1395V32.4062Z" fill="black"/>
<path d="M17.5585 32.4062H14.6982V36.0007H17.5585V32.4062Z" fill="black"/>
<path d="M14.6984 32.4062H11.8381V36.0007H14.6984V32.4062Z" fill="black"/>
<path d="M11.838 32.4062H8.97778V36.0007H11.838V32.4062Z" fill="black"/>
<path d="M8.97743 32.4062H6.11719V36.0007H8.97743V32.4062Z" fill="black"/>
<path d="M6.11708 32.4062H3.25684V36.0007H6.11708V32.4062Z" fill="black"/>
<path d="M34.7204 28.8125H31.8601V32.407H34.7204V28.8125Z" fill="black"/>
<path d="M31.86 28.8125H28.9998V32.407H31.86V28.8125Z" fill="black"/>
<path d="M28.9999 28.8125H26.1396V32.407H28.9999V28.8125Z" fill="black"/>
<path d="M26.1395 28.8125H23.2793V32.407H26.1395V28.8125Z" fill="black"/>
<path d="M14.6984 28.8125H11.8381V32.407H14.6984V28.8125Z" fill="black"/>
<path d="M11.838 28.8125H8.97778V32.407H11.838V28.8125Z" fill="black"/>
<path d="M8.97743 28.8125H6.11719V32.407H8.97743V28.8125Z" fill="black"/>
<path d="M6.11708 28.8125H3.25684V32.407H6.11708V28.8125Z" fill="black"/>
<path d="M31.86 25.2168H28.9998V28.8113H31.86V25.2168Z" fill="black"/>
<path d="M28.9999 25.2168H26.1396V28.8113H28.9999V25.2168Z" fill="black"/>
<path d="M26.1395 25.2168H23.2793V28.8113H26.1395V25.2168Z" fill="black"/>
<path d="M14.6984 25.2168H11.8381V28.8113H14.6984V25.2168Z" fill="black"/>
<path d="M11.838 25.2168H8.97778V28.8113H11.838V25.2168Z" fill="black"/>
<path d="M8.97743 25.2168H6.11719V28.8113H8.97743V25.2168Z" fill="black"/>
<path d="M31.86 21.623H28.9998V25.2175H31.86V21.623Z" fill="black"/>
<path d="M28.9999 21.623H26.1396V25.2175H28.9999V21.623Z" fill="black"/>
<path d="M26.1395 21.623H23.2793V25.2175H26.1395V21.623Z" fill="black"/>
<path d="M17.5585 21.623H14.6982V25.2175H17.5585V21.623Z" fill="black"/>
<path d="M14.6984 21.623H11.8381V25.2175H14.6984V21.623Z" fill="black"/>
<path d="M11.838 21.623H8.97778V25.2175H11.838V21.623Z" fill="black"/>
<path d="M28.9999 18.0293H26.1396V21.6238H28.9999V18.0293Z" fill="black"/>
<path d="M26.1395 18.0293H23.2793V21.6238H26.1395V18.0293Z" fill="black"/>
<path d="M17.5585 18.0293H14.6982V21.6238H17.5585V18.0293Z" fill="black"/>
<path d="M14.6984 18.0293H11.8381V21.6238H14.6984V18.0293Z" fill="black"/>
<path d="M28.9999 14.4336H26.1396V18.0281H28.9999V14.4336Z" fill="black"/>
<path d="M26.1395 14.4336H23.2793V18.0281H26.1395V14.4336Z" fill="black"/>
<path d="M20.4188 14.4336H17.5586V18.0281H20.4188V14.4336Z" fill="black"/>
<path d="M17.5585 14.4336H14.6982V18.0281H17.5585V14.4336Z" fill="black"/>
<path d="M26.1395 10.8398H23.2793V14.4343H26.1395V10.8398Z" fill="black"/>
<path d="M20.4188 10.8398H17.5586V14.4343H20.4188V10.8398Z" fill="black"/>
<path d="M26.1395 7.24609H23.2793V10.8406H26.1395V7.24609Z" fill="black"/>
<path d="M23.2789 7.24609H20.4187V10.8406H23.2789V7.24609Z" fill="black"/>
<path d="M23.2789 3.65039H20.4187V7.24485H23.2789V3.65039Z" fill="black"/>
<path d="M23.2789 0.0566406H20.4187V3.6511H23.2789V0.0566406Z" fill="black"/>
<path d="M327.628 25.7218V19.0785H334.272V25.7218H327.628Z" fill="black" stroke="black" stroke-width="0.156987"/>
<path d="M334.429 25.7218V19.0785H341.072V25.7218H334.429Z" fill="black" stroke="black" stroke-width="0.156987"/>
<path d="M341.23 25.7218V19.0785H347.873V25.7218H341.23Z" fill="black" stroke="black" stroke-width="0.156987"/>
<path d="M348.03 32.5226V25.8793H354.673V32.5226H348.03Z" fill="black" stroke="black" stroke-width="0.156987"/>
<path d="M348.03 39.3234V32.6801H354.673V39.3234H348.03Z" fill="black" stroke="black" stroke-width="0.156987"/>
<path d="M327.628 32.5226V25.8793H334.272V32.5226H327.628Z" fill="black" stroke="black" stroke-width="0.156987"/>
<path d="M327.628 39.3234V32.6801H334.272V39.3234H327.628Z" fill="black" stroke="black" stroke-width="0.156987"/>
<path d="M327.628 46.1242V39.4808H334.272V46.1242H327.628Z" fill="black" stroke="black" stroke-width="0.156987"/>
<path d="M327.628 52.923V46.2797H334.272V52.923H327.628Z" fill="black" stroke="black" stroke-width="0.156987"/>
<path d="M341.23 39.3234V32.6801H347.873V39.3234H341.23Z" fill="black" stroke="black" stroke-width="0.156987"/>
<path d="M334.429 39.3234V32.6801H341.072V39.3234H334.429Z" fill="black" stroke="black" stroke-width="0.156987"/>
<path d="M348.03 46.1242V39.4808H354.673V46.1242H348.03Z" fill="black" stroke="black" stroke-width="0.156987"/>
<path d="M334.429 52.923V46.2797H341.072V52.923H334.429Z" fill="black" stroke="black" stroke-width="0.156987"/>
<path d="M341.23 52.923V46.2797H347.873V52.923H341.23Z" fill="black" stroke="black" stroke-width="0.156987"/>
<path d="M359.923 25.7218V19.0785H366.566V25.7218H359.923Z" fill="black" stroke="black" stroke-width="0.156987"/>
<path d="M359.922 32.5226V25.8793H366.566V32.5226H359.922Z" fill="black" stroke="black" stroke-width="0.156987"/>
<path d="M359.922 39.3234V32.6801H366.566V39.3234H359.922Z" fill="black" stroke="black" stroke-width="0.156987"/>
<path d="M359.922 46.1242V39.4808H366.566V46.1242H359.922Z" fill="black" stroke="black" stroke-width="0.156987"/>
<path d="M366.724 52.923V46.2797H373.367V52.923H366.724Z" fill="black" stroke="black" stroke-width="0.156987"/>
<path d="M373.524 52.923V46.2797H380.167V52.923H373.524Z" fill="black" stroke="black" stroke-width="0.156987"/>
<path d="M366.724 25.7218V19.0785H373.367V25.7218H366.724Z" fill="black" stroke="black" stroke-width="0.156987"/>
<path d="M373.524 25.7218V19.0785H380.167V25.7218H373.524Z" fill="black" stroke="black" stroke-width="0.156987"/>
<path d="M380.324 32.5226V25.8793H386.967V32.5226H380.324Z" fill="black" stroke="black" stroke-width="0.156987"/>
<path d="M380.324 39.3234V32.6801H386.967V39.3234H380.324Z" fill="black" stroke="black" stroke-width="0.156987"/>
<path d="M380.324 46.1242V39.4808H386.967V46.1242H380.324Z" fill="black" stroke="black" stroke-width="0.156987"/>
<path d="M380.324 52.923V46.2797H386.967V52.923H380.324Z" fill="black" stroke="black" stroke-width="0.156987"/>
<path d="M424.511 25.7218V19.0785H431.155V25.7218H424.511Z" fill="black" stroke="black" stroke-width="0.156987"/>
<path d="M434.68 32.5226V25.8793H441.324V32.5226H434.68Z" fill="black" stroke="black" stroke-width="0.156987"/>
<path d="M434.68 39.3234V32.6801H441.324V39.3234H434.68Z" fill="black" stroke="black" stroke-width="0.156987"/>
<path d="M434.68 46.1242V39.4808H441.324V46.1242H434.68Z" fill="black" stroke="black" stroke-width="0.156987"/>
<path d="M434.68 52.923V46.2797H441.324V52.923H434.68Z" fill="black" stroke="black" stroke-width="0.156987"/>
<path d="M431.312 25.7218V19.0785H437.956V25.7218H431.312Z" fill="black" stroke="black" stroke-width="0.156987"/>
<path d="M438.112 25.7218V19.0785H444.756V25.7218H438.112Z" fill="black" stroke="black" stroke-width="0.156987"/>
<path d="M444.881 25.7218V19.0785H451.525V25.7218H444.881Z" fill="black" stroke="black" stroke-width="0.156987"/>
<path d="M392.217 25.7218V19.0785H398.861V25.7218H392.217Z" fill="black" stroke="black" stroke-width="0.156987"/>
<path d="M392.217 39.3234V32.6801H398.861V39.3234H392.217Z" fill="black" stroke="black" stroke-width="0.156987"/>
<path d="M399.018 39.3234V32.6801H405.661V39.3234H399.018Z" fill="black" stroke="black" stroke-width="0.156987"/>
<path d="M405.818 39.3234V32.6801H412.462V39.3234H405.818Z" fill="black" stroke="black" stroke-width="0.156987"/>
<path d="M392.217 46.1242V39.4808H398.861V46.1242H392.217Z" fill="black" stroke="black" stroke-width="0.156987"/>
<path d="M399.018 25.7218V19.0785H405.661V25.7218H399.018Z" fill="black" stroke="black" stroke-width="0.156987"/>
<path d="M405.818 25.7218V19.0785H412.462V25.7218H405.818Z" fill="black" stroke="black" stroke-width="0.156987"/>
<path d="M412.619 32.5226V25.8793H419.262V32.5226H412.619Z" fill="black" stroke="black" stroke-width="0.156987"/>
<path d="M412.619 39.3234V32.6801H419.262V39.3234H412.619Z" fill="black" stroke="black" stroke-width="0.156987"/>
<path d="M412.619 46.1242V39.4808H419.262V46.1242H412.619Z" fill="black" stroke="black" stroke-width="0.156987"/>
<path d="M405.818 52.923V46.2797H412.462V52.923H405.818Z" fill="black" stroke="black" stroke-width="0.156987"/>
<path d="M399.018 52.923V46.2797H405.661V52.923H399.018Z" fill="black" stroke="black" stroke-width="0.156987"/>
<g filter="url(#filter0_d_312_21808)">
<path d="M72.6818 25.7218V19.0785H79.3251V25.7218H72.6818Z" fill="black" stroke="black" stroke-width="0.156987"/>
<path d="M72.6818 32.5226V25.8793H79.3251V32.5226H72.6818Z" fill="black" stroke="black" stroke-width="0.156987"/>
<path d="M72.6818 39.3234V32.6801H79.3251V39.3234H72.6818Z" fill="black" stroke="black" stroke-width="0.156987"/>
<path d="M72.6818 46.1222V39.4789H79.3251V46.1222H72.6818Z" fill="black" stroke="black" stroke-width="0.156987"/>
<path d="M72.6818 52.923V46.2797H79.3251V52.923H72.6818Z" fill="black" stroke="black" stroke-width="0.156987"/>
<path d="M79.4825 25.7218V19.0785H86.1259V25.7218H79.4825Z" fill="black" stroke="black" stroke-width="0.156987"/>
<path d="M86.2831 25.7218V19.0785H92.9264V25.7218H86.2831Z" fill="black" stroke="black" stroke-width="0.156987"/>
<path d="M93.0834 32.5226V25.8793H99.7267V32.5226H93.0834Z" fill="black" stroke="black" stroke-width="0.156987"/>
<path d="M93.0834 39.3234V32.6801H99.7267V39.3234H93.0834Z" fill="black" stroke="black" stroke-width="0.156987"/>
<path d="M93.0834 46.1222V39.4789H99.7267V46.1222H93.0834Z" fill="black" stroke="black" stroke-width="0.156987"/>
<path d="M93.0834 52.923V46.2797H99.7267V52.923H93.0834Z" fill="black" stroke="black" stroke-width="0.156987"/>
<path d="M137.271 25.7218V19.0785H143.914V25.7218H137.271Z" fill="black" stroke="black" stroke-width="0.156987"/>
<path d="M137.271 32.5226V25.8793H143.914V32.5226H137.271Z" fill="black" stroke="black" stroke-width="0.156987"/>
<path d="M137.271 39.3234V32.6801H143.914V39.3234H137.271Z" fill="black" stroke="black" stroke-width="0.156987"/>
<path d="M137.271 46.1222V39.4789H143.914V46.1222H137.271Z" fill="black" stroke="black" stroke-width="0.156987"/>
<path d="M137.271 52.923V46.2797H143.914V52.923H137.271Z" fill="black" stroke="black" stroke-width="0.156987"/>
<path d="M144.071 25.7218V19.0785H150.715V25.7218H144.071Z" fill="black" stroke="black" stroke-width="0.156987"/>
<path d="M150.872 25.7218V19.0785H157.515V25.7218H150.872Z" fill="black" stroke="black" stroke-width="0.156987"/>
<path d="M157.672 32.5226V25.8793H164.315V32.5226H157.672Z" fill="black" stroke="black" stroke-width="0.156987"/>
<path d="M157.672 39.3234V32.6801H164.315V39.3234H157.672Z" fill="black" stroke="black" stroke-width="0.156987"/>
<path d="M157.672 46.1222V39.4789H164.315V46.1222H157.672Z" fill="black" stroke="black" stroke-width="0.156987"/>
<path d="M157.672 52.923V46.2797H164.315V52.923H157.672Z" fill="black" stroke="black" stroke-width="0.156987"/>
<path d="M273.224 25.7218V19.0785H279.867V25.7218H273.224Z" fill="black" stroke="black" stroke-width="0.156987"/>
<path d="M273.224 32.5226V25.8793H279.867V32.5226H273.224Z" fill="black" stroke="black" stroke-width="0.156987"/>
<path d="M273.224 39.3234V32.6801H279.867V39.3234H273.224Z" fill="black" stroke="black" stroke-width="0.156987"/>
<path d="M273.224 46.1222V39.4789H279.867V46.1222H273.224Z" fill="black" stroke="black" stroke-width="0.156987"/>
<path d="M273.224 52.923V46.2797H279.867V52.923H273.224Z" fill="black" stroke="black" stroke-width="0.156987"/>
<path d="M280.024 25.7218V19.0785H286.668V25.7218H280.024Z" fill="black" stroke="black" stroke-width="0.156987"/>
<path d="M286.825 25.7218V19.0785H293.468V25.7218H286.825Z" fill="black" stroke="black" stroke-width="0.156987"/>
<path d="M293.625 32.5226V25.8793H300.269V32.5226H293.625Z" fill="black" stroke="black" stroke-width="0.156987"/>
<path d="M293.625 39.3234V32.6801H300.269V39.3234H293.625Z" fill="black" stroke="black" stroke-width="0.156987"/>
<path d="M293.625 46.1222V39.4789H300.269V46.1222H293.625Z" fill="black" stroke="black" stroke-width="0.156987"/>
<path d="M293.625 52.923V46.2797H300.269V52.923H293.625Z" fill="black" stroke="black" stroke-width="0.156987"/>
<path d="M201.796 25.7218V19.0785H208.439V25.7218H201.796Z" fill="black" stroke="black" stroke-width="0.156987"/>
<path d="M201.796 32.5226V25.8793H208.439V32.5226H201.796Z" fill="black" stroke="black" stroke-width="0.156987"/>
<path d="M201.796 39.3234V32.6801H208.439V39.3234H201.796Z" fill="black" stroke="black" stroke-width="0.156987"/>
<path d="M201.796 46.1222V39.4789H208.439V46.1222H201.796Z" fill="black" stroke="black" stroke-width="0.156987"/>
<path d="M201.796 52.923V46.2797H208.439V52.923H201.796Z" fill="black" stroke="black" stroke-width="0.156987"/>
<path d="M208.596 25.7218V19.0785H215.239V25.7218H208.596Z" fill="black" stroke="black" stroke-width="0.156987"/>
<path d="M215.396 25.7218V19.0785H222.039V25.7218H215.396Z" fill="black" stroke="black" stroke-width="0.156987"/>
<path d="M222.196 25.7218V19.0785H228.84V25.7218H222.196Z" fill="black" stroke="black" stroke-width="0.156987"/>
<path d="M228.997 32.5226V25.8793H235.641V32.5226H228.997Z" fill="black" stroke="black" stroke-width="0.156987"/>
<path d="M228.997 39.3234V32.6801H235.641V39.3234H228.997Z" fill="black" stroke="black" stroke-width="0.156987"/>
<path d="M228.997 46.1222V39.4789H235.641V46.1222H228.997Z" fill="black" stroke="black" stroke-width="0.156987"/>
<path d="M228.997 52.923V46.2797H235.641V52.923H228.997Z" fill="black" stroke="black" stroke-width="0.156987"/>
<path d="M215.396 32.5226V25.8793H222.039V32.5226H215.396Z" fill="black" stroke="black" stroke-width="0.156987"/>
<path d="M215.396 39.3234V32.6801H222.039V39.3234H215.396Z" fill="black" stroke="black" stroke-width="0.156987"/>
<path d="M215.396 46.1222V39.4789H222.039V46.1222H215.396Z" fill="black" stroke="black" stroke-width="0.156987"/>
<path d="M215.396 52.923V46.2797H222.039V52.923H215.396Z" fill="black" stroke="black" stroke-width="0.156987"/>
<path d="M104.976 25.7218V19.0785H111.62V25.7218H104.976Z" fill="black" stroke="black" stroke-width="0.156987"/>
<path d="M104.976 39.3234V32.6801H111.62V39.3234H104.976Z" fill="black" stroke="black" stroke-width="0.156987"/>
<path d="M111.777 39.3234V32.6801H118.42V39.3234H111.777Z" fill="black" stroke="black" stroke-width="0.156987"/>
<path d="M118.577 39.3234V32.6801H125.221V39.3234H118.577Z" fill="black" stroke="black" stroke-width="0.156987"/>
<path d="M104.976 46.1222V39.4789H111.62V46.1222H104.976Z" fill="black" stroke="black" stroke-width="0.156987"/>
<path d="M111.777 25.7218V19.0785H118.42V25.7218H111.777Z" fill="black" stroke="black" stroke-width="0.156987"/>
<path d="M118.577 25.7218V19.0785H125.221V25.7218H118.577Z" fill="black" stroke="black" stroke-width="0.156987"/>
<path d="M125.378 32.5226V25.8793H132.021V32.5226H125.378Z" fill="black" stroke="black" stroke-width="0.156987"/>
<path d="M125.378 39.3234V32.6801H132.021V39.3234H125.378Z" fill="black" stroke="black" stroke-width="0.156987"/>
<path d="M125.378 46.1222V39.4789H132.021V46.1222H125.378Z" fill="black" stroke="black" stroke-width="0.156987"/>
<path d="M118.577 52.923V46.2797H125.221V52.923H118.577Z" fill="black" stroke="black" stroke-width="0.156987"/>
<path d="M111.777 52.923V46.2797H118.42V52.923H111.777Z" fill="black" stroke="black" stroke-width="0.156987"/>
<path d="M240.91 25.7218V19.0785H247.553V25.7218H240.91Z" fill="black" stroke="black" stroke-width="0.156987"/>
<path d="M240.91 39.3234V32.6801H247.553V39.3234H240.91Z" fill="black" stroke="black" stroke-width="0.156987"/>
<path d="M247.71 39.3234V32.6801H254.353V39.3234H247.71Z" fill="black" stroke="black" stroke-width="0.156987"/>
<path d="M254.511 39.3234V32.6801H261.154V39.3234H254.511Z" fill="black" stroke="black" stroke-width="0.156987"/>
<path d="M240.91 46.1222V39.4789H247.553V46.1222H240.91Z" fill="black" stroke="black" stroke-width="0.156987"/>
<path d="M247.71 25.7218V19.0785H254.353V25.7218H247.71Z" fill="black" stroke="black" stroke-width="0.156987"/>
<path d="M254.511 25.7218V19.0785H261.154V25.7218H254.511Z" fill="black" stroke="black" stroke-width="0.156987"/>
<path d="M261.311 32.5226V25.8793H267.955V32.5226H261.311Z" fill="black" stroke="black" stroke-width="0.156987"/>
<path d="M261.311 39.3234V32.6801H267.955V39.3234H261.311Z" fill="black" stroke="black" stroke-width="0.156987"/>
<path d="M261.311 46.1222V39.4789H267.955V46.1222H261.311Z" fill="black" stroke="black" stroke-width="0.156987"/>
<path d="M254.511 52.923V46.2797H261.154V52.923H254.511Z" fill="black" stroke="black" stroke-width="0.156987"/>
<path d="M247.71 52.923V46.2797H254.353V52.923H247.71Z" fill="black" stroke="black" stroke-width="0.156987"/>
<path d="M169.585 32.5226V25.8793H176.228V32.5226H169.585Z" fill="black" stroke="black" stroke-width="0.156987"/>
<path d="M169.585 39.3234V32.6801H176.228V39.3234H169.585Z" fill="black" stroke="black" stroke-width="0.156987"/>
<path d="M169.585 46.1222V39.4789H176.228V46.1222H169.585Z" fill="black" stroke="black" stroke-width="0.156987"/>
<path d="M176.357 25.7218V19.0785H183V25.7218H176.357Z" fill="black" stroke="black" stroke-width="0.156987"/>
<path d="M183.113 25.7218V19.0785H189.756V25.7218H183.113Z" fill="black" stroke="black" stroke-width="0.156987"/>
<path d="M189.883 25.7218V19.0785H196.526V25.7218H189.883Z" fill="black" stroke="black" stroke-width="0.156987"/>
<path d="M189.88 39.3234V32.6801H196.523V39.3234H189.88Z" fill="black" stroke="black" stroke-width="0.156987"/>
<path d="M183.113 39.3234V32.6801H189.756V39.3234H183.113Z" fill="black" stroke="black" stroke-width="0.156987"/>
<path d="M189.88 46.1222V39.4789H196.523V46.1222H189.88Z" fill="black" stroke="black" stroke-width="0.156987"/>
<path d="M183.12 52.923V46.2797H189.763V52.923H183.12Z" fill="black" stroke="black" stroke-width="0.156987"/>
<path d="M176.357 52.923V46.2797H183V52.923H176.357Z" fill="black" stroke="black" stroke-width="0.156987"/>
</g>
<defs>
<filter id="filter0_d_312_21808" x="71.9753" y="19" width="229" height="35.2578" filterUnits="userSpaceOnUse" color-interpolation-filters="sRGB">
<feFlood flood-opacity="0" result="BackgroundImageFix"/>
<feColorMatrix in="SourceAlpha" type="matrix" values="0 0 0 0 0 0 0 0 0 0 0 0 0 0 0 0 0 0 127 0" result="hardAlpha"/>
<feOffset dy="0.627947"/>
<feGaussianBlur stdDeviation="0.313973"/>
<feComposite in2="hardAlpha" operator="out"/>
<feColorMatrix type="matrix" values="0 0 0 0 0 0 0 0 0 0 0 0 0 0 0 0 0 0 0.25 0"/>
<feBlend mode="normal" in2="BackgroundImageFix" result="effect1_dropShadow_312_21808"/>
<feBlend mode="normal" in="SourceGraphic" in2="effect1_dropShadow_312_21808" result="shape"/>
</filter>
</defs>
</svg>
