
<svg width="452" height="72" viewBox="0 0 452 72" fill="none" xmlns="http://www.w3.org/2000/svg">
<path d="M42.9047 68.2941H40.0444V71.8885H42.9047V68.2941Z" fill="black"/>
<path d="M40.0443 68.2941H37.1841V71.8885H40.0443V68.2941Z" fill="black"/>
<path d="M37.184 68.2941H34.3237V71.8885H37.184V68.2941Z" fill="black"/>
<path d="M34.3236 68.2941H31.4634V71.8885H34.3236V68.2941Z" fill="black"/>
<path d="M31.4633 68.2941H28.603V71.8885H31.4633V68.2941Z" fill="black"/>
<path d="M28.6029 68.2941H25.7427V71.8885H28.6029V68.2941Z" fill="black"/>
<path d="M25.7431 68.2941H22.8828V71.8885H25.7431V68.2941Z" fill="black"/>
<path d="M22.8822 68.2941H20.022V71.8885H22.8822V68.2941Z" fill="black"/>
<path d="M20.0219 68.2941H17.1616V71.8885H20.0219V68.2941Z" fill="black"/>
<path d="M17.162 68.2941H14.3018V71.8885H17.162V68.2941Z" fill="black"/>
<path d="M14.3017 68.2941H11.4414V71.8885H14.3017V68.2941Z" fill="black"/>
<path d="M51.4857 64.6995H48.6255V68.2939H51.4857V64.6995Z" fill="black"/>
<path d="M48.6254 64.6995H45.7651V68.2939H48.6254V64.6995Z" fill="black"/>
<path d="M45.765 64.6995H42.9048V68.2939H45.765V64.6995Z" fill="black"/>
<path d="M42.9047 64.6995H40.0444V68.2939H42.9047V64.6995Z" fill="black"/>
<path d="M40.0443 64.6995H37.1841V68.2939H40.0443V64.6995Z" fill="black"/>
<path d="M37.184 64.6995H34.3237V68.2939H37.184V64.6995Z" fill="black"/>
<path d="M34.3236 64.6995H31.4634V68.2939H34.3236V64.6995Z" fill="black"/>
<path d="M31.4633 64.6995H28.603V68.2939H31.4633V64.6995Z" fill="black"/>
<path d="M28.6029 64.6995H25.7427V68.2939H28.6029V64.6995Z" fill="black"/>
<path d="M25.7431 64.6995H22.8828V68.2939H25.7431V64.6995Z" fill="black"/>
<path d="M22.8822 64.6995H20.022V68.2939H22.8822V64.6995Z" fill="black"/>
<path d="M20.0219 64.6995H17.1616V68.2939H20.0219V64.6995Z" fill="black"/>
<path d="M17.162 64.6995H14.3018V68.2939H17.162V64.6995Z" fill="black"/>
<path d="M14.3017 64.6995H11.4414V68.2939H14.3017V64.6995Z" fill="black"/>
<path d="M11.4413 64.6995H8.58105V68.2939H11.4413V64.6995Z" fill="black"/>
<path d="M8.58095 64.6995H5.7207V68.2939H8.58095V64.6995Z" fill="black"/>
<path d="M54.3456 61.105H51.4854V64.6994H54.3456V61.105Z" fill="black"/>
<path d="M51.4857 61.105H48.6255V64.6994H51.4857V61.105Z" fill="black"/>
<path d="M48.6254 61.105H45.7651V64.6994H48.6254V61.105Z" fill="black"/>
<path d="M45.765 61.105H42.9048V64.6994H45.765V61.105Z" fill="black"/>
<path d="M42.9047 61.105H40.0444V64.6994H42.9047V61.105Z" fill="black"/>
<path d="M40.0443 61.105H37.1841V64.6994H40.0443V61.105Z" fill="black"/>
<path d="M37.184 61.105H34.3237V64.6994H37.184V61.105Z" fill="black"/>
<path d="M34.3236 61.105H31.4634V64.6994H34.3236V61.105Z" fill="black"/>
<path d="M31.4633 61.105H28.603V64.6994H31.4633V61.105Z" fill="black"/>
<path d="M28.6029 61.105H25.7427V64.6994H28.6029V61.105Z" fill="black"/>
<path d="M25.7431 61.105H22.8828V64.6994H25.7431V61.105Z" fill="black"/>
<path d="M22.8822 61.105H20.022V64.6994H22.8822V61.105Z" fill="black"/>
<path d="M20.0219 61.105H17.1616V64.6994H20.0219V61.105Z" fill="black"/>
<path d="M17.162 61.105H14.3018V64.6994H17.162V61.105Z" fill="black"/>
<path d="M14.3017 61.105H11.4414V64.6994H14.3017V61.105Z" fill="black"/>
<path d="M11.4413 61.105H8.58105V64.6994H11.4413V61.105Z" fill="black"/>
<path d="M8.58095 61.105H5.7207V64.6994H8.58095V61.105Z" fill="black"/>
<path d="M5.7206 61.105H2.86035V64.6994H5.7206V61.105Z" fill="black"/>
<path d="M57.2064 57.5105H54.3462V61.105H57.2064V57.5105Z" fill="black"/>
<path d="M54.3456 57.5105H51.4854V61.105H54.3456V57.5105Z" fill="black"/>
<path d="M51.4857 57.5105H48.6255V61.105H51.4857V57.5105Z" fill="black"/>
<path d="M48.6254 57.5105H45.7651V61.105H48.6254V57.5105Z" fill="black"/>
<path d="M45.765 57.5105H42.9048V61.105H45.765V57.5105Z" fill="black"/>
<path d="M42.9047 57.5105H40.0444V61.105H42.9047V57.5105Z" fill="black"/>
<path d="M40.0443 57.5105H37.1841V61.105H40.0443V57.5105Z" fill="black"/>
<path d="M37.184 57.5105H34.3237V61.105H37.184V57.5105Z" fill="black"/>
<path d="M34.3236 57.5105H31.4634V61.105H34.3236V57.5105Z" fill="black"/>
<path d="M31.4633 57.5105H28.603V61.105H31.4633V57.5105Z" fill="black"/>
<path d="M28.6029 57.5105H25.7427V61.105H28.6029V57.5105Z" fill="black"/>
<path d="M25.7431 57.5105H22.8828V61.105H25.7431V57.5105Z" fill="black"/>
<path d="M22.8822 57.5105H20.022V61.105H22.8822V57.5105Z" fill="black"/>
<path d="M20.0219 57.5105H17.1616V61.105H20.0219V57.5105Z" fill="black"/>
<path d="M17.162 57.5105H14.3018V61.105H17.162V57.5105Z" fill="black"/>
<path d="M14.3017 57.5105H11.4414V61.105H14.3017V57.5105Z" fill="black"/>
<path d="M11.4413 57.5105H8.58105V61.105H11.4413V57.5105Z" fill="black"/>
<path d="M8.58095 57.5105H5.7207V61.105H8.58095V57.5105Z" fill="black"/>
<path d="M5.7206 57.5105H2.86035V61.105H5.7206V57.5105Z" fill="black"/>
<path d="M2.86025 57.5105H0V61.105H2.86025V57.5105Z" fill="black"/>
<path d="M28.6029 53.9165H25.7427V57.511H28.6029V53.9165Z" fill="black"/>
<path d="M54.3456 50.322H51.4854V53.9165H54.3456V50.322Z" fill="black"/>
<path d="M51.4857 50.322H48.6255V53.9165H51.4857V50.322Z" fill="black"/>
<path d="M48.6254 50.322H45.7651V53.9165H48.6254V50.322Z" fill="black"/>
<path d="M45.765 50.322H42.9048V53.9165H45.765V50.322Z" fill="black"/>
<path d="M42.9047 50.322H40.0444V53.9165H42.9047V50.322Z" fill="black"/>
<path d="M40.0443 50.322H37.1841V53.9165H40.0443V50.322Z" fill="black"/>
<path d="M37.184 50.322H34.3237V53.9165H37.184V50.322Z" fill="black"/>
<path d="M34.3236 50.322H31.4634V53.9165H34.3236V50.322Z" fill="black"/>
<path d="M31.4633 50.322H28.603V53.9165H31.4633V50.322Z" fill="black"/>
<path d="M28.6029 50.322H25.7427V53.9165H28.6029V50.322Z" fill="black"/>
<path d="M25.7431 50.322H22.8828V53.9165H25.7431V50.322Z" fill="black"/>
<path d="M22.8822 50.322H20.022V53.9165H22.8822V50.322Z" fill="black"/>
<path d="M20.0219 50.322H17.1616V53.9165H20.0219V50.322Z" fill="black"/>
<path d="M17.162 50.322H14.3018V53.9165H17.162V50.322Z" fill="black"/>
<path d="M14.3017 50.322H11.4414V53.9165H14.3017V50.322Z" fill="black"/>
<path d="M11.4413 50.322H8.58105V53.9165H11.4413V50.322Z" fill="black"/>
<path d="M8.58095 50.322H5.7207V53.9165H8.58095V50.322Z" fill="black"/>
<path d="M5.7206 50.322H2.86035V53.9165H5.7206V50.322Z" fill="black"/>
<path d="M51.4857 46.7275H48.6255V50.322H51.4857V46.7275Z" fill="black"/>
<path d="M48.6254 46.7275H45.7651V50.322H48.6254V46.7275Z" fill="black"/>
<path d="M45.765 46.7275H42.9048V50.322H45.765V46.7275Z" fill="black"/>
<path d="M42.9047 46.7275H40.0444V50.322H42.9047V46.7275Z" fill="black"/>
<path d="M40.0443 46.7275H37.1841V50.322H40.0443V46.7275Z" fill="black"/>
<path d="M37.184 46.7275H34.3237V50.322H37.184V46.7275Z" fill="black"/>
<path d="M34.3236 46.7275H31.4634V50.322H34.3236V46.7275Z" fill="black"/>
<path d="M31.4633 46.7275H28.603V50.322H31.4633V46.7275Z" fill="black"/>
<path d="M28.6029 46.7275H25.7427V50.322H28.6029V46.7275Z" fill="black"/>
<path d="M22.8822 46.7275H20.022V50.322H22.8822V46.7275Z" fill="black"/>
<path d="M20.0219 46.7275H17.1616V50.322H20.0219V46.7275Z" fill="black"/>
<path d="M17.162 46.7275H14.3018V50.322H17.162V46.7275Z" fill="black"/>
<path d="M14.3017 46.7275H11.4414V50.322H14.3017V46.7275Z" fill="black"/>
<path d="M11.4413 46.7275H8.58105V50.322H11.4413V46.7275Z" fill="black"/>
<path d="M8.58095 46.7275H5.7207V50.322H8.58095V46.7275Z" fill="black"/>
<path d="M5.7206 46.7275H2.86035V50.322H5.7206V46.7275Z" fill="black"/>
<path d="M2.86025 46.7275H0V50.322H2.86025V46.7275Z" fill="black"/>
<path d="M45.765 43.1331H42.9048V46.7275H45.765V43.1331Z" fill="black"/>
<path d="M42.9047 43.1331H40.0444V46.7275H42.9047V43.1331Z" fill="black"/>
<path d="M40.0443 43.1331H37.1841V46.7275H40.0443V43.1331Z" fill="black"/>
<path d="M37.184 43.1331H34.3237V46.7275H37.184V43.1331Z" fill="black"/>
<path d="M34.3236 43.1331H31.4634V46.7275H34.3236V43.1331Z" fill="black"/>
<path d="M31.4633 43.1331H28.603V46.7275H31.4633V43.1331Z" fill="black"/>
<path d="M28.6029 43.1331H25.7427V46.7275H28.6029V43.1331Z" fill="black"/>
<path d="M20.0219 43.1331H17.1616V46.7275H20.0219V43.1331Z" fill="black"/>
<path d="M17.162 43.1331H14.3018V46.7275H17.162V43.1331Z" fill="black"/>
<path d="M14.3017 43.1331H11.4414V46.7275H14.3017V43.1331Z" fill="black"/>
<path d="M11.4413 43.1331H8.58105V46.7275H11.4413V43.1331Z" fill="black"/>
<path d="M8.58095 43.1331H5.7207V46.7275H8.58095V43.1331Z" fill="black"/>
<path d="M5.7206 43.1331H2.86035V46.7275H5.7206V43.1331Z" fill="black"/>
<path d="M2.86025 43.1331H0V46.7275H2.86025V43.1331Z" fill="black"/>
<path d="M42.9047 39.5386H40.0444V43.133H42.9047V39.5386Z" fill="black"/>
<path d="M40.0443 39.5386H37.1841V43.133H40.0443V39.5386Z" fill="black"/>
<path d="M37.184 39.5386H34.3237V43.133H37.184V39.5386Z" fill="black"/>
<path d="M34.3236 39.5386H31.4634V43.133H34.3236V39.5386Z" fill="black"/>
<path d="M31.4633 39.5386H28.603V43.133H31.4633V39.5386Z" fill="black"/>
<path d="M28.6029 39.5386H25.7427V43.133H28.6029V39.5386Z" fill="black"/>
<path d="M25.7431 39.5386H22.8828V43.133H25.7431V39.5386Z" fill="black"/>
<path d="M20.0219 39.5386H17.1616V43.133H20.0219V39.5386Z" fill="black"/>
<path d="M17.162 39.5386H14.3018V43.133H17.162V39.5386Z" fill="black"/>
<path d="M14.3017 39.5386H11.4414V43.133H14.3017V39.5386Z" fill="black"/>
<path d="M11.4413 39.5386H8.58105V43.133H11.4413V39.5386Z" fill="black"/>
<path d="M8.58095 39.5386H5.7207V43.133H8.58095V39.5386Z" fill="black"/>
<path d="M5.7206 39.5386H2.86035V43.133H5.7206V39.5386Z" fill="black"/>
<path d="M2.86025 39.5386H0V43.133H2.86025V39.5386Z" fill="black"/>
<path d="M40.0443 35.9442H37.1841V39.5387H40.0443V35.9442Z" fill="black"/>
<path d="M37.184 35.9442H34.3237V39.5387H37.184V35.9442Z" fill="black"/>
<path d="M34.3236 35.9442H31.4634V39.5387H34.3236V35.9442Z" fill="black"/>
<path d="M31.4633 35.9442H28.603V39.5387H31.4633V35.9442Z" fill="black"/>
<path d="M28.6029 35.9442H25.7427V39.5387H28.6029V35.9442Z" fill="black"/>
<path d="M25.7431 35.9442H22.8828V39.5387H25.7431V35.9442Z" fill="black"/>
<path d="M17.162 35.9442H14.3018V39.5387H17.162V35.9442Z" fill="black"/>
<path d="M14.3017 35.9442H11.4414V39.5387H14.3017V35.9442Z" fill="black"/>
<path d="M11.4413 35.9442H8.58105V39.5387H11.4413V35.9442Z" fill="black"/>
<path d="M8.58095 35.9442H5.7207V39.5387H8.58095V35.9442Z" fill="black"/>
<path d="M5.7206 35.9442H2.86035V39.5387H5.7206V35.9442Z" fill="black"/>
<path d="M2.86025 35.9442H0V39.5387H2.86025V35.9442Z" fill="black"/>
<path d="M37.184 32.3497H34.3237V35.9442H37.184V32.3497Z" fill="black"/>
<path d="M34.3236 32.3497H31.4634V35.9442H34.3236V32.3497Z" fill="black"/>
<path d="M31.4633 32.3497H28.603V35.9442H31.4633V32.3497Z" fill="black"/>
<path d="M28.6029 32.3497H25.7427V35.9442H28.6029V32.3497Z" fill="black"/>
<path d="M25.7431 32.3497H22.8828V35.9442H25.7431V32.3497Z" fill="black"/>
<path d="M17.162 32.3497H14.3018V35.9442H17.162V32.3497Z" fill="black"/>
<path d="M14.3017 32.3497H11.4414V35.9442H14.3017V32.3497Z" fill="black"/>
<path d="M11.4413 32.3497H8.58105V35.9442H11.4413V32.3497Z" fill="black"/>
<path d="M8.58095 32.3497H5.7207V35.9442H8.58095V32.3497Z" fill="black"/>
<path d="M5.7206 32.3497H2.86035V35.9442H5.7206V32.3497Z" fill="black"/>
<path d="M34.3236 28.7552H31.4634V32.3497H34.3236V28.7552Z" fill="black"/>
<path d="M31.4633 28.7552H28.603V32.3497H31.4633V28.7552Z" fill="black"/>
<path d="M28.6029 28.7552H25.7427V32.3497H28.6029V28.7552Z" fill="black"/>
<path d="M25.7431 28.7552H22.8828V32.3497H25.7431V28.7552Z" fill="black"/>
<path d="M14.3017 28.7552H11.4414V32.3497H14.3017V28.7552Z" fill="black"/>
<path d="M11.4413 28.7552H8.58105V32.3497H11.4413V28.7552Z" fill="black"/>
<path d="M8.58095 28.7552H5.7207V32.3497H8.58095V28.7552Z" fill="black"/>
<path d="M5.7206 28.7552H2.86035V32.3497H5.7206V28.7552Z" fill="black"/>
<path d="M31.4633 25.1608H28.603V28.7552H31.4633V25.1608Z" fill="black"/>
<path d="M28.6029 25.1608H25.7427V28.7552H28.6029V25.1608Z" fill="black"/>
<path d="M25.7431 25.1608H22.8828V28.7552H25.7431V25.1608Z" fill="black"/>
<path d="M14.3017 25.1608H11.4414V28.7552H14.3017V25.1608Z" fill="black"/>
<path d="M11.4413 25.1608H8.58105V28.7552H11.4413V25.1608Z" fill="black"/>
<path d="M8.58095 25.1608H5.7207V28.7552H8.58095V25.1608Z" fill="black"/>
<path d="M31.4633 21.5664H28.603V25.1609H31.4633V21.5664Z" fill="black"/>
<path d="M28.6029 21.5664H25.7427V25.1609H28.6029V21.5664Z" fill="black"/>
<path d="M25.7431 21.5664H22.8828V25.1609H25.7431V21.5664Z" fill="black"/>
<path d="M17.162 21.5664H14.3018V25.1609H17.162V21.5664Z" fill="black"/>
<path d="M14.3017 21.5664H11.4414V25.1609H14.3017V21.5664Z" fill="black"/>
<path d="M11.4413 21.5664H8.58105V25.1609H11.4413V21.5664Z" fill="black"/>
<path d="M28.6029 17.9723H25.7427V21.5668H28.6029V17.9723Z" fill="black"/>
<path d="M25.7431 17.9723H22.8828V21.5668H25.7431V17.9723Z" fill="black"/>
<path d="M17.162 17.9723H14.3018V21.5668H17.162V17.9723Z" fill="black"/>
<path d="M14.3017 17.9723H11.4414V21.5668H14.3017V17.9723Z" fill="black"/>
<path d="M28.6029 14.3778H25.7427V17.9723H28.6029V14.3778Z" fill="black"/>
<path d="M25.7431 14.3778H22.8828V17.9723H25.7431V14.3778Z" fill="black"/>
<path d="M20.0219 14.3778H17.1616V17.9723H20.0219V14.3778Z" fill="black"/>
<path d="M17.162 14.3778H14.3018V17.9723H17.162V14.3778Z" fill="black"/>
<path d="M25.7431 10.7833H22.8828V14.3778H25.7431V10.7833Z" fill="black"/>
<path d="M20.0219 10.7833H17.1616V14.3778H20.0219V10.7833Z" fill="black"/>
<path d="M25.7431 7.18896H22.8828V10.7834H25.7431V7.18896Z" fill="black"/>
<path d="M22.8822 7.18896H20.022V10.7834H22.8822V7.18896Z" fill="black"/>
<path d="M22.8822 3.59448H20.022V7.18894H22.8822V3.59448Z" fill="black"/>
<path d="M22.8822 0H20.022V3.59446H22.8822V0Z" fill="black"/>
<path d="M327.231 25.6651V19.0217H333.875V25.6651H327.231Z" fill="black" stroke="black" stroke-width="0.156987"/>
<path d="M334.032 25.6651V19.0217H340.675V25.6651H334.032Z" fill="black" stroke="black" stroke-width="0.156987"/>
<path d="M340.832 25.6651V19.0217H347.476V25.6651H340.832Z" fill="black" stroke="black" stroke-width="0.156987"/>
<path d="M347.633 32.4654V25.822H354.276V32.4654H347.633Z" fill="black" stroke="black" stroke-width="0.156987"/>
<path d="M347.633 39.2658V32.6224H354.276V39.2658H347.633Z" fill="black" stroke="black" stroke-width="0.156987"/>
<path d="M327.231 32.4654V25.822H333.875V32.4654H327.231Z" fill="black" stroke="black" stroke-width="0.156987"/>
<path d="M327.231 39.2658V32.6224H333.875V39.2658H327.231Z" fill="black" stroke="black" stroke-width="0.156987"/>
<path d="M327.231 46.0667V39.4233H333.875V46.0667H327.231Z" fill="black" stroke="black" stroke-width="0.156987"/>
<path d="M327.231 52.8667V46.2234H333.875V52.8667H327.231Z" fill="black" stroke="black" stroke-width="0.156987"/>
<path d="M340.832 39.2658V32.6224H347.476V39.2658H340.832Z" fill="black" stroke="black" stroke-width="0.156987"/>
<path d="M334.032 39.2658V32.6224H340.675V39.2658H334.032Z" fill="black" stroke="black" stroke-width="0.156987"/>
<path d="M347.633 46.0667V39.4233H354.276V46.0667H347.633Z" fill="black" stroke="black" stroke-width="0.156987"/>
<path d="M334.032 52.8667V46.2234H340.675V52.8667H334.032Z" fill="black" stroke="black" stroke-width="0.156987"/>
<path d="M340.832 52.8667V46.2234H347.476V52.8667H340.832Z" fill="black" stroke="black" stroke-width="0.156987"/>
<path d="M359.526 25.6651V19.0217H366.169V25.6651H359.526Z" fill="black" stroke="black" stroke-width="0.156987"/>
<path d="M359.526 32.4655V25.8221H366.169V32.4655H359.526Z" fill="black" stroke="black" stroke-width="0.156987"/>
<path d="M359.526 39.2659V32.6226H366.169V39.2659H359.526Z" fill="black" stroke="black" stroke-width="0.156987"/>
<path d="M359.526 46.0668V39.4235H366.169V46.0668H359.526Z" fill="black" stroke="black" stroke-width="0.156987"/>
<path d="M366.327 52.8669V46.2235H372.97V52.8669H366.327Z" fill="black" stroke="black" stroke-width="0.156987"/>
<path d="M373.127 52.8669V46.2235H379.77V52.8669H373.127Z" fill="black" stroke="black" stroke-width="0.156987"/>
<path d="M366.327 25.6652V19.0219H372.97V25.6652H366.327Z" fill="black" stroke="black" stroke-width="0.156987"/>
<path d="M373.127 25.6652V19.0219H379.77V25.6652H373.127Z" fill="black" stroke="black" stroke-width="0.156987"/>
<path d="M379.927 32.4655V25.8221H386.57V32.4655H379.927Z" fill="black" stroke="black" stroke-width="0.156987"/>
<path d="M379.927 39.2659V32.6226H386.57V39.2659H379.927Z" fill="black" stroke="black" stroke-width="0.156987"/>
<path d="M379.927 46.0668V39.4235H386.57V46.0668H379.927Z" fill="black" stroke="black" stroke-width="0.156987"/>
<path d="M379.927 52.8669V46.2235H386.57V52.8669H379.927Z" fill="black" stroke="black" stroke-width="0.156987"/>
<path d="M424.115 25.6652V19.0219H430.758V25.6652H424.115Z" fill="black" stroke="black" stroke-width="0.156987"/>
<path d="M434.284 32.4655V25.8221H440.927V32.4655H434.284Z" fill="black" stroke="black" stroke-width="0.156987"/>
<path d="M434.284 39.2659V32.6226H440.927V39.2659H434.284Z" fill="black" stroke="black" stroke-width="0.156987"/>
<path d="M434.284 46.0668V39.4235H440.927V46.0668H434.284Z" fill="black" stroke="black" stroke-width="0.156987"/>
<path d="M434.284 52.8669V46.2235H440.927V52.8669H434.284Z" fill="black" stroke="black" stroke-width="0.156987"/>
<path d="M430.915 25.6652V19.0219H437.559V25.6652H430.915Z" fill="black" stroke="black" stroke-width="0.156987"/>
<path d="M437.716 25.6652V19.0219H444.359V25.6652H437.716Z" fill="black" stroke="black" stroke-width="0.156987"/>
<path d="M444.485 25.6652V19.0219H451.128V25.6652H444.485Z" fill="black" stroke="black" stroke-width="0.156987"/>
<path d="M391.82 25.6652V19.0219H398.464V25.6652H391.82Z" fill="black" stroke="black" stroke-width="0.156987"/>
<path d="M391.82 39.2659V32.6226H398.464V39.2659H391.82Z" fill="black" stroke="black" stroke-width="0.156987"/>
<path d="M398.621 39.2659V32.6226H405.264V39.2659H398.621Z" fill="black" stroke="black" stroke-width="0.156987"/>
<path d="M405.421 39.2659V32.6226H412.065V39.2659H405.421Z" fill="black" stroke="black" stroke-width="0.156987"/>
<path d="M391.82 46.0668V39.4235H398.464V46.0668H391.82Z" fill="black" stroke="black" stroke-width="0.156987"/>
<path d="M398.621 25.6652V19.0219H405.264V25.6652H398.621Z" fill="black" stroke="black" stroke-width="0.156987"/>
<path d="M405.421 25.6652V19.0219H412.065V25.6652H405.421Z" fill="black" stroke="black" stroke-width="0.156987"/>
<path d="M412.222 32.4655V25.8221H418.865V32.4655H412.222Z" fill="black" stroke="black" stroke-width="0.156987"/>
<path d="M412.222 39.2659V32.6226H418.865V39.2659H412.222Z" fill="black" stroke="black" stroke-width="0.156987"/>
<path d="M412.222 46.0668V39.4235H418.865V46.0668H412.222Z" fill="black" stroke="black" stroke-width="0.156987"/>
<path d="M405.421 52.8669V46.2235H412.065V52.8669H405.421Z" fill="black" stroke="black" stroke-width="0.156987"/>
<path d="M398.621 52.8669V46.2235H405.264V52.8669H398.621Z" fill="black" stroke="black" stroke-width="0.156987"/>
<g filter="url(#filter0_d_367_37367)">
<path d="M72.285 25.6651V19.0217H78.9284V25.6651H72.285Z" fill="black" stroke="black" stroke-width="0.156987"/>
<path d="M72.285 32.4654V25.822H78.9284V32.4654H72.285Z" fill="black" stroke="black" stroke-width="0.156987"/>
<path d="M72.285 39.2658V32.6224H78.9284V39.2658H72.285Z" fill="black" stroke="black" stroke-width="0.156987"/>
<path d="M72.285 46.066V39.4226H78.9284V46.066H72.285Z" fill="black" stroke="black" stroke-width="0.156987"/>
<path d="M72.285 52.8667V46.2234H78.9284V52.8667H72.285Z" fill="black" stroke="black" stroke-width="0.156987"/>
<path d="M79.0858 25.6651V19.0217H85.7292V25.6651H79.0858Z" fill="black" stroke="black" stroke-width="0.156987"/>
<path d="M85.8861 25.6651V19.0217H92.5295V25.6651H85.8861Z" fill="black" stroke="black" stroke-width="0.156987"/>
<path d="M92.6864 32.4654V25.822H99.3297V32.4654H92.6864Z" fill="black" stroke="black" stroke-width="0.156987"/>
<path d="M92.6864 39.2658V32.6224H99.3297V39.2658H92.6864Z" fill="black" stroke="black" stroke-width="0.156987"/>
<path d="M92.6864 46.066V39.4226H99.3297V46.066H92.6864Z" fill="black" stroke="black" stroke-width="0.156987"/>
<path d="M92.6864 52.8667V46.2234H99.3297V52.8667H92.6864Z" fill="black" stroke="black" stroke-width="0.156987"/>
<path d="M136.874 25.6651V19.0217H143.517V25.6651H136.874Z" fill="black" stroke="black" stroke-width="0.156987"/>
<path d="M136.874 32.4654V25.822H143.517V32.4654H136.874Z" fill="black" stroke="black" stroke-width="0.156987"/>
<path d="M136.874 39.2658V32.6224H143.517V39.2658H136.874Z" fill="black" stroke="black" stroke-width="0.156987"/>
<path d="M136.874 46.066V39.4226H143.517V46.066H136.874Z" fill="black" stroke="black" stroke-width="0.156987"/>
<path d="M136.874 52.8667V46.2234H143.517V52.8667H136.874Z" fill="black" stroke="black" stroke-width="0.156987"/>
<path d="M143.675 25.6651V19.0217H150.318V25.6651H143.675Z" fill="black" stroke="black" stroke-width="0.156987"/>
<path d="M150.475 25.6651V19.0217H157.118V25.6651H150.475Z" fill="black" stroke="black" stroke-width="0.156987"/>
<path d="M157.275 32.4654V25.822H163.919V32.4654H157.275Z" fill="black" stroke="black" stroke-width="0.156987"/>
<path d="M157.275 39.2658V32.6224H163.919V39.2658H157.275Z" fill="black" stroke="black" stroke-width="0.156987"/>
<path d="M157.275 46.066V39.4226H163.919V46.066H157.275Z" fill="black" stroke="black" stroke-width="0.156987"/>
<path d="M157.275 52.8667V46.2234H163.919V52.8667H157.275Z" fill="black" stroke="black" stroke-width="0.156987"/>
<path d="M272.827 25.6651V19.0217H279.47V25.6651H272.827Z" fill="black" stroke="black" stroke-width="0.156987"/>
<path d="M272.827 32.4654V25.822H279.47V32.4654H272.827Z" fill="black" stroke="black" stroke-width="0.156987"/>
<path d="M272.827 39.2658V32.6224H279.47V39.2658H272.827Z" fill="black" stroke="black" stroke-width="0.156987"/>
<path d="M272.827 46.066V39.4226H279.47V46.066H272.827Z" fill="black" stroke="black" stroke-width="0.156987"/>
<path d="M272.827 52.8667V46.2234H279.47V52.8667H272.827Z" fill="black" stroke="black" stroke-width="0.156987"/>
<path d="M279.627 25.6651V19.0217H286.271V25.6651H279.627Z" fill="black" stroke="black" stroke-width="0.156987"/>
<path d="M286.428 25.6651V19.0217H293.071V25.6651H286.428Z" fill="black" stroke="black" stroke-width="0.156987"/>
<path d="M293.229 32.4654V25.822H299.872V32.4654H293.229Z" fill="black" stroke="black" stroke-width="0.156987"/>
<path d="M293.229 39.2658V32.6224H299.872V39.2658H293.229Z" fill="black" stroke="black" stroke-width="0.156987"/>
<path d="M293.229 46.066V39.4226H299.872V46.066H293.229Z" fill="black" stroke="black" stroke-width="0.156987"/>
<path d="M293.229 52.8667V46.2234H299.872V52.8667H293.229Z" fill="black" stroke="black" stroke-width="0.156987"/>
<path d="M201.399 25.6651V19.0217H208.042V25.6651H201.399Z" fill="black" stroke="black" stroke-width="0.156987"/>
<path d="M201.399 32.4654V25.822H208.042V32.4654H201.399Z" fill="black" stroke="black" stroke-width="0.156987"/>
<path d="M201.399 39.2658V32.6224H208.042V39.2658H201.399Z" fill="black" stroke="black" stroke-width="0.156987"/>
<path d="M201.399 46.066V39.4226H208.042V46.066H201.399Z" fill="black" stroke="black" stroke-width="0.156987"/>
<path d="M201.399 52.8667V46.2234H208.042V52.8667H201.399Z" fill="black" stroke="black" stroke-width="0.156987"/>
<path d="M208.199 25.6651V19.0217H214.842V25.6651H208.199Z" fill="black" stroke="black" stroke-width="0.156987"/>
<path d="M214.999 25.6651V19.0217H221.643V25.6651H214.999Z" fill="black" stroke="black" stroke-width="0.156987"/>
<path d="M221.8 25.6651V19.0217H228.443V25.6651H221.8Z" fill="black" stroke="black" stroke-width="0.156987"/>
<path d="M228.6 32.4654V25.822H235.244V32.4654H228.6Z" fill="black" stroke="black" stroke-width="0.156987"/>
<path d="M228.6 39.2658V32.6224H235.244V39.2658H228.6Z" fill="black" stroke="black" stroke-width="0.156987"/>
<path d="M228.6 46.066V39.4226H235.244V46.066H228.6Z" fill="black" stroke="black" stroke-width="0.156987"/>
<path d="M228.6 52.8667V46.2234H235.244V52.8667H228.6Z" fill="black" stroke="black" stroke-width="0.156987"/>
<path d="M214.999 32.4654V25.822H221.643V32.4654H214.999Z" fill="black" stroke="black" stroke-width="0.156987"/>
<path d="M214.999 39.2658V32.6224H221.643V39.2658H214.999Z" fill="black" stroke="black" stroke-width="0.156987"/>
<path d="M214.999 46.066V39.4226H221.643V46.066H214.999Z" fill="black" stroke="black" stroke-width="0.156987"/>
<path d="M214.999 52.8667V46.2234H221.643V52.8667H214.999Z" fill="black" stroke="black" stroke-width="0.156987"/>
<path d="M104.579 25.6651V19.0217H111.223V25.6651H104.579Z" fill="black" stroke="black" stroke-width="0.156987"/>
<path d="M104.579 39.2658V32.6224H111.223V39.2658H104.579Z" fill="black" stroke="black" stroke-width="0.156987"/>
<path d="M111.38 39.2658V32.6224H118.024V39.2658H111.38Z" fill="black" stroke="black" stroke-width="0.156987"/>
<path d="M118.181 39.2658V32.6224H124.824V39.2658H118.181Z" fill="black" stroke="black" stroke-width="0.156987"/>
<path d="M104.579 46.066V39.4226H111.223V46.066H104.579Z" fill="black" stroke="black" stroke-width="0.156987"/>
<path d="M111.38 25.6651V19.0217H118.024V25.6651H111.38Z" fill="black" stroke="black" stroke-width="0.156987"/>
<path d="M118.181 25.6651V19.0217H124.824V25.6651H118.181Z" fill="black" stroke="black" stroke-width="0.156987"/>
<path d="M124.981 32.4654V25.822H131.624V32.4654H124.981Z" fill="black" stroke="black" stroke-width="0.156987"/>
<path d="M124.981 39.2658V32.6224H131.624V39.2658H124.981Z" fill="black" stroke="black" stroke-width="0.156987"/>
<path d="M124.981 46.066V39.4226H131.624V46.066H124.981Z" fill="black" stroke="black" stroke-width="0.156987"/>
<path d="M118.181 52.8667V46.2234H124.824V52.8667H118.181Z" fill="black" stroke="black" stroke-width="0.156987"/>
<path d="M111.38 52.8667V46.2234H118.024V52.8667H111.38Z" fill="black" stroke="black" stroke-width="0.156987"/>
<path d="M240.513 25.6651V19.0217H247.156V25.6651H240.513Z" fill="black" stroke="black" stroke-width="0.156987"/>
<path d="M240.513 39.2658V32.6224H247.156V39.2658H240.513Z" fill="black" stroke="black" stroke-width="0.156987"/>
<path d="M247.313 39.2658V32.6224H253.957V39.2658H247.313Z" fill="black" stroke="black" stroke-width="0.156987"/>
<path d="M254.114 39.2658V32.6224H260.757V39.2658H254.114Z" fill="black" stroke="black" stroke-width="0.156987"/>
<path d="M240.513 46.066V39.4226H247.156V46.066H240.513Z" fill="black" stroke="black" stroke-width="0.156987"/>
<path d="M247.313 25.6651V19.0217H253.957V25.6651H247.313Z" fill="black" stroke="black" stroke-width="0.156987"/>
<path d="M254.114 25.6651V19.0217H260.757V25.6651H254.114Z" fill="black" stroke="black" stroke-width="0.156987"/>
<path d="M260.914 32.4654V25.822H267.558V32.4654H260.914Z" fill="black" stroke="black" stroke-width="0.156987"/>
<path d="M260.914 39.2658V32.6224H267.558V39.2658H260.914Z" fill="black" stroke="black" stroke-width="0.156987"/>
<path d="M260.914 46.066V39.4226H267.558V46.066H260.914Z" fill="black" stroke="black" stroke-width="0.156987"/>
<path d="M254.114 52.8667V46.2234H260.757V52.8667H254.114Z" fill="black" stroke="black" stroke-width="0.156987"/>
<path d="M247.313 52.8667V46.2234H253.957V52.8667H247.313Z" fill="black" stroke="black" stroke-width="0.156987"/>
<path d="M169.188 32.4654V25.822H175.831V32.4654H169.188Z" fill="black" stroke="black" stroke-width="0.156987"/>
<path d="M169.188 39.2658V32.6224H175.831V39.2658H169.188Z" fill="black" stroke="black" stroke-width="0.156987"/>
<path d="M169.188 46.066V39.4226H175.831V46.066H169.188Z" fill="black" stroke="black" stroke-width="0.156987"/>
<path d="M175.96 25.6651V19.0217H182.603V25.6651H175.96Z" fill="black" stroke="black" stroke-width="0.156987"/>
<path d="M182.716 25.6651V19.0217H189.359V25.6651H182.716Z" fill="black" stroke="black" stroke-width="0.156987"/>
<path d="M189.486 25.6651V19.0217H196.13V25.6651H189.486Z" fill="black" stroke="black" stroke-width="0.156987"/>
<path d="M189.483 39.2658V32.6224H196.126V39.2658H189.483Z" fill="black" stroke="black" stroke-width="0.156987"/>
<path d="M182.716 39.2658V32.6224H189.359V39.2658H182.716Z" fill="black" stroke="black" stroke-width="0.156987"/>
<path d="M189.483 46.066V39.4226H196.126V46.066H189.483Z" fill="black" stroke="black" stroke-width="0.156987"/>
<path d="M182.723 52.8667V46.2234H189.366V52.8667H182.723Z" fill="black" stroke="black" stroke-width="0.156987"/>
<path d="M175.96 52.8667V46.2234H182.603V52.8667H175.96Z" fill="black" stroke="black" stroke-width="0.156987"/>
</g>
<defs>
<filter id="filter0_d_367_37367" x="71.5786" y="18.9432" width="229" height="35.2578" filterUnits="userSpaceOnUse" color-interpolation-filters="sRGB">
<feFlood flood-opacity="0" result="BackgroundImageFix"/>
<feColorMatrix in="SourceAlpha" type="matrix" values="0 0 0 0 0 0 0 0 0 0 0 0 0 0 0 0 0 0 127 0" result="hardAlpha"/>
<feOffset dy="0.627947"/>
<feGaussianBlur stdDeviation="0.313973"/>
<feComposite in2="hardAlpha" operator="out"/>
<feColorMatrix type="matrix" values="0 0 0 0 0 0 0 0 0 0 0 0 0 0 0 0 0 0 0.25 0"/>
<feBlend mode="normal" in2="BackgroundImageFix" result="effect1_dropShadow_367_37367"/>
<feBlend mode="normal" in="SourceGraphic" in2="effect1_dropShadow_367_37367" result="shape"/>
</filter>
</defs>
</svg>