<svg width="755" height="71" viewBox="0 0 755 71" fill="none" xmlns="http://www.w3.org/2000/svg">
<path d="M508.717 13.5813V0.383958H521.915V13.5813H508.717Z" fill="black" stroke="black" stroke-width="0.311862"/>
<path d="M522.228 13.5812V0.383897H535.425V13.5812H522.228Z" fill="black" stroke="black" stroke-width="0.311862"/>
<path d="M535.737 13.5812V0.383897H548.934V13.5812H535.737Z" fill="black" stroke="black" stroke-width="0.311862"/>
<path d="M549.246 27.0904V13.8931H562.444V27.0904H549.246Z" fill="black" stroke="black" stroke-width="0.311862"/>
<path d="M549.246 40.5997V27.4023H562.444V40.5997H549.246Z" fill="black" stroke="black" stroke-width="0.311862"/>
<path d="M508.718 27.0904V13.8931H521.915V27.0904H508.718Z" fill="black" stroke="black" stroke-width="0.311862"/>
<path d="M508.718 40.5997V27.4023H521.915V40.5997H508.718Z" fill="black" stroke="black" stroke-width="0.311862"/>
<path d="M508.718 54.1099V40.9125H521.915V54.1099H508.718Z" fill="black" stroke="black" stroke-width="0.311862"/>
<path d="M508.718 67.6191V54.4218H521.915V67.6191H508.718Z" fill="black" stroke="black" stroke-width="0.311862"/>
<path d="M535.737 40.5997V27.4023H548.934V40.5997H535.737Z" fill="black" stroke="black" stroke-width="0.311862"/>
<path d="M522.228 40.5997V27.4023H535.425V40.5997H522.228Z" fill="black" stroke="black" stroke-width="0.311862"/>
<path d="M549.246 54.1099V40.9125H562.444V54.1099H549.246Z" fill="black" stroke="black" stroke-width="0.311862"/>
<path d="M522.228 67.6191V54.4218H535.425V67.6191H522.228Z" fill="black" stroke="black" stroke-width="0.311862"/>
<path d="M535.737 67.6191V54.4218H548.934V67.6191H535.737Z" fill="black" stroke="black" stroke-width="0.311862"/>
<path d="M572.872 13.5812V0.383897H586.069V13.5812H572.872Z" fill="black" stroke="black" stroke-width="0.311862"/>
<path d="M572.872 27.0904V13.8931H586.069V27.0904H572.872Z" fill="black" stroke="black" stroke-width="0.311862"/>
<path d="M572.872 40.5996V27.4023H586.069V40.5996H572.872Z" fill="black" stroke="black" stroke-width="0.311862"/>
<path d="M572.872 54.1099V40.9125H586.069V54.1099H572.872Z" fill="black" stroke="black" stroke-width="0.311862"/>
<path d="M586.382 67.6191V54.4217H599.579V67.6191H586.382Z" fill="black" stroke="black" stroke-width="0.311862"/>
<path d="M599.891 67.6191V54.4217H613.089V67.6191H599.891Z" fill="black" stroke="black" stroke-width="0.311862"/>
<path d="M586.382 13.5812V0.383897H599.579V13.5812H586.382Z" fill="black" stroke="black" stroke-width="0.311862"/>
<path d="M599.891 13.5812V0.383897H613.089V13.5812H599.891Z" fill="black" stroke="black" stroke-width="0.311862"/>
<path d="M613.401 27.0904V13.8931H626.598V27.0904H613.401Z" fill="black" stroke="black" stroke-width="0.311862"/>
<path d="M613.401 40.5996V27.4023H626.598V40.5996H613.401Z" fill="black" stroke="black" stroke-width="0.311862"/>
<path d="M613.401 54.1099V40.9125H626.598V54.1099H613.401Z" fill="black" stroke="black" stroke-width="0.311862"/>
<path d="M613.401 67.6191V54.4217H626.598V67.6191H613.401Z" fill="black" stroke="black" stroke-width="0.311862"/>
<path d="M701.181 13.5812V0.383897H714.378V13.5812H701.181Z" fill="black" stroke="black" stroke-width="0.311862"/>
<path d="M721.382 27.0904V13.8931H734.579V27.0904H721.382Z" fill="black" stroke="black" stroke-width="0.311862"/>
<path d="M721.382 40.5996V27.4023H734.579V40.5996H721.382Z" fill="black" stroke="black" stroke-width="0.311862"/>
<path d="M721.382 54.1099V40.9125H734.579V54.1099H721.382Z" fill="black" stroke="black" stroke-width="0.311862"/>
<path d="M721.382 67.6191V54.4217H734.579V67.6191H721.382Z" fill="black" stroke="black" stroke-width="0.311862"/>
<path d="M714.691 13.5812V0.383897H727.888V13.5812H714.691Z" fill="black" stroke="black" stroke-width="0.311862"/>
<path d="M728.2 13.5812V0.383897H741.397V13.5812H728.2Z" fill="black" stroke="black" stroke-width="0.311862"/>
<path d="M741.647 13.5812V0.383897H754.844V13.5812H741.647Z" fill="black" stroke="black" stroke-width="0.311862"/>
<path d="M637.026 13.5812V0.383897H650.224V13.5812H637.026Z" fill="black" stroke="black" stroke-width="0.311862"/>
<path d="M637.026 40.5996V27.4023H650.224V40.5996H637.026Z" fill="black" stroke="black" stroke-width="0.311862"/>
<path d="M650.536 40.5996V27.4023H663.734V40.5996H650.536Z" fill="black" stroke="black" stroke-width="0.311862"/>
<path d="M664.046 40.5996V27.4023H677.243V40.5996H664.046Z" fill="black" stroke="black" stroke-width="0.311862"/>
<path d="M637.026 54.1099V40.9125H650.224V54.1099H637.026Z" fill="black" stroke="black" stroke-width="0.311862"/>
<path d="M650.536 13.5812V0.383897H663.734V13.5812H650.536Z" fill="black" stroke="black" stroke-width="0.311862"/>
<path d="M664.046 13.5812V0.383897H677.243V13.5812H664.046Z" fill="black" stroke="black" stroke-width="0.311862"/>
<path d="M677.555 27.0904V13.8931H690.752V27.0904H677.555Z" fill="black" stroke="black" stroke-width="0.311862"/>
<path d="M677.555 40.5996V27.4023H690.752V40.5996H677.555Z" fill="black" stroke="black" stroke-width="0.311862"/>
<path d="M677.555 54.1099V40.9125H690.752V54.1099H677.555Z" fill="black" stroke="black" stroke-width="0.311862"/>
<path d="M664.046 67.6191V54.4217H677.243V67.6191H664.046Z" fill="black" stroke="black" stroke-width="0.311862"/>
<path d="M650.536 67.6191V54.4217H663.734V67.6191H650.536Z" fill="black" stroke="black" stroke-width="0.311862"/>
<g filter="url(#filter0_d_66_31)">
<path d="M2.25359 13.5813V0.383958H15.4509V13.5813H2.25359Z" fill="black" stroke="black" stroke-width="0.311862"/>
<path d="M2.25359 27.0904V13.8931H15.4509V27.0904H2.25359Z" fill="black" stroke="black" stroke-width="0.311862"/>
<path d="M2.25359 40.5996V27.4023H15.4509V40.5996H2.25359Z" fill="black" stroke="black" stroke-width="0.311862"/>
<path d="M2.25359 54.1089V40.9115H15.4509V54.1089H2.25359Z" fill="black" stroke="black" stroke-width="0.311862"/>
<path d="M2.25359 67.6191V54.4218H15.4509V67.6191H2.25359Z" fill="black" stroke="black" stroke-width="0.311862"/>
<path d="M15.764 13.5813V0.383958H28.9613V13.5813H15.764Z" fill="black" stroke="black" stroke-width="0.311862"/>
<path d="M29.2731 13.5813V0.383958H42.4705V13.5813H29.2731Z" fill="black" stroke="black" stroke-width="0.311862"/>
<path d="M42.7823 27.0904V13.8931H55.9796V27.0904H42.7823Z" fill="black" stroke="black" stroke-width="0.311862"/>
<path d="M42.7823 40.5996V27.4023H55.9796V40.5996H42.7823Z" fill="black" stroke="black" stroke-width="0.311862"/>
<path d="M42.7823 54.1089V40.9115H55.9796V54.1089H42.7823Z" fill="black" stroke="black" stroke-width="0.311862"/>
<path d="M42.7823 67.6191V54.4218H55.9796V67.6191H42.7823Z" fill="black" stroke="black" stroke-width="0.311862"/>
<path d="M130.562 13.5813V0.383958H143.76V13.5813H130.562Z" fill="black" stroke="black" stroke-width="0.311862"/>
<path d="M130.562 27.0904V13.8931H143.76V27.0904H130.562Z" fill="black" stroke="black" stroke-width="0.311862"/>
<path d="M130.562 40.5996V27.4023H143.76V40.5996H130.562Z" fill="black" stroke="black" stroke-width="0.311862"/>
<path d="M130.562 54.1089V40.9115H143.76V54.1089H130.562Z" fill="black" stroke="black" stroke-width="0.311862"/>
<path d="M130.562 67.6191V54.4218H143.76V67.6191H130.562Z" fill="black" stroke="black" stroke-width="0.311862"/>
<path d="M144.073 13.5813V0.383958H157.27V13.5813H144.073Z" fill="black" stroke="black" stroke-width="0.311862"/>
<path d="M157.582 13.5813V0.383958H170.779V13.5813H157.582Z" fill="black" stroke="black" stroke-width="0.311862"/>
<path d="M171.091 27.0904V13.8931H184.288V27.0904H171.091Z" fill="black" stroke="black" stroke-width="0.311862"/>
<path d="M171.091 40.5996V27.4023H184.288V40.5996H171.091Z" fill="black" stroke="black" stroke-width="0.311862"/>
<path d="M171.091 54.1089V40.9115H184.288V54.1089H171.091Z" fill="black" stroke="black" stroke-width="0.311862"/>
<path d="M171.091 67.6191V54.4218H184.288V67.6191H171.091Z" fill="black" stroke="black" stroke-width="0.311862"/>
<path d="M400.64 13.5813V0.383958H413.838V13.5813H400.64Z" fill="black" stroke="black" stroke-width="0.311862"/>
<path d="M400.641 27.0904V13.8931H413.838V27.0904H400.641Z" fill="black" stroke="black" stroke-width="0.311862"/>
<path d="M400.641 40.5996V27.4023H413.838V40.5996H400.641Z" fill="black" stroke="black" stroke-width="0.311862"/>
<path d="M400.641 54.1089V40.9115H413.838V54.1089H400.641Z" fill="black" stroke="black" stroke-width="0.311862"/>
<path d="M400.641 67.6191V54.4218H413.838V67.6191H400.641Z" fill="black" stroke="black" stroke-width="0.311862"/>
<path d="M414.15 13.5813V0.383958H427.347V13.5813H414.15Z" fill="black" stroke="black" stroke-width="0.311862"/>
<path d="M427.66 13.5813V0.383958H440.857V13.5813H427.66Z" fill="black" stroke="black" stroke-width="0.311862"/>
<path d="M441.169 27.0904V13.8931H454.367V27.0904H441.169Z" fill="black" stroke="black" stroke-width="0.311862"/>
<path d="M441.169 40.5996V27.4023H454.367V40.5996H441.169Z" fill="black" stroke="black" stroke-width="0.311862"/>
<path d="M441.169 54.1089V40.9115H454.367V54.1089H441.169Z" fill="black" stroke="black" stroke-width="0.311862"/>
<path d="M441.169 67.6191V54.4218H454.367V67.6191H441.169Z" fill="black" stroke="black" stroke-width="0.311862"/>
<path d="M258.744 13.5813V0.383958H271.942V13.5813H258.744Z" fill="black" stroke="black" stroke-width="0.311862"/>
<path d="M258.744 27.0904V13.8931H271.942V27.0904H258.744Z" fill="black" stroke="black" stroke-width="0.311862"/>
<path d="M258.744 40.5996V27.4023H271.942V40.5996H258.744Z" fill="black" stroke="black" stroke-width="0.311862"/>
<path d="M258.744 54.1089V40.9115H271.942V54.1089H258.744Z" fill="black" stroke="black" stroke-width="0.311862"/>
<path d="M258.744 67.6191V54.4218H271.942V67.6191H258.744Z" fill="black" stroke="black" stroke-width="0.311862"/>
<path d="M272.253 13.5813V0.383958H285.451V13.5813H272.253Z" fill="black" stroke="black" stroke-width="0.311862"/>
<path d="M285.762 13.5813V0.383958H298.96V13.5813H285.762Z" fill="black" stroke="black" stroke-width="0.311862"/>
<path d="M299.272 13.5813V0.383958H312.469V13.5813H299.272Z" fill="black" stroke="black" stroke-width="0.311862"/>
<path d="M312.782 27.0904V13.8931H325.979V27.0904H312.782Z" fill="black" stroke="black" stroke-width="0.311862"/>
<path d="M312.782 40.5996V27.4023H325.979V40.5996H312.782Z" fill="black" stroke="black" stroke-width="0.311862"/>
<path d="M312.782 54.1089V40.9115H325.979V54.1089H312.782Z" fill="black" stroke="black" stroke-width="0.311862"/>
<path d="M312.782 67.6191V54.4218H325.979V67.6191H312.782Z" fill="black" stroke="black" stroke-width="0.311862"/>
<path d="M285.762 27.0904V13.8931H298.96V27.0904H285.762Z" fill="black" stroke="black" stroke-width="0.311862"/>
<path d="M285.762 40.5996V27.4023H298.96V40.5996H285.762Z" fill="black" stroke="black" stroke-width="0.311862"/>
<path d="M285.762 54.1089V40.9115H298.96V54.1089H285.762Z" fill="black" stroke="black" stroke-width="0.311862"/>
<path d="M285.762 67.6191V54.4218H298.96V67.6191H285.762Z" fill="black" stroke="black" stroke-width="0.311862"/>
<path d="M66.408 13.5813V0.383958H79.6053V13.5813H66.408Z" fill="black" stroke="black" stroke-width="0.311862"/>
<path d="M66.408 40.5996V27.4023H79.6053V40.5996H66.408Z" fill="black" stroke="black" stroke-width="0.311862"/>
<path d="M79.9183 40.5996V27.4023H93.1156V40.5996H79.9183Z" fill="black" stroke="black" stroke-width="0.311862"/>
<path d="M93.4274 40.5996V27.4023H106.625V40.5996H93.4274Z" fill="black" stroke="black" stroke-width="0.311862"/>
<path d="M66.408 54.1089V40.9115H79.6053V54.1089H66.408Z" fill="black" stroke="black" stroke-width="0.311862"/>
<path d="M79.9183 13.5813V0.383958H93.1156V13.5813H79.9183Z" fill="black" stroke="black" stroke-width="0.311862"/>
<path d="M93.4274 13.5813V0.383958H106.625V13.5813H93.4274Z" fill="black" stroke="black" stroke-width="0.311862"/>
<path d="M106.937 27.0904V13.8931H120.134V27.0904H106.937Z" fill="black" stroke="black" stroke-width="0.311862"/>
<path d="M106.937 40.5996V27.4023H120.134V40.5996H106.937Z" fill="black" stroke="black" stroke-width="0.311862"/>
<path d="M106.937 54.1089V40.9115H120.134V54.1089H106.937Z" fill="black" stroke="black" stroke-width="0.311862"/>
<path d="M93.4274 67.6191V54.4218H106.625V67.6191H93.4274Z" fill="black" stroke="black" stroke-width="0.311862"/>
<path d="M79.9183 67.6191V54.4218H93.1156V67.6191H79.9183Z" fill="black" stroke="black" stroke-width="0.311862"/>
<path d="M336.447 13.5813V0.383958H349.644V13.5813H336.447Z" fill="black" stroke="black" stroke-width="0.311862"/>
<path d="M336.447 40.5996V27.4023H349.644V40.5996H336.447Z" fill="black" stroke="black" stroke-width="0.311862"/>
<path d="M349.956 40.5996V27.4023H363.154V40.5996H349.956Z" fill="black" stroke="black" stroke-width="0.311862"/>
<path d="M363.465 40.5996V27.4023H376.663V40.5996H363.465Z" fill="black" stroke="black" stroke-width="0.311862"/>
<path d="M336.447 54.1089V40.9115H349.644V54.1089H336.447Z" fill="black" stroke="black" stroke-width="0.311862"/>
<path d="M349.956 13.5813V0.383958H363.154V13.5813H349.956Z" fill="black" stroke="black" stroke-width="0.311862"/>
<path d="M363.465 13.5813V0.383958H376.663V13.5813H363.465Z" fill="black" stroke="black" stroke-width="0.311862"/>
<path d="M376.976 27.0904V13.8931H390.173V27.0904H376.976Z" fill="black" stroke="black" stroke-width="0.311862"/>
<path d="M376.976 40.5996V27.4023H390.173V40.5996H376.976Z" fill="black" stroke="black" stroke-width="0.311862"/>
<path d="M376.976 54.1089V40.9115H390.173V54.1089H376.976Z" fill="black" stroke="black" stroke-width="0.311862"/>
<path d="M363.465 67.6191V54.4218H376.663V67.6191H363.465Z" fill="black" stroke="black" stroke-width="0.311862"/>
<path d="M349.956 67.6191V54.4218H363.154V67.6191H349.956Z" fill="black" stroke="black" stroke-width="0.311862"/>
<path d="M194.756 27.0904V13.8931H207.953V27.0904H194.756Z" fill="black" stroke="black" stroke-width="0.311862"/>
<path d="M194.756 40.5996V27.4023H207.953V40.5996H194.756Z" fill="black" stroke="black" stroke-width="0.311862"/>
<path d="M194.756 54.1089V40.9115H207.953V54.1089H194.756Z" fill="black" stroke="black" stroke-width="0.311862"/>
<path d="M208.209 13.5813V0.383958H221.406V13.5813H208.209Z" fill="black" stroke="black" stroke-width="0.311862"/>
<path d="M221.63 13.5813V0.383958H234.827V13.5813H221.63Z" fill="black" stroke="black" stroke-width="0.311862"/>
<path d="M235.079 13.5813V0.383958H248.277V13.5813H235.079Z" fill="black" stroke="black" stroke-width="0.311862"/>
<path d="M235.073 40.5996V27.4023H248.27V40.5996H235.073Z" fill="black" stroke="black" stroke-width="0.311862"/>
<path d="M221.63 40.5996V27.4023H234.827V40.5996H221.63Z" fill="black" stroke="black" stroke-width="0.311862"/>
<path d="M235.073 54.1089V40.9115H248.27V54.1089H235.073Z" fill="black" stroke="black" stroke-width="0.311862"/>
<path d="M221.644 67.6191V54.4218H234.842V67.6191H221.644Z" fill="black" stroke="black" stroke-width="0.311862"/>
<path d="M208.209 67.6191V54.4218H221.406V67.6191H208.209Z" fill="black" stroke="black" stroke-width="0.311862"/>
</g>
<defs>
<filter id="filter0_d_66_31" x="0.850209" y="0.228027" width="454.92" height="70.042" filterUnits="userSpaceOnUse" color-interpolation-filters="sRGB">
<feFlood flood-opacity="0" result="BackgroundImageFix"/>
<feColorMatrix in="SourceAlpha" type="matrix" values="0 0 0 0 0 0 0 0 0 0 0 0 0 0 0 0 0 0 127 0" result="hardAlpha"/>
<feOffset dy="1.24745"/>
<feGaussianBlur stdDeviation="0.623724"/>
<feComposite in2="hardAlpha" operator="out"/>
<feColorMatrix type="matrix" values="0 0 0 0 0 0 0 0 0 0 0 0 0 0 0 0 0 0 0.25 0"/>
<feBlend mode="normal" in2="BackgroundImageFix" result="effect1_dropShadow_66_31"/>
<feBlend mode="normal" in="SourceGraphic" in2="effect1_dropShadow_66_31" result="shape"/>
</filter>
</defs>
</svg>
