<svg width="454" height="412" viewBox="0 0 454 412" fill="none" xmlns="http://www.w3.org/2000/svg">
<path d="M267.093 191.004H259.115V201.031H267.093V191.004Z" fill="black"/>
<path d="M259.114 191.004H251.136V201.031H259.114V191.004Z" fill="black"/>
<path d="M251.135 191.004H243.156V201.031H251.135V191.004Z" fill="black"/>
<path d="M243.156 191.004H235.177V201.031H243.156V191.004Z" fill="black"/>
<path d="M235.178 191.004H227.199V201.031H235.178V191.004Z" fill="black"/>
<path d="M227.199 191.004H219.22V201.031H227.199V191.004Z" fill="black"/>
<path d="M219.221 191.004H211.242V201.031H219.221V191.004Z" fill="black"/>
<path d="M211.241 191.004H203.262V201.031H211.241V191.004Z" fill="black"/>
<path d="M203.262 191.004H195.284V201.031H203.262V191.004Z" fill="black"/>
<path d="M195.284 191.004H187.305V201.031H195.284V191.004Z" fill="black"/>
<path d="M187.305 191.004H179.327V201.031H187.305V191.004Z" fill="black"/>
<path d="M291.029 180.977H283.05V191.004H291.029V180.977Z" fill="black"/>
<path d="M283.05 180.977H275.072V191.004H283.05V180.977Z" fill="black"/>
<path d="M275.071 180.977H267.093V191.004H275.071V180.977Z" fill="black"/>
<path d="M267.093 180.977H259.115V191.004H267.093V180.977Z" fill="black"/>
<path d="M259.114 180.977H251.136V191.004H259.114V180.977Z" fill="black"/>
<path d="M251.135 180.977H243.156V191.004H251.135V180.977Z" fill="black"/>
<path d="M243.156 180.977H235.177V191.004H243.156V180.977Z" fill="black"/>
<path d="M235.178 180.977H227.199V191.004H235.178V180.977Z" fill="black"/>
<path d="M227.199 180.977H219.22V191.004H227.199V180.977Z" fill="black"/>
<path d="M219.221 180.977H211.242V191.004H219.221V180.977Z" fill="black"/>
<path d="M211.241 180.977H203.262V191.004H211.241V180.977Z" fill="black"/>
<path d="M203.262 180.977H195.284V191.004H203.262V180.977Z" fill="black"/>
<path d="M195.284 180.977H187.305V191.004H195.284V180.977Z" fill="black"/>
<path d="M187.305 180.977H179.327V191.004H187.305V180.977Z" fill="black"/>
<path d="M179.326 180.977H171.348V191.004H179.326V180.977Z" fill="black"/>
<path d="M171.347 180.977H163.368V191.004H171.347V180.977Z" fill="black"/>
<path d="M299.007 170.951H291.029V180.977H299.007V170.951Z" fill="black"/>
<path d="M291.029 170.951H283.05V180.977H291.029V170.951Z" fill="black"/>
<path d="M283.05 170.951H275.072V180.977H283.05V170.951Z" fill="black"/>
<path d="M275.071 170.951H267.093V180.977H275.071V170.951Z" fill="black"/>
<path d="M267.093 170.951H259.115V180.977H267.093V170.951Z" fill="black"/>
<path d="M259.114 170.951H251.136V180.977H259.114V170.951Z" fill="black"/>
<path d="M251.135 170.951H243.156V180.977H251.135V170.951Z" fill="black"/>
<path d="M243.156 170.951H235.177V180.977H243.156V170.951Z" fill="black"/>
<path d="M235.178 170.951H227.199V180.977H235.178V170.951Z" fill="black"/>
<path d="M227.199 170.951H219.22V180.977H227.199V170.951Z" fill="black"/>
<path d="M219.221 170.951H211.242V180.977H219.221V170.951Z" fill="black"/>
<path d="M211.241 170.951H203.262V180.977H211.241V170.951Z" fill="black"/>
<path d="M203.262 170.951H195.284V180.977H203.262V170.951Z" fill="black"/>
<path d="M195.284 170.951H187.305V180.977H195.284V170.951Z" fill="black"/>
<path d="M187.305 170.951H179.327V180.977H187.305V170.951Z" fill="black"/>
<path d="M179.326 170.951H171.348V180.977H179.326V170.951Z" fill="black"/>
<path d="M171.347 170.951H163.368V180.977H171.347V170.951Z" fill="black"/>
<path d="M163.368 170.951H155.39V180.977H163.368V170.951Z" fill="black"/>
<path d="M306.987 160.924H299.008V170.951H306.987V160.924Z" fill="black"/>
<path d="M299.007 160.924H291.029V170.951H299.007V160.924Z" fill="black"/>
<path d="M291.029 160.924H283.05V170.951H291.029V160.924Z" fill="black"/>
<path d="M283.05 160.924H275.072V170.951H283.05V160.924Z" fill="black"/>
<path d="M275.071 160.924H267.093V170.951H275.071V160.924Z" fill="black"/>
<path d="M267.093 160.924H259.115V170.951H267.093V160.924Z" fill="black"/>
<path d="M259.114 160.924H251.136V170.951H259.114V160.924Z" fill="black"/>
<path d="M251.135 160.924H243.156V170.951H251.135V160.924Z" fill="black"/>
<path d="M243.156 160.924H235.177V170.951H243.156V160.924Z" fill="black"/>
<path d="M235.178 160.924H227.199V170.951H235.178V160.924Z" fill="black"/>
<path d="M227.199 160.924H219.22V170.951H227.199V160.924Z" fill="black"/>
<path d="M219.221 160.924H211.242V170.951H219.221V160.924Z" fill="black"/>
<path d="M211.241 160.924H203.262V170.951H211.241V160.924Z" fill="black"/>
<path d="M203.262 160.924H195.284V170.951H203.262V160.924Z" fill="black"/>
<path d="M195.284 160.924H187.305V170.951H195.284V160.924Z" fill="black"/>
<path d="M187.305 160.924H179.327V170.951H187.305V160.924Z" fill="black"/>
<path d="M179.326 160.924H171.348V170.951H179.326V160.924Z" fill="black"/>
<path d="M171.347 160.924H163.368V170.951H171.347V160.924Z" fill="black"/>
<path d="M163.368 160.924H155.39V170.951H163.368V160.924Z" fill="black"/>
<path d="M155.39 160.924H147.411V170.951H155.39V160.924Z" fill="black"/>
<path d="M227.199 150.899H219.22V160.925H227.199V150.899Z" fill="black"/>
<path d="M299.007 140.872H291.029V150.899H299.007V140.872Z" fill="black"/>
<path d="M291.029 140.872H283.05V150.899H291.029V140.872Z" fill="black"/>
<path d="M283.05 140.872H275.072V150.899H283.05V140.872Z" fill="black"/>
<path d="M275.071 140.872H267.093V150.899H275.071V140.872Z" fill="black"/>
<path d="M267.093 140.872H259.115V150.899H267.093V140.872Z" fill="black"/>
<path d="M259.114 140.872H251.136V150.899H259.114V140.872Z" fill="black"/>
<path d="M251.135 140.872H243.156V150.899H251.135V140.872Z" fill="black"/>
<path d="M243.156 140.872H235.177V150.899H243.156V140.872Z" fill="black"/>
<path d="M235.178 140.872H227.199V150.899H235.178V140.872Z" fill="black"/>
<path d="M227.199 140.872H219.22V150.899H227.199V140.872Z" fill="black"/>
<path d="M219.221 140.872H211.242V150.899H219.221V140.872Z" fill="black"/>
<path d="M211.241 140.872H203.262V150.899H211.241V140.872Z" fill="black"/>
<path d="M203.262 140.872H195.284V150.899H203.262V140.872Z" fill="black"/>
<path d="M195.284 140.872H187.305V150.899H195.284V140.872Z" fill="black"/>
<path d="M187.305 140.872H179.327V150.899H187.305V140.872Z" fill="black"/>
<path d="M179.326 140.872H171.348V150.899H179.326V140.872Z" fill="black"/>
<path d="M171.347 140.872H163.368V150.899H171.347V140.872Z" fill="black"/>
<path d="M163.368 140.872H155.39V150.899H163.368V140.872Z" fill="black"/>
<path d="M291.029 130.845H283.05V140.872H291.029V130.845Z" fill="black"/>
<path d="M283.05 130.845H275.072V140.872H283.05V130.845Z" fill="black"/>
<path d="M275.071 130.845H267.093V140.872H275.071V130.845Z" fill="black"/>
<path d="M267.093 130.845H259.115V140.872H267.093V130.845Z" fill="black"/>
<path d="M259.114 130.845H251.136V140.872H259.114V130.845Z" fill="black"/>
<path d="M251.135 130.845H243.156V140.872H251.135V130.845Z" fill="black"/>
<path d="M243.156 130.845H235.177V140.872H243.156V130.845Z" fill="black"/>
<path d="M235.178 130.845H227.199V140.872H235.178V130.845Z" fill="black"/>
<path d="M227.199 130.845H219.22V140.872H227.199V130.845Z" fill="black"/>
<path d="M211.241 130.845H203.262V140.872H211.241V130.845Z" fill="black"/>
<path d="M203.262 130.845H195.284V140.872H203.262V130.845Z" fill="black"/>
<path d="M195.284 130.845H187.305V140.872H195.284V130.845Z" fill="black"/>
<path d="M187.305 130.845H179.327V140.872H187.305V130.845Z" fill="black"/>
<path d="M179.326 130.845H171.348V140.872H179.326V130.845Z" fill="black"/>
<path d="M171.347 130.845H163.368V140.872H171.347V130.845Z" fill="black"/>
<path d="M163.368 130.845H155.39V140.872H163.368V130.845Z" fill="black"/>
<path d="M155.39 130.845H147.411V140.872H155.39V130.845Z" fill="black"/>
<path d="M275.071 120.819H267.093V130.845H275.071V120.819Z" fill="black"/>
<path d="M267.093 120.819H259.115V130.845H267.093V120.819Z" fill="black"/>
<path d="M259.114 120.819H251.136V130.845H259.114V120.819Z" fill="black"/>
<path d="M251.135 120.819H243.156V130.845H251.135V120.819Z" fill="black"/>
<path d="M243.156 120.819H235.177V130.845H243.156V120.819Z" fill="black"/>
<path d="M235.178 120.819H227.199V130.845H235.178V120.819Z" fill="black"/>
<path d="M227.199 120.819H219.22V130.845H227.199V120.819Z" fill="black"/>
<path d="M203.262 120.819H195.284V130.845H203.262V120.819Z" fill="black"/>
<path d="M195.284 120.819H187.305V130.845H195.284V120.819Z" fill="black"/>
<path d="M187.305 120.819H179.327V130.845H187.305V120.819Z" fill="black"/>
<path d="M179.326 120.819H171.348V130.845H179.326V120.819Z" fill="black"/>
<path d="M171.347 120.819H163.368V130.845H171.347V120.819Z" fill="black"/>
<path d="M163.368 120.819H155.39V130.845H163.368V120.819Z" fill="black"/>
<path d="M155.39 120.819H147.411V130.845H155.39V120.819Z" fill="black"/>
<path d="M267.093 110.792H259.115V120.819H267.093V110.792Z" fill="black"/>
<path d="M259.114 110.792H251.136V120.819H259.114V110.792Z" fill="black"/>
<path d="M251.135 110.792H243.156V120.819H251.135V110.792Z" fill="black"/>
<path d="M243.156 110.792H235.177V120.819H243.156V110.792Z" fill="black"/>
<path d="M235.178 110.792H227.199V120.819H235.178V110.792Z" fill="black"/>
<path d="M227.199 110.792H219.22V120.819H227.199V110.792Z" fill="black"/>
<path d="M219.221 110.792H211.242V120.819H219.221V110.792Z" fill="black"/>
<path d="M203.262 110.792H195.284V120.819H203.262V110.792Z" fill="black"/>
<path d="M195.284 110.792H187.305V120.819H195.284V110.792Z" fill="black"/>
<path d="M187.305 110.792H179.327V120.819H187.305V110.792Z" fill="black"/>
<path d="M179.326 110.792H171.348V120.819H179.326V110.792Z" fill="black"/>
<path d="M171.347 110.792H163.368V120.819H171.347V110.792Z" fill="black"/>
<path d="M163.368 110.792H155.39V120.819H163.368V110.792Z" fill="black"/>
<path d="M155.39 110.792H147.411V120.819H155.39V110.792Z" fill="black"/>
<path d="M259.114 100.765H251.136V110.792H259.114V100.765Z" fill="black"/>
<path d="M251.135 100.765H243.156V110.792H251.135V100.765Z" fill="black"/>
<path d="M243.156 100.765H235.177V110.792H243.156V100.765Z" fill="black"/>
<path d="M235.178 100.765H227.199V110.792H235.178V100.765Z" fill="black"/>
<path d="M227.199 100.765H219.22V110.792H227.199V100.765Z" fill="black"/>
<path d="M219.221 100.765H211.242V110.792H219.221V100.765Z" fill="black"/>
<path d="M195.284 100.765H187.305V110.792H195.284V100.765Z" fill="black"/>
<path d="M187.305 100.765H179.327V110.792H187.305V100.765Z" fill="black"/>
<path d="M179.326 100.765H171.348V110.792H179.326V100.765Z" fill="black"/>
<path d="M171.347 100.765H163.368V110.792H171.347V100.765Z" fill="black"/>
<path d="M163.368 100.765H155.39V110.792H163.368V100.765Z" fill="black"/>
<path d="M155.39 100.765H147.411V110.792H155.39V100.765Z" fill="black"/>
<path d="M251.135 90.7388H243.156V100.765H251.135V90.7388Z" fill="black"/>
<path d="M243.156 90.7388H235.177V100.765H243.156V90.7388Z" fill="black"/>
<path d="M235.178 90.7388H227.199V100.765H235.178V90.7388Z" fill="black"/>
<path d="M227.199 90.7388H219.22V100.765H227.199V90.7388Z" fill="black"/>
<path d="M219.221 90.7388H211.242V100.765H219.221V90.7388Z" fill="black"/>
<path d="M195.284 90.7388H187.305V100.765H195.284V90.7388Z" fill="black"/>
<path d="M187.305 90.7388H179.327V100.765H187.305V90.7388Z" fill="black"/>
<path d="M179.326 90.7388H171.348V100.765H179.326V90.7388Z" fill="black"/>
<path d="M171.347 90.7388H163.368V100.765H171.347V90.7388Z" fill="black"/>
<path d="M163.368 90.7388H155.39V100.765H163.368V90.7388Z" fill="black"/>
<path d="M243.156 80.7122H235.177V90.7388H243.156V80.7122Z" fill="black"/>
<path d="M235.178 80.7122H227.199V90.7388H235.178V80.7122Z" fill="black"/>
<path d="M227.199 80.7122H219.22V90.7388H227.199V80.7122Z" fill="black"/>
<path d="M219.221 80.7122H211.242V90.7388H219.221V80.7122Z" fill="black"/>
<path d="M187.305 80.7122H179.327V90.7388H187.305V80.7122Z" fill="black"/>
<path d="M179.326 80.7122H171.348V90.7388H179.326V80.7122Z" fill="black"/>
<path d="M171.347 80.7122H163.368V90.7388H171.347V80.7122Z" fill="black"/>
<path d="M163.368 80.7122H155.39V90.7388H163.368V80.7122Z" fill="black"/>
<path d="M235.178 70.6854H227.199V80.7121H235.178V70.6854Z" fill="black"/>
<path d="M227.199 70.6854H219.22V80.7121H227.199V70.6854Z" fill="black"/>
<path d="M219.221 70.6854H211.242V80.7121H219.221V70.6854Z" fill="black"/>
<path d="M187.305 70.6854H179.327V80.7121H187.305V70.6854Z" fill="black"/>
<path d="M179.326 70.6854H171.348V80.7121H179.326V70.6854Z" fill="black"/>
<path d="M171.347 70.6854H163.368V80.7121H171.347V70.6854Z" fill="black"/>
<path d="M235.178 60.6588H227.199V70.6855H235.178V60.6588Z" fill="black"/>
<path d="M227.199 60.6588H219.22V70.6855H227.199V60.6588Z" fill="black"/>
<path d="M219.221 60.6588H211.242V70.6855H219.221V60.6588Z" fill="black"/>
<path d="M195.284 60.6588H187.305V70.6855H195.284V60.6588Z" fill="black"/>
<path d="M187.305 60.6588H179.327V70.6855H187.305V60.6588Z" fill="black"/>
<path d="M179.326 60.6588H171.348V70.6855H179.326V60.6588Z" fill="black"/>
<path d="M227.199 50.6332H219.22V60.6598H227.199V50.6332Z" fill="black"/>
<path d="M219.221 50.6332H211.242V60.6598H219.221V50.6332Z" fill="black"/>
<path d="M195.284 50.6332H187.305V60.6598H195.284V50.6332Z" fill="black"/>
<path d="M187.305 50.6332H179.327V60.6598H187.305V50.6332Z" fill="black"/>
<path d="M227.199 40.6066H219.22V50.6332H227.199V40.6066Z" fill="black"/>
<path d="M219.221 40.6066H211.242V50.6332H219.221V40.6066Z" fill="black"/>
<path d="M203.262 40.6066H195.284V50.6332H203.262V40.6066Z" fill="black"/>
<path d="M195.284 40.6066H187.305V50.6332H195.284V40.6066Z" fill="black"/>
<path d="M219.221 30.58H211.242V40.6066H219.221V30.58Z" fill="black"/>
<path d="M203.262 30.58H195.284V40.6066H203.262V30.58Z" fill="black"/>
<path d="M219.221 20.5533H211.242V30.58H219.221V20.5533Z" fill="black"/>
<path d="M211.241 20.5533H203.262V30.58H211.241V20.5533Z" fill="black"/>
<path d="M211.241 10.5267H203.262V20.5534H211.241V10.5267Z" fill="black"/>
<path d="M211.241 0.5H203.262V10.5266H211.241V0.5Z" fill="black"/>
<path d="M117.363 343.801H103.854V357.31H117.363V343.801Z" fill="black"/>
<path d="M130.874 343.801H117.365V357.31H130.874V343.801Z" fill="black"/>
<path d="M144.383 343.801H130.874V357.31H144.383V343.801Z" fill="black"/>
<path d="M157.892 357.31H144.383V370.819H157.892V357.31Z" fill="black"/>
<path d="M157.892 370.819H144.383V384.328H157.892V370.819Z" fill="black"/>
<path d="M117.363 357.31H103.854V370.819H117.363V357.31Z" fill="black"/>
<path d="M117.363 370.819H103.854V384.328H117.363V370.819Z" fill="black"/>
<path d="M117.363 384.329H103.854V397.839H117.363V384.329Z" fill="black"/>
<path d="M117.363 397.839H103.854V411.348H117.363V397.839Z" fill="black"/>
<path d="M144.383 370.819H130.874V384.328H144.383V370.819Z" fill="black"/>
<path d="M130.874 370.819H117.365V384.328H130.874V370.819Z" fill="black"/>
<path d="M157.892 384.329H144.383V397.839H157.892V384.329Z" fill="black"/>
<path d="M130.874 397.839H117.365V411.348H130.874V397.839Z" fill="black"/>
<path d="M144.383 397.839H130.874V411.348H144.383V397.839Z" fill="black"/>
<path d="M181.518 343.801H168.009V357.31H181.518V343.801Z" fill="black"/>
<path d="M181.518 357.31H168.009V370.819H181.518V357.31Z" fill="black"/>
<path d="M181.518 370.819H168.009V384.329H181.518V370.819Z" fill="black"/>
<path d="M181.518 384.329H168.009V397.839H181.518V384.329Z" fill="black"/>
<path d="M195.028 397.839H181.519V411.348H195.028V397.839Z" fill="black"/>
<path d="M208.537 397.839H195.028V411.348H208.537V397.839Z" fill="black"/>
<path d="M195.028 343.801H181.519V357.31H195.028V343.801Z" fill="black"/>
<path d="M208.537 343.801H195.028V357.31H208.537V343.801Z" fill="black"/>
<path d="M222.046 357.31H208.537V370.819H222.046V357.31Z" fill="black"/>
<path d="M222.046 370.819H208.537V384.329H222.046V370.819Z" fill="black"/>
<path d="M222.046 384.329H208.537V397.839H222.046V384.329Z" fill="black"/>
<path d="M222.046 397.839H208.537V411.348H222.046V397.839Z" fill="black"/>
<path d="M309.827 343.801H296.317V357.31H309.827V343.801Z" fill="black"/>
<path d="M330.028 357.31H316.519V370.819H330.028V357.31Z" fill="black"/>
<path d="M330.028 370.819H316.519V384.329H330.028V370.819Z" fill="black"/>
<path d="M330.028 384.329H316.519V397.839H330.028V384.329Z" fill="black"/>
<path d="M330.028 397.839H316.519V411.348H330.028V397.839Z" fill="black"/>
<path d="M323.337 343.801H309.828V357.31H323.337V343.801Z" fill="black"/>
<path d="M336.846 343.801H323.337V357.31H336.846V343.801Z" fill="black"/>
<path d="M350.293 343.801H336.784V357.31H350.293V343.801Z" fill="black"/>
<path d="M245.672 343.801H232.163V357.31H245.672V343.801Z" fill="black"/>
<path d="M245.672 370.819H232.163V384.329H245.672V370.819Z" fill="black"/>
<path d="M259.182 370.819H245.673V384.329H259.182V370.819Z" fill="black"/>
<path d="M272.691 370.819H259.182V384.329H272.691V370.819Z" fill="black"/>
<path d="M245.672 384.329H232.163V397.839H245.672V384.329Z" fill="black"/>
<path d="M259.182 343.801H245.673V357.31H259.182V343.801Z" fill="black"/>
<path d="M272.691 343.801H259.182V357.31H272.691V343.801Z" fill="black"/>
<path d="M286.201 357.31H272.691V370.819H286.201V357.31Z" fill="black"/>
<path d="M286.201 370.819H272.691V384.329H286.201V370.819Z" fill="black"/>
<path d="M286.201 384.329H272.691V397.839H286.201V384.329Z" fill="black"/>
<path d="M272.691 397.839H259.182V411.348H272.691V397.839Z" fill="black"/>
<path d="M259.182 397.839H245.673V411.348H259.182V397.839Z" fill="black"/>
<path d="M14.3254 245.527H0.816162V259.036H14.3254V245.527Z" fill="black"/>
<path d="M14.3254 259.036H0.816162V272.545H14.3254V259.036Z" fill="black"/>
<path d="M14.3254 272.545H0.816162V286.054H14.3254V272.545Z" fill="black"/>
<path d="M14.3254 286.054H0.816162V299.563H14.3254V286.054Z" fill="black"/>
<path d="M14.3254 299.564H0.816162V313.074H14.3254V299.564Z" fill="black"/>
<path d="M27.8356 245.527H14.3264V259.036H27.8356V245.527Z" fill="black"/>
<path d="M41.3449 245.527H27.8357V259.036H41.3449V245.527Z" fill="black"/>
<path d="M54.8539 259.036H41.3447V272.545H54.8539V259.036Z" fill="black"/>
<path d="M54.8539 272.545H41.3447V286.054H54.8539V272.545Z" fill="black"/>
<path d="M54.8539 286.054H41.3447V299.563H54.8539V286.054Z" fill="black"/>
<path d="M54.8539 299.564H41.3447V313.074H54.8539V299.564Z" fill="black"/>
<path d="M142.634 245.527H129.125V259.036H142.634V245.527Z" fill="black"/>
<path d="M142.634 259.036H129.125V272.545H142.634V259.036Z" fill="black"/>
<path d="M142.634 272.545H129.125V286.054H142.634V272.545Z" fill="black"/>
<path d="M142.634 286.054H129.125V299.563H142.634V286.054Z" fill="black"/>
<path d="M142.634 299.564H129.125V313.074H142.634V299.564Z" fill="black"/>
<path d="M156.144 245.527H142.635V259.036H156.144V245.527Z" fill="black"/>
<path d="M169.653 245.527H156.144V259.036H169.653V245.527Z" fill="black"/>
<path d="M183.163 259.036H169.654V272.545H183.163V259.036Z" fill="black"/>
<path d="M183.163 272.545H169.654V286.054H183.163V272.545Z" fill="black"/>
<path d="M183.163 286.054H169.654V299.563H183.163V286.054Z" fill="black"/>
<path d="M183.163 299.564H169.654V313.074H183.163V299.564Z" fill="black"/>
<path d="M412.712 245.527H399.203V259.036H412.712V245.527Z" fill="black"/>
<path d="M412.712 259.036H399.203V272.545H412.712V259.036Z" fill="black"/>
<path d="M412.712 272.545H399.203V286.054H412.712V272.545Z" fill="black"/>
<path d="M412.712 286.054H399.203V299.563H412.712V286.054Z" fill="black"/>
<path d="M412.712 299.564H399.203V313.074H412.712V299.564Z" fill="black"/>
<path d="M426.221 245.527H412.712V259.036H426.221V245.527Z" fill="black"/>
<path d="M439.732 245.527H426.222V259.036H439.732V245.527Z" fill="black"/>
<path d="M453.241 259.036H439.732V272.545H453.241V259.036Z" fill="black"/>
<path d="M453.241 272.545H439.732V286.054H453.241V272.545Z" fill="black"/>
<path d="M453.241 286.054H439.732V299.563H453.241V286.054Z" fill="black"/>
<path d="M453.241 299.564H439.732V313.074H453.241V299.564Z" fill="black"/>
<path d="M270.816 245.526H257.307V259.036H270.816V245.526Z" fill="black"/>
<path d="M270.816 259.036H257.306V272.545H270.816V259.036Z" fill="black"/>
<path d="M270.816 272.545H257.306V286.054H270.816V272.545Z" fill="black"/>
<path d="M270.816 286.054H257.306V299.563H270.816V286.054Z" fill="black"/>
<path d="M270.816 299.564H257.306V313.074H270.816V299.564Z" fill="black"/>
<path d="M284.325 245.526H270.816V259.036H284.325V245.526Z" fill="black"/>
<path d="M297.834 245.526H284.325V259.036H297.834V245.526Z" fill="black"/>
<path d="M311.343 245.526H297.834V259.036H311.343V245.526Z" fill="black"/>
<path d="M324.854 259.036H311.344V272.545H324.854V259.036Z" fill="black"/>
<path d="M324.854 272.545H311.344V286.054H324.854V272.545Z" fill="black"/>
<path d="M324.854 286.054H311.344V299.563H324.854V286.054Z" fill="black"/>
<path d="M324.854 299.564H311.344V313.074H324.854V299.564Z" fill="black"/>
<path d="M297.834 259.036H284.325V272.545H297.834V259.036Z" fill="black"/>
<path d="M297.834 272.545H284.325V286.054H297.834V272.545Z" fill="black"/>
<path d="M297.834 286.054H284.325V299.563H297.834V286.054Z" fill="black"/>
<path d="M297.834 299.564H284.325V313.074H297.834V299.564Z" fill="black"/>
<path d="M78.4796 245.527H64.9705V259.036H78.4796V245.527Z" fill="black"/>
<path d="M78.4796 272.545H64.9705V286.054H78.4796V272.545Z" fill="black"/>
<path d="M91.9899 272.545H78.4807V286.054H91.9899V272.545Z" fill="black"/>
<path d="M105.499 272.545H91.99V286.054H105.499V272.545Z" fill="black"/>
<path d="M78.4796 286.054H64.9705V299.563H78.4796V286.054Z" fill="black"/>
<path d="M91.9899 245.527H78.4807V259.036H91.9899V245.527Z" fill="black"/>
<path d="M105.499 245.527H91.99V259.036H105.499V245.527Z" fill="black"/>
<path d="M119.008 259.036H105.499V272.545H119.008V259.036Z" fill="black"/>
<path d="M119.008 272.545H105.499V286.054H119.008V272.545Z" fill="black"/>
<path d="M119.008 286.054H105.499V299.563H119.008V286.054Z" fill="black"/>
<path d="M105.499 299.564H91.99V313.074H105.499V299.564Z" fill="black"/>
<path d="M91.9899 299.564H78.4807V313.074H91.9899V299.564Z" fill="black"/>
<path d="M348.519 245.527H335.01V259.036H348.519V245.527Z" fill="black"/>
<path d="M348.519 272.545H335.01V286.054H348.519V272.545Z" fill="black"/>
<path d="M362.028 272.545H348.519V286.054H362.028V272.545Z" fill="black"/>
<path d="M375.537 272.545H362.028V286.054H375.537V272.545Z" fill="black"/>
<path d="M348.519 286.054H335.01V299.563H348.519V286.054Z" fill="black"/>
<path d="M362.028 245.527H348.519V259.036H362.028V245.527Z" fill="black"/>
<path d="M375.537 245.527H362.028V259.036H375.537V245.527Z" fill="black"/>
<path d="M389.047 259.036H375.538V272.545H389.047V259.036Z" fill="black"/>
<path d="M389.047 272.545H375.538V286.054H389.047V272.545Z" fill="black"/>
<path d="M389.047 286.054H375.538V299.563H389.047V286.054Z" fill="black"/>
<path d="M375.537 299.564H362.028V313.074H375.537V299.564Z" fill="black"/>
<path d="M362.028 299.564H348.519V313.074H362.028V299.564Z" fill="black"/>
<path d="M206.828 259.036H193.318V272.545H206.828V259.036Z" fill="black"/>
<path d="M206.828 272.545H193.318V286.054H206.828V272.545Z" fill="black"/>
<path d="M206.828 286.054H193.318V299.563H206.828V286.054Z" fill="black"/>
<path d="M220.281 245.527H206.771V259.036H220.281V245.527Z" fill="black"/>
<path d="M233.702 245.527H220.192V259.036H233.702V245.527Z" fill="black"/>
<path d="M247.151 245.527H233.642V259.036H247.151V245.527Z" fill="black"/>
<path d="M247.144 272.545H233.635V286.054H247.144V272.545Z" fill="black"/>
<path d="M233.702 272.545H220.192V286.054H233.702V272.545Z" fill="black"/>
<path d="M247.144 286.054H233.635V299.563H247.144V286.054Z" fill="black"/>
<path d="M233.716 299.564H220.207V313.074H233.716V299.564Z" fill="black"/>
<path d="M220.281 299.564H206.771V313.074H220.281V299.564Z" fill="black"/>
</svg>
