<svg width="150" height="150" viewBox="0 0 150 150" fill="none" xmlns="http://www.w3.org/2000/svg">
<rect x="1" y="1" width="149" height="149" rx="25" fill="white"/>
<path fill-rule="evenodd" clip-rule="evenodd" d="M134 0H18V2.00757H13.0371V5.01611H8.02295V9.02734H4.01123V13H0V137L2 137V141.011H7.01433V137L5 137V13.0388H9.02556V9.02757H14.0401V6.01903H18.0514V5H134V6.01903H138.011V9.02757H143.026V13.0388H145V138L142.04 138V142H138V145L133 145L133 145L14 145V145.023H10.0226V141.012H5.0083V145.023H8.01709V149.034H14V150H133V149.011H138.014V146.011H144.017V142.011H147.055V138L150 138V13H148.04V9.02734H144.028V5.01611H139.014V2.00757H134V0Z" fill="black"/>
<path d="M42.9273 37.6271H39.1091V41.4407H42.9273V42.2034H46.7455V43.7288H49.0364V46.7797H52.0909V49.0678H54.3818V52.1186H56.6727V55.9322H58.2V59.7458H59.7273V63.5593H60.4909V67.3729H64.3091V63.5593H63.5455V59.7458H62.0182V55.9322H60.4909V52.1186H58.2V48.3051H55.9091V45.2542H52.8545V42.9661H50.5636V39.9153H46.7455V38.3898H42.9273V37.6271Z" fill="black"/>
<path d="M110.127 37.6271H106.309V38.3898H102.491V39.9153H98.6727V42.9661H96.3818V45.2542H93.3273V48.3051H91.0364V52.1186H88.7455V55.9322H87.2182V59.7458H85.6909V63.5593H84.9273V67.3729H88.7455V63.5593H89.5091V59.7458H91.0364V55.9322H92.5636V52.1186H94.8545V49.0678H97.1455V46.7797H100.2V43.7288H102.491V42.2034H106.309V41.4407H110.127V37.6271Z" fill="black"/>
<path d="M60.4909 77.2881H64.3091V84.9153H60.4909V77.2881Z" fill="black"/>
<path d="M89.5091 77.2881H85.6909V84.9153H89.5091V77.2881Z" fill="black"/>
<path d="M78.0545 94.0678H81.8727V97.8814H78.8182V100.932H75.7636V105.508H78.8182V108.559H81.8727V112.373H78.0545V109.322H75V107.034H72.7091V109.322H69.6545V112.373H65.8364V108.559H68.8909V105.508H71.9455V100.932H68.8909V97.8814H65.8364V94.0678H69.6545V97.1186H72.7091V99.4068H75V97.1186H78.0545V94.0678Z" fill="black"/>
<path fill-rule="evenodd" clip-rule="evenodd" d="M111.655 30V31.5254H115.473V35.339H116.236V39.1525H117V42.9661H116.236V46.7797H115.473V50.5932H113.945V54.4068H112.418V58.2203H110.891V62.0339H109.364V65.8475H106.309V68.8983H103.255V71.9492H100.2V75H97.1455V78.0508H96.3818V81.8644H97.9091V85.678H100.2V89.4915H102.491V93.3051H104.018V97.1186H105.545V100.932H106.309V104.746H105.545V108.559H104.018V112.373H101.727V116.186H97.9091V117.712H94.0909V119.237H90.2727V120H59.7273V119.237H55.9091V118.475H52.0909V116.186H48.2727V112.373H45.9818V108.559H44.4545V104.746H43.6909V100.932H44.4545V97.1186H45.9818V93.3051H47.5091V89.4915H49.8V85.678H52.0909V81.8644H53.6182V78.8136H52.8545V75.7627H49.8V72.7119H46.7455V69.661H43.6909V66.6102H40.6364V62.7966H39.1091V58.9831H37.5818V55.1695H36.0545V51.3559H34.5273V47.5424H33.7636V43.7288H33V39.9153H33.7636V36.1017H34.5273V32.2881H38.3455V30.7627H45.9818V31.5254H49.8V33.0508H53.6182V36.1017H57.4364V39.1525H60.4909V42.2034H62.7818V46.0169H65.0727V49.8305H67.3636V53.6441H68.1273V57.4576H69.6545V61.2712H71.1818V58.9831H78.8182V60.5085H80.3455V56.6949H81.8727V52.8814H82.6364V49.0678H84.9273V45.2542H87.2182V41.4407H89.5091V38.3898H92.5636V35.339H96.3818V32.2881H100.2V30.7627H104.018V30H111.655ZM53.6182 75H56.6727V78.0508H57.4364V81.8644H55.9091V85.678H53.6182V89.4915H51.3273V93.3051H49.8V97.1186H48.2727V100.932H47.5091V104.746H48.2727V108.559H49.8V112.373H52.0909V114.661H55.9091V115.424H59.7273V116.186H90.2727V115.424H94.0909V113.898H97.9091V112.373H100.2V108.559H101.727V104.746H102.491V100.932H101.727V97.1186H100.2V93.3051H98.6727V89.4915H96.3818V85.678H94.0909V81.8644H92.5636V78.0508H93.3273V74.2373H96.3818V71.1864H99.4364V68.1356H102.491V65.0847H105.545V62.0339H107.073V58.2203H108.6V54.4068H110.127V50.5932H111.655V46.7797H112.418V42.9661H113.182V39.1525H112.418V35.339H111.655V33.8136H104.018V34.5763H100.2V36.1017H96.3818V39.1525H93.3273V42.2034H91.0364V45.2542H88.7455V49.0678H86.4545V52.8814H85.6909V56.6949H84.1636V60.5085H82.6364V64.322H78.8182V62.7966H71.1818V65.0847H67.3636V61.2712H65.8364V57.4576H64.3091V53.6441H63.5455V49.8305H61.2545V46.0169H58.9636V42.9661H56.6727V39.9153H53.6182V36.8644H49.8V35.339H45.9818V34.5763H38.3455V36.1017H37.5818V39.9153H36.8182V43.7288H37.5818V47.5424H38.3455V51.3559H39.8727V55.1695H41.4V58.9831H42.9273V62.7966H44.4545V65.8475H47.5091V68.8983H50.5636V71.9492H53.6182V75Z" fill="black"/>
</svg>
