<svg width="150" height="150" viewBox="0 0 150 150" fill="none" xmlns="http://www.w3.org/2000/svg">
<rect x="1" y="1" width="149" height="149" rx="25" fill="white"/>
<path fill-rule="evenodd" clip-rule="evenodd" d="M134 0H18V2.00757H13.0371V5.01611H8.02295V9.02734H4.01123V13H0V137L2 137V141.011H7.01433V137L5 137V13.0388H9.02556V9.02757H14.0401V6.01903H18.0514V5H134V6.01903H138.011V9.02757H143.026V13.0388H145V138L142.04 138V142H138V145L133 145L133 145L14 145V145.023H10.0226V141.012H5.0083V145.023H8.01709V149.034H14V150H133V149.011H138.014V146.011H144.017V142.011H147.055V138L150 138V13H148.04V9.02734H144.028V5.01611H139.014V2.00757H134V0Z" fill="black"/>
<path d="M63.6393 68.9118H59.582V77.0294H63.6393V68.9118Z" fill="black"/>
<path d="M68.5082 78.6529V82.7118L70.9426 82.7118V86.7706L72.5656 86.7706V89.2059H68.5082L68.5082 88.3941H64.4508V92.4529H68.5082L68.5082 93.2647H72.5656V90.8294H76.623V93.2647H80.6803L80.6803 92.4529H84.7377V88.3941H80.6803L80.6803 89.2059H76.623V86.7706L79.0574 86.7706V82.7118L80.6803 82.7118V78.6529H68.5082Z" fill="black"/>
<path d="M86.3607 68.9118H90.418V77.0294H86.3607V68.9118Z" fill="black"/>
<path fill-rule="evenodd" clip-rule="evenodd" d="M42.541 40.5H46.5984V41.3118H50.6557V42.9353H54.7131V44.5588H58.7705V46.1824H62.8279L62.8279 46.9941H66.8852L66.8852 46.1824H70.9426V45.3706H79.0574V46.1824H83.1148L83.1148 46.9941H87.1721V46.1824H91.2295V44.5588H95.2869V42.9353H99.3443L99.3443 41.3118H103.402V40.5H107.459V43.7471H109.082V55.9235H108.27V64.0412L109.082 64.0412V68.1H110.705V72.1588H112.328V73.7824H116.385L116.385 72.9706H120.443V72.1588H124.5V76.2176H120.443V77.0294H116.385L116.385 77.8412H113.139V84.3353L112.328 84.3353V85.9588H116.385L116.385 86.7706H120.443V87.5824H124.5V91.6412H120.443V90.8294H116.385L116.385 90.0176H112.328V89.2059H110.705V92.4529H108.27V95.7H105.836V98.9471H102.59V101.382H99.3443V103.818H95.2869V105.441H91.2295V107.065H87.1721V108.688H83.1148L83.1148 109.5H66.8852L66.8852 108.688H62.8279L62.8279 107.065H58.7705V105.441H54.7131V103.818H50.6557V101.382H47.4098V98.9471H44.1639V95.7H41.7295V92.4529H39.2951V89.2059H37.6721V90.0176H33.6148V90.8294H29.5574V91.6412H25.5V87.5824H29.5574V86.7706H33.6148V85.9588H37.6721V84.3353L36.8607 84.3353V77.8412H33.6148V77.0294H29.5574V76.2176H25.5V72.1588H29.5574V72.9706H33.6148V73.7824H37.6721V72.1588H39.2951V68.1H40.918V64.0412L41.7295 64.0412V55.9235H40.918V43.7471H42.541V40.5ZM83.1148 105.441L83.1148 104.629H87.1721V103.006H91.2295V101.382H95.2869V99.7588H98.5328V97.3235H101.779V94.8882H104.213V91.6412H106.648V88.3941H104.213V87.5824H100.156V83.5235H104.213V84.3353H109.082V78.6529H108.27V79.4647H104.213V80.2765H100.156V76.2176H104.213V75.4059H108.27V72.1588H106.648V68.1H105.025V64.0412L104.213 64.0412V55.9235H105.025V44.5588H103.402V45.3706H99.3443L99.3443 46.9941H95.2869V48.6176H91.2295V50.2412H87.1721V51.0529H83.1148L83.1148 50.2412H79.0574V49.4294H70.9426V50.2412H66.8852L66.8852 51.0529H62.8279L62.8279 50.2412H58.7705V48.6176H54.7131V46.9941H50.6557V45.3706H46.5984V44.5588H44.9754V55.9235H45.7869V64.0412L44.9754 64.0412V68.1H43.3525V72.1588H41.7295V75.4059H45.7869V76.2176H49.8443V80.2765H45.7869V79.4647H41.7295V78.6529H40.918V84.3353H45.7869V83.5235H49.8443V87.5824H45.7869V88.3941H43.3525V91.6412H45.7869V94.8882H48.2213V97.3235H51.4672V99.7588H54.7131V101.382H58.7705V103.006H62.8279L62.8279 104.629H66.8852L66.8852 105.441H83.1148Z" fill="black"/>
</svg>
