<svg width="150" height="150" viewBox="0 0 150 150" fill="none" xmlns="http://www.w3.org/2000/svg">
<rect x="1" y="1" width="149" height="149" rx="25" fill="white"/>
<path fill-rule="evenodd" clip-rule="evenodd" d="M134 0H18V2.00757H13.0371V5.01611H8.02295V9.02734H4.01123V13H0V137L2 137V141.011H7.01433V137L5 137V13.0388H9.02556V9.02757H14.0401V6.01903H18.0514V5H134V6.01903H138.011V9.02757H143.026V13.0388H145V138L142.04 138V142H138V145L133 145L133 145L14 145V145.023H10.0226V141.012H5.0083V145.023H8.01709V149.034H14V150H133V149.011H138.014V146.011H144.017V142.011H147.055V138L150 138V13H148.04V9.02734H144.028V5.01611H139.014V2.00757H134V0Z" fill="black"/>
<path fill-rule="evenodd" clip-rule="evenodd" d="M54.5659 32H57.7096V32.6667H60.8533V33.3333H63.997V34.6667H67.1407V36.6667H70.2844V39.3333H72.1707V42H74.0569V45.3333H75.3144V48.6667H75.9431V55.3333L75.3144 55.3333V58.6667H74.0569V62H72.7994V63.3333H74.6856V65.3333H77.2006V67.3333H79.7156V68.6667H82.2305V70H84.7455L84.7455 71.3333H87.8892V72.6667H91.0329V73.3333H105.494V72.6667H107.38V71.3333H108.638V66H108.009V63.3333H107.38V60H110.524L110.524 60.6667H113.668V62.6667H116.183V64.6667H118.698V66.6667H121.841V70H123.728V73.3333H125.614V76.6667L126.871 76.6667V80H127.5V90H126.871V93.3333L126.243 93.3333V96.6667H124.985V100L123.728 100V103.333H121.841V106H119.955V108.667H117.44V111.333H114.296V113.333H111.153V115.333H108.009L108.009 116.667H104.865V117.333H101.722L101.722 118H70.2844V114.667H101.722L101.722 114H104.865V113.333H108.009L108.009 112H111.153V110H114.296V108H116.811V105.333H118.698V102.667H120.584V100L121.841 100V96.6667H123.099V93.3333L123.728 93.3333V90H124.356V80H123.728V76.6667L122.47 76.6667V73.3333H120.584V70H118.698V68H115.554V66H113.039V64H111.153V66H111.781V72.6667H110.524V74.6667H108.638V76H106.751V76.6667H91.0329V76H87.8892V74.6667H84.7455L84.7455 73.3333H81.6018V72H79.0868V70.6667H76.5719V68.6667H74.0569V66.6667H71.5419V64.6667H69.6557V61.3333H70.9132V58.6667H72.1707V55.3333L72.7994 55.3333V48.6667H72.1707V45.3333H70.9132V42.6667H69.0269V40H67.1407V38H63.997V36.6667H60.8533V36H57.7096V35.3333H54.5659V36H51.4222V36.6667H48.2784V38H45.1347V40H43.2485V42.6667H41.3623V45.3333H40.1048V48.6667H39.476V54.6667L40.1048 54.6667V57.3333H41.3623V60.6667H41.991V64H43.8772V66H46.3922V71.3333H44.506V73.3333H42.6198V76.6667L41.991 76.6667V80H41.3623V83.3333H40.7335V93.3333L41.991 93.3333V96.6667H43.2485V100L44.506 100V103.333H46.3922V106H48.2784V108.667H51.4222V110.667H54.5659V112.667H57.7096V114H60.8533V114.667H70.2844V118H60.8533V117.333H57.7096V116H54.5659V114H51.4222V112H48.2784V109.333H45.1347V106.667H43.2485V103.333H41.3623V100L40.1048 100V96.6667H38.8473V93.3333L37.5898 93.3333V83.3333H38.2186V80H38.8473V76.6667L39.476 76.6667V73.3333H41.3623V70H43.2485V67.3333H41.991V68H36.3323V66H33.1886V64.6667H30.0449L30.0449 62.6667H26.9012V61.3333H24.3862V58.6667H22.5V55.3333H23.7575V54H26.9012L26.9012 53.3333H30.0449L30.0449 52.6667H33.1886V51.3333H36.3323V48.6667H36.9611V45.3333H38.2186V42H40.1048V39.3333H41.991V36.6667H45.1347V34.6667H48.2784V33.3333H51.4222V32.6667H54.5659V32ZM40.7335 64.6667V64H38.8473V60.6667H38.2186V58H36.9611V54.6667L33.1886 54.6667V56H30.0449L30.0449 56.6667H26.9012L26.9012 57.3333H25.6437V58H27.5299V59.3333H30.0449L30.0449 61.3333H33.1886V62.6667H36.3323V64.6667H40.7335Z" fill="black"/>
<path d="M46.3922 46.6667V52H51.4222V46.6667H46.3922Z" fill="black"/>
<path d="M101.093 87.3333V88.6667L99.8353 88.6667V91.3333H97.9491V94H95.4341L95.4341 96H92.2904V98H89.1467L89.1467 99.3333H86.003V100.667H82.8593V101.333H79.7156L79.7156 102H76.5719V101.333H73.4281L73.4281 100.667H70.2844V104H73.4281L73.4281 104.667H76.5719V105.333H79.7156L79.7156 104.667H82.8593V104H86.003V102.667H89.1467L89.1467 101.333H92.2904V99.3333H95.4341L95.4341 97.3333H98.5778V94.6667H101.093V92H102.979V88.6667L104.237 88.6667V85.3333H102.979V84H99.8353V83.3333H96.6916L96.6916 82H93.5479V81.3333H90.4042L90.4042 80H87.2605V78.6667H84.1168V77.3333H80.973L80.9731 76.6667H77.8293V76H74.6856L74.6856 76.6667H71.5419V80H74.6856L74.6856 79.3333H77.8293V80H80.9731L80.973 80.6667H84.1168V82H87.2605V83.3333H90.4042L90.4042 84.6667H93.5479V85.3333H96.6916L96.6916 86.6667H99.8353V87.3333H101.093Z" fill="black"/>
<path d="M70.2844 99.3333V102.667H67.1407V99.3333H64.6257V96L63.3683 96V92.6667H62.7395V86L63.3683 86V82.6667H65.8832V80H68.3982V78H71.5419V81.3333H69.0269V83.3333H66.512V86L65.8832 86V92.6667H66.512V96L67.7695 96V99.3333H70.2844Z" fill="black"/>
</svg>
