<svg width="150" height="150" viewBox="0 0 150 150" fill="none" xmlns="http://www.w3.org/2000/svg">
<rect x="1" y="1" width="149" height="149" rx="25" fill="white"/>
<path fill-rule="evenodd" clip-rule="evenodd" d="M134 0H18V2.00757H13.0371V5.01611H8.02295V9.02734H4.01123V13H0V137L2 137V141.011H7.01433V137L5 137V13.0388H9.02556V9.02757H14.0401V6.01903H18.0514V5H134V6.01903H138.011V9.02757H143.026V13.0388H145V138L142.04 138V142H138V145L133 145L133 145L14 145V145.023H10.0226V141.012H5.0083V145.023H8.01709V149.034H14V150H133V149.011H138.014V146.011H144.017V142.011H147.055V138L150 138V13H148.04V9.02734H144.028V5.01611H139.014V2.00757H134V0Z" fill="black"/>
<path fill-rule="evenodd" clip-rule="evenodd" d="M75.8165 30.5H71.7339V32.133H67.6514V36.2156H65.2018V35.3991H61.1193V34.5826H57.0367V37.8486H53.7706V41.9312H52.1376V41.1147H48.055V41.9312H43.9725V44.3807H40.7064V48.4633H39.0734V52.5459H38.2569V56.6284H40.7064V60.711H43.156V63.1605H41.5229V67.2431H39.0734V71.3257H37.4404V75.4083H35.8073V79.4908H34.9908V83.5734H35.8073V87.656H37.4404V91.7385H41.5229V92.555H45.6055V90.922H47.2385V95.0046V99.0872L48.8716 99.0872V103.17H50.5046V107.252H53.7706V110.518H57.0367V113.784H60.3028V116.234H64.3853V117.867H68.4679L68.4679 118.683H72.5505L72.5505 119.5H76.633H80.7156V118.683H84.7982V116.234H88.8807V112.968H92.9633V109.702H97.0459V105.619H99.4954V101.537H101.945V97.4541V93.3716V90.922H104.394L104.395 92.555H108.477V91.7385H112.56V87.656H114.193V83.5734H115.009V79.4908H114.193V75.4083H112.56V71.3257H110.927V67.2431H108.477V63.1605H105.211V60.711H109.294V58.2615H111.743V54.1789H112.56V50.0963H111.743V46.0138H109.294V42.7477H106.028V41.1147H101.945V41.9312H97.8624V40.2982L96.2294 40.2982V36.2156H92.1468V33.7661H88.0642H83.9817V35.3991H79.8991V32.133H75.8165V30.5ZM61.1193 38.6651H57.8532V41.9312H56.2202V46.0138H52.1376V45.1972H48.055V46.0138H44.789V48.4633H43.156V52.5459H42.3395V56.6284H44.789V59.078H47.2385H51.3211V59.8945H55.4037V63.1605H57.8532V65.6101H61.1193V64.7936H64.3853V63.1605H68.4679V65.6101H70.9174V68.8761H74.1835H78.2661V66.4266H80.7156V62.344H84.7982V65.6101H88.8807V66.4266H92.1468V64.7936H92.9633V60.711H97.0459V58.2615H101.128V59.078H105.211V56.6284H107.661V54.1789H108.477V50.0963H107.661V46.8303H105.211V45.1972H101.945V46.0138H97.8624V44.3807H93.7798V40.2982L92.1468 40.2982V37.8486H88.0642H83.9817V39.4817H79.8991V36.2156H75.8165V34.5826H71.7339V36.2156H69.2844V40.2982H65.2018V39.4817H61.1193V38.6651ZM97.8624 89.289V93.3716V97.4541V101.537H95.4128V105.619H92.9633V108.885H88.8807V112.151H84.7982V114.601H80.7156V115.417H76.633H72.5505L72.5505 114.601H68.4679L68.4679 113.784H64.3853V112.151H61.1193V109.702H57.8532V106.436H54.5872V103.17H52.9541V99.0872L51.3211 99.0872V95.0046V90.922V86.8395V82.7569V78.6743V74.5917V70.5092V66.4266V63.9771H53.7706V67.2431H57.0367V69.6927H61.1193V68.8761H65.2018V67.2431H66.8349V69.6927H70.1009V72.9587H74.1835H78.2661V70.5092H82.3486V66.4266H84.7982V69.6927H88.8807V70.5092H92.9633V68.8761H96.2294V64.7936H97.0459V62.344H97.8624V64.7936V68.8761V72.9587V77.0413V81.1239V85.2064V89.289ZM101.945 63.1605V64.7936V68.8761V72.9587V77.0413V81.1239V85.2064V86.8395H104.394L104.395 88.4725H108.477V87.656H110.11V83.5734H110.927V79.4908H110.11V75.4083H108.477V71.3257H106.844V67.2431H104.395V63.1605H101.945ZM47.2385 86.8395V82.7569V78.6743V74.5917V70.5092V66.4266V63.1605H45.6055V67.2431H43.156V71.3257H41.5229V75.4083H39.8899V79.4908H39.0734V83.5734H39.8899V87.656H41.5229V88.4725H45.6055V86.8395H47.2385ZM86.4312 79.4908H90.5138V83.5734V87.656H86.4312V83.5734V79.4908ZM63.5688 79.4908H59.4862V83.5734V87.656H63.5688V83.5734V79.4908ZM78.2661 100.72H82.3486V104.803H78.2661V100.72ZM72.5505 100.72H68.4679V104.803H72.5505V100.72Z" fill="black"/>
</svg>
