<svg width="150" height="150" viewBox="0 0 150 150" fill="none" xmlns="http://www.w3.org/2000/svg">
<rect x="1" y="1" width="149" height="149" rx="25" fill="white"/>
<path fill-rule="evenodd" clip-rule="evenodd" d="M134 0H18V2.00757H13.0371V5.01611H8.02295V9.02734H4.01123V13H0V137L2 137V141.011H7.01433V137L5 137V13.0388H9.02556V9.02757H14.0401V6.01903H18.0514V5H134V6.01903H138.011V9.02757H143.026V13.0388H145V138L142.04 138V142H138V145L133 145L133 145L14 145V145.023H10.0226V141.012H5.0083V145.023H8.01709V149.034H14V150H133V149.011H138.014V146.011H144.017V142.011H147.055V138L150 138V13H148.04V9.02734H144.028V5.01611H139.014V2.00757H134V0Z" fill="black"/>
<path fill-rule="evenodd" clip-rule="evenodd" d="M70.3838 28H74.5802V32.1964H70.384V33.0359H66.1875V28.8395H70.3838V28ZM66.1875 30.518H61.991V34.7144H66.1875V30.518ZM57.7945 32.1965H61.991V36.3929H58.634V38.0714H55.2767V41.4284H51.9197V44.7859H49.4017V48.9819H45.2053V44.7855H47.7233V40.5895H51.0803V37.232H54.4375V33.875H57.7945V32.1965ZM47.7232 48.982H43.5268V53.1784H47.7232V48.982ZM41.8483 53.1785H46.0447V57.3749H41.8483V53.1785ZM46.0447 57.375H41.8483V61.5714H46.0447V57.375ZM41.8483 61.5715H46.0447V65.7679H41.8483V61.5715ZM46.0447 65.768H41.8483V69.9644H46.0447V65.768ZM41.8483 69.9645H46.0447V70.8035H103.955V74.9999H46.0445V74.1609H43.5267V77.5179H42.6875V96.8214H38.491V76.6785H39.3303V73.3215H41.8483V69.9645ZM74.5803 28H78.7767V32.1964H74.5803V28ZM82.9732 28.8395H78.7768V33.0359H82.9732V28.8395ZM82.9733 30.518H87.1697V32.1965H91.366V36.3929H87.1695V34.7144H82.9733V30.518ZM91.366 34.7145H95.5625V38.0715H98.9197V41.4285H101.437V45.6249H97.241V42.2679H94.7233V38.9109H91.366V34.7145ZM104.795 45.625H100.598V49.8214H104.795V45.625ZM102.277 49.8215H106.473V54.0179H102.277V49.8215ZM108.152 54.018H103.955V58.2144H108.152V54.018ZM103.955 58.2145H108.152V62.4105V62.4109V66.6069H103.955V62.4109V62.4105V58.2145ZM103.955 66.607H108.152V70.8034H103.955V66.607ZM108.152 70.8035H103.955V74.9999H106.473V78.3569H110.67V74.1605H108.152V70.8035ZM107.313 95.982L106.473 95.982V99.3395H103.116V103.536H107.312V100.178H110.67V95.982L111.509 95.982V78.357H107.313V95.982ZM103.116 100.178H98.9197V99.3395H94.7233V103.535H94.7231V107.732H98.9195V104.375H103.116V100.178ZM94.7232 96.8215H90.5268V101.018H94.7232V96.8215ZM86.3303 94.3035H90.5267V98.4999H86.3303V94.3035ZM86.3302 92.625H82.134V90.107H77.9375V94.3034H82.1338V96.8214H86.3302V92.625ZM85.491 98.5H89.6875V115.285H93.0446V111.928H97.241V116.125H93.8838V119.482H90.5268V122H86.3304V117.804H85.491V98.5ZM57.7945 101.018H56.9553V96.8215H61.1517V98.5H61.991V99.3395H64.509V102.697H68.7052V106.893H64.5088V103.536H61.991V117.804H61.1517V122H56.9553V119.482H53.5983V116.125H50.241V111.928H54.4375V115.285H57.7945V101.018ZM81.2945 101.018H85.491V105.214H81.2947V107.732H77.0983V103.535H81.2945V101.018ZM72.9018 104.375H77.0982V108.571H72.9018V104.375ZM72.9017 103.535H68.7053V107.732H72.9017V103.535ZM52.759 107.732H48.5625V111.928H52.759V107.732ZM98.9195 107.732H94.7231V111.928H98.9195V107.732ZM52.759 107.732V104.375V103.535V102.696H56.9552V98.5H52.7588V100.178H48.5625V103.535V104.375V107.732H52.759ZM77.9375 87.5895H73.741V91.7859H77.9375V87.5895ZM69.5445 89.268H73.741V93.4644H69.5447V95.9819H65.3483V91.7855H69.5445V89.268ZM61.1518 94.3035H65.3482V98.4999H61.1518V94.3035ZM44.366 99.3395H48.5625V103.536H44.366V99.3395ZM44.366 96.8215H40.1695V101.018H44.366V96.8215ZM63.6695 60.732H57.7945V66.607H63.6695V60.732ZM86.3303 60.732H92.2053V66.607H86.3303V60.732ZM80.4553 78.357H68.7053V82.5534H80.4553V78.357Z" fill="black"/>
</svg>
