<svg width="150" height="150" viewBox="0 0 150 150" fill="none" xmlns="http://www.w3.org/2000/svg">
<rect x="1" y="1" width="149" height="149" rx="25" fill="white"/>
<path fill-rule="evenodd" clip-rule="evenodd" d="M134 0H18V2.00757H13.0371V5.01611H8.02295V9.02734H4.01123V13H0V137L2 137V141.011H7.01433V137L5 137V13.0388H9.02556V9.02757H14.0401V6.01903H18.0514V5H134V6.01903H138.011V9.02757H143.026V13.0388H145V138L142.04 138V142H138V145L133 145L133 145L14 145V145.023H10.0226V141.012H5.0083V145.023H8.01709V149.034H14V150H133V149.011H138.014V146.011H144.017V142.011H147.055V138L150 138V13H148.04V9.02734H144.028V5.01611H139.014V2.00757H134V0Z" fill="black"/>
<path fill-rule="evenodd" clip-rule="evenodd" d="M74.58 33H70.38V33.84H66.18V35.52H61.98V38.04H57.78L57.78 37.2H53.58V36.36H49.38V37.2H45.18V40.56H40.98V43.92H37.62V48.12H34.26V52.32H31.74V56.52H29.22V60.72L27.54 60.72V64.92V69.12H29.22V73.32H32.58V75.84H36.78V76.68H40.14V77.52H39.3V81.72H38.46V85.92L37.62 85.92V90.12H38.46V94.32H39.3V98.52H40.98V102.72L43.5 102.72V106.92H46.86V109.44H50.22V111.96H54.42V113.64H58.62L58.62 115.32H62.82V116.16H67.02V117H71.22H74.58H75.42H78.78H82.98V116.16H87.18V115.32H91.38V113.64H95.58V111.96H99.78V109.44H103.14V106.92H106.5V102.72L109.02 102.72V98.52H110.7V94.32H111.54V90.12H112.38V85.92L111.54 85.92V81.72H110.7V77.52H109.86V76.68H113.22L113.22 75.84H117.42V73.32H120.78V69.12H122.46V64.92V60.72L120.78 60.72V56.52H118.26V52.32H115.74V48.12H112.38V43.92H109.02V40.56H104.82V37.2H100.62L100.62 36.36H96.42V37.2H92.22V38.04H88.02V35.52H83.82V33.84H79.62L79.62 33H74.58ZM72.9 112.8L72.9 96H68.7V92.64H64.5V88.44L62.82 88.44V84.24H66.18V80.88H70.38V79.2H74.58H78.78V80.88H82.98V84.24H86.34V88.44L84.66 88.44V92.64H80.46V96H77.1V112.8H78.78H82.98V111.96H87.18V111.12H91.38V109.44H95.58V107.76H98.94V105.24H102.3V102.72L104.82 102.72V98.52H106.5V94.32H107.34V90.12H108.18V85.92L107.34 85.92V81.72H106.5V77.52H105.66V73.32H104.82V69.12H103.14V64.92L101.46 64.92V60.72L99.78 60.72V56.52H98.1V52.32H96.42V48.96H93.9V45.6H91.38V42.24H88.02V39.72H83.82V38.04H79.62L79.62 37.2H74.58H70.38V38.04H66.18V39.72H61.98V42.24H58.62V45.6H56.1V48.96H53.58V52.32H51.9V56.52H50.22V60.72L48.54 60.72V64.92L46.86 64.92V69.12H45.18V73.32H44.34V77.52H43.5V81.72H42.66V85.92L41.82 85.92V90.12H42.66V94.32H43.5V98.52H45.18V102.72L47.7 102.72V105.24H51.06V107.76H54.42V109.44H58.62L58.62 111.12H62.82V111.96H67.02V112.8H71.22H72.9ZM42.66 69.12V64.92L44.34 64.92V60.72L46.02 60.72V56.52H47.7V52.32H49.38V48.12H51.9V44.76H54.42V41.4H53.58V40.56H49.38V41.4H45.18V44.76H41.82V48.12H38.46V52.32H35.94V56.52H33.42V60.72L31.74 60.72V64.92V69.12H33.42V71.64H36.78V72.48H40.98V69.12H42.66ZM113.22 72.48H109.02V69.12H107.34V64.92L105.66 64.92V60.72L103.98 60.72V56.52H102.3V52.32H100.62V48.12H98.1V44.76H95.58V41.4H96.42V40.56H100.62L100.62 41.4H104.82V44.76H108.18V48.12H111.54V52.32H114.06V56.52H116.58V60.72L118.26 60.72V64.92V69.12H116.58V71.64H113.22L113.22 72.48ZM61.14 63.24H68.7V70.8H61.14V63.24ZM88.02 63.24H80.46V70.8H88.02V63.24ZM76.26 94.32V91.8H80.46V88.44L82.14 88.44V85.08H78.78V83.4H74.58H70.38V85.08H67.02V88.44L68.7 88.44V91.8H72.9L72.9 94.32H76.26Z" fill="black"/>
</svg>
