<svg width="150" height="150" viewBox="0 0 150 150" fill="none" xmlns="http://www.w3.org/2000/svg">
<rect x="1" y="1" width="149" height="149" rx="25" fill="white"/>
<path fill-rule="evenodd" clip-rule="evenodd" d="M134 0H18V2.00757H13.0371V5.01611H8.02295V9.02734H4.01123V13H0V137L2 137V141.011H7.01433V137L5 137V13.0388H9.02556V9.02757H14.0401V6.01903H18.0514V5H134V6.01903H138.011V9.02757H143.026V13.0388H145V138L142.04 138V142H138V145L133 145L133 145L14 145V145.023H10.0226V141.012H5.0083V145.023H8.01709V149.034H14V150H133V149.011H138.014V146.011H144.017V142.011H147.055V138L150 138V13H148.04V9.02734H144.028V5.01611H139.014V2.00757H134V0Z" fill="black"/>
<path fill-rule="evenodd" clip-rule="evenodd" d="M46.7556 34H51.3111H55.8667V36.7333H60.4222V40.3778H64.0667V44.9333L64.9778 44.9333V49.4889H65.8889V53.1333H70.4444H75H79.5556H84.1111V49.4889H85.0222V44.9333L85.9333 44.9333V40.3778H89.5778V36.7333H94.1333V34H98.6889H103.244V36.7333H106.889V40.3778H110.533V44.9333L113.267 44.9333V49.4889H115.089V54.0444H114.178V58.6H112.356V63.1556H109.622V67.7111H105.978V71.3556H101.422V74.0889H102.333V78.6444L103.244 78.6444V83.2L105.067 83.2V87.7556V92.3111H103.244V96.8667L101.422 96.8667V97.7778H105.067V95.9556H109.622V95.0444H114.178V95.9556H118.733V100.511H114.178V99.6H109.622V100.511H105.067V102.333H100.511V101.422H97.7778V104.156H95.0444L95.0444 105.067H99.6V105.978H104.156V107.8H108.711V109.622H113.267V111.444H117.822V116H113.267V114.178H108.711V112.356H104.156V110.533H99.6V109.622H95.0444L95.0444 108.711H90.4889V106.889H88.6667V108.711H85.0222V112.356H80.4667L80.4667 115.089H75.9111H69.5333V112.356H64.9778V108.711H61.3333V106.889H59.5111V108.711H54.9556V109.622H50.4V110.533H45.8444V112.356H41.2889V114.178H36.7333V109.622H41.2889V107.8H45.8444V105.978H50.4V105.067H54.9556V104.156H52.2222V101.422H49.4889V102.333H44.9333V97.7778H48.5778V96.8667L46.7556 96.8667V92.3111H44.9333V87.7556V83.2L46.7556 83.2V78.6444L47.6667 78.6444V74.0889H48.5778V71.3556H44.0222V67.7111H40.3778V63.1556H37.6444V58.6H35.8222V54.0444H34.9111V49.4889H36.7333V44.9333L39.4667 44.9333V40.3778H43.1111V36.7333H46.7556V34ZM69.5333 110.533H75.9111H80.4667L80.4667 107.8H84.1111V104.156H88.6667V102.333H93.2222L93.2222 99.6H96.8667V96.8667L98.6889 96.8667V92.3111H100.511V87.7556V83.2L98.6889 83.2V78.6444L97.7778 78.6444V74.0889H96.8667V69.5333H101.422V66.8H105.067V63.1556H107.8V58.6H109.622V54.0444H110.533V49.4889H108.711V44.9333L105.978 44.9333V41.2889H102.333V38.5556H98.6889H94.1333V41.2889H90.4889V44.9333L89.5778 44.9333V49.4889H88.6667V54.0444H87.7556V58.6H83.2V57.6889H79.5556H75H70.4444H66.8V58.6H62.2444V54.0444H61.3333V49.4889H60.4222V44.9333L59.5111 44.9333V41.2889H55.8667V38.5556H51.3111H47.6667V41.2889H44.0222V44.9333L41.2889 44.9333V49.4889H39.4667V54.0444H40.3778V58.6H42.2V63.1556H44.9333V66.8H48.5778V69.5333H53.1333V74.0889H52.2222V78.6444L51.3111 78.6444V83.2L49.4889 83.2V87.7556V92.3111H51.3111V96.8667L53.1333 96.8667V99.6H56.7778V102.333H61.3333V104.156H65.8889V107.8H69.5333V110.533ZM96.8667 41.2889H101.422V45.8444H96.8667V46.7556H95.0444V51.3111H94.1333V55.8667V60.4222H95.0444V64.9778H90.4889V60.4222H89.5778V55.8667V51.3111H90.4889V46.7556H92.3111V42.2H96.8667V41.2889ZM48.5778 41.2889H53.1333V42.2H57.6889V46.7556H59.5111V51.3111H60.4222V55.8667V60.4222H59.5111V64.9778H54.9556V60.4222H55.8667V55.8667V51.3111H54.9556V46.7556H53.1333V45.8444H48.5778V41.2889ZM40.3778 95.9556H44.9333V100.511H40.3778V99.6H35.8222V100.511H31.2667V95.9556H35.8222V95.0444H40.3778V95.9556ZM32.1778 111.444H36.7333V116H32.1778V111.444ZM64.9778 80.4667H60.4222V84.1111H58.6V88.6667H61.3333H63.1556H65.8889V84.1111H64.9778V80.4667ZM85.0222 80.4667H89.5778V84.1111H90.4889V88.6667H87.7556H85.9333H83.2V84.1111H85.0222V80.4667ZM72.2667 105.067H69.5333V100.511H72.2667V99.6H76.8222V100.511H80.4667V105.067H76.8222V107.8H72.2667V105.067Z" fill="black"/>
</svg>
