<svg width="150" height="150" viewBox="0 0 150 150" fill="none" xmlns="http://www.w3.org/2000/svg">
<rect x="1" y="1" width="149" height="149" rx="25" fill="#2AA8EC"/>
<path fill-rule="evenodd" clip-rule="evenodd" d="M134 0H18V2.00757H13.0371V5.01611H8.02295V9.02734H4.01123V13H0V137L2 137V141.011H7.01433V137L5 137V13.0388H9.02556V9.02757H14.0401V6.01903H18.0514V5H134V6.01903H138.011V9.02757H143.026V13.0388H145V138L142.04 138V142H138V145L133 145L133 145L14 145V145.023H10.0226V141.012H5.0083V145.023H8.01709V149.034H14V150H133V149.011H138.014V146.011H144.017V142.011H147.055V138L150 138V13H148.04V9.02734H144.028V5.01611H139.014V2.00757H134V0Z" fill="black"/>
<path d="M103.941 80.9831H107.961V84.9719H103.941V86.5674H99.9216V88.1629H95.902V89.7584H91.8824V90.5562H87.8627V91.3539H83.8431V92.1517H79.8235V92.9494H71.7843V92.1517H67.7647V91.3539H63.7451V90.5562H59.7255V89.7584H55.7059V88.1629H51.6863V86.5674H47.6667V84.9719H43.6471V80.9831H47.6667V82.5787H51.6863V84.1742H55.7059V85.7697H59.7255V86.5674H63.7451V87.3652H67.7647V88.1629H71.7843V88.9607H79.8235V88.1629H83.8431V87.3652H87.8627V86.5674H91.8824V85.7697H95.902V84.1742H99.9216V82.5787H103.941V80.9831Z" fill="black"/>
<path d="M70.9804 75.3989H66.9608V79.3876H70.9804V75.3989Z" fill="black"/>
<path d="M79.0196 75.3989H83.0392V79.3876H79.0196V75.3989Z" fill="black"/>
<path d="M86.2549 53.0618V61.0393H94.2941V53.0618H86.2549Z" fill="black"/>
<path d="M55.7059 53.0618H63.7451V61.0393H55.7059V53.0618Z" fill="black"/>
<path fill-rule="evenodd" clip-rule="evenodd" d="M55.7059 39.5H63.7451V41.0955H67.7647V43.4888H71.7843V47.4775H74.1961V51.4663H75.8039V47.4775H78.2157V43.4888H82.2353V41.0955H86.2549V39.5H94.2941V41.0955H98.3137V43.4888H101.529V46.6798H104.745V50.6685H106.353V54.6573H107.157V58.6461H106.353V62.6348H104.745V65.8258H106.353V67.4213H109.569V69.8146H111.98V73.0056H114.392V76.9944H115.196V80.9831H116V88.9607H114.392V92.9494H111.98V96.9382H108.765V99.3315H105.549V101.725H102.333V104.118H98.3137V105.713H94.2941V107.309H90.2745V108.107H86.2549V109.702H82.2353V110.5H67.7647V109.702H63.7451V108.107H59.7255V107.309H55.7059V105.713H51.6863V104.118H47.6667V101.725H44.451V99.3315H41.2353V96.9382H38.0196V92.9494H35.6078V88.9607H34V80.9831H34.8039V76.9944H35.6078V73.0056H38.0196V69.8146H40.4314V67.4213H43.6471V65.8258H45.2549V62.6348H43.6471V58.6461H42.8431V54.6573H43.6471V50.6685H45.2549V46.6798H48.4706V43.4888H51.6863V41.0955H55.7059V39.5ZM82.2353 106.511V105.713H86.2549V104.118H90.2745V103.32H94.2941V101.725H98.3137V100.129H101.529V97.736H104.745V95.3427H107.961V92.9494H110.373V88.9607H111.98V80.9831H111.176V76.9944H110.373V73.8034H107.961V71.4101H105.549V69.8146H102.333V66.6236H100.725V62.6348H102.333V58.6461H103.137V54.6573H102.333V50.6685H100.725V47.4775H97.5098V45.0843H94.2941V43.4888H86.2549V45.0843H82.2353V47.4775H79.8235V51.4663H78.2157V55.4551H71.7843V51.4663H70.1765V47.4775H67.7647V45.0843H63.7451V43.4888H55.7059V45.0843H52.4902V47.4775H49.2745V50.6685H47.6667V54.6573H46.8627V58.6461H47.6667V62.6348H49.2745V66.6236H47.6667V69.8146H44.451V71.4101H42.0392V73.8034H39.6275V76.9944H38.8235V80.9831H38.0196V88.9607H39.6275V92.9494H42.0392V95.3427H45.2549V97.736H48.4706V100.129H51.6863V101.725H55.7059V103.32H59.7255V104.118H63.7451V105.713H67.7647V106.511H82.2353Z" fill="black"/>
</svg>
