<svg width="150" height="150" viewBox="0 0 150 150" fill="none" xmlns="http://www.w3.org/2000/svg">
<rect x="1" y="1" width="149" height="149" rx="25" fill="#2AA8EC"/>
<path fill-rule="evenodd" clip-rule="evenodd" d="M134 0H18V2.00757H13.0371V5.01611H8.02295V9.02734H4.01123V13H0V137L2 137V141.011H7.01433V137L5 137V13.0388H9.02556V9.02757H14.0401V6.01903H18.0514V5H134V6.01903H138.011V9.02757H143.026V13.0388H145V138L142.04 138V142H138V145L133 145L133 145L14 145V145.023H10.0226V141.012H5.0083V145.023H8.01709V149.034H14V150H133V149.011H138.014V146.011H144.017V142.011H147.055V138L150 138V13H148.04V9.02734H144.028V5.01611H139.014V2.00757H134V0Z" fill="black"/>
<path fill-rule="evenodd" clip-rule="evenodd" d="M44.4348 38H48.4565V38.8043H52.4783L52.4783 42.0217H56.5V45.2391H59.7174V46.8478H62.9348L62.9348 46.0435H66.9565V45.2391H70.9783H74.1957H75H78.2174H82.2391V46.0435H86.2609L86.2609 46.8478H90.2826V45.2391H93.5V42.0217H97.5217V38.8043H101.543L101.543 38H105.565V38.8043H109.587L109.587 40.413H113.609V44.4348H116.826V48.4565H112.804V44.4348H109.587L109.587 42.8261H105.565V42.0217H101.543L101.543 42.8261H97.5217V46.0435H94.3043V47.6522H98.3261L98.3261 46.8478H102.348V47.6522H105.565V50.0652H108.783V54.087H112V58.1087H107.978V54.087H104.761V51.6739H101.543V50.8696H98.3261V51.6739V54.087H101.543V57.3043H104.761V60.5217H107.174V62.9348H109.587V66.9565L112 66.9565H113.609V63.7391L114.413 63.7391V59.7174H118.435L118.435 60.5217H120.043V56.5H119.239V52.4783H116.826L116.826 48.4565H120.848V52.4783H123.261V56.5H124.065V60.5217H122.457V64.5435H118.435L118.435 63.7391L117.63 63.7391V67.7609H116.022V70.9783H112.804V75V79.0217V83.0435H112V87.0652L110.391 87.0652V91.087H108.783V95.1087H106.37V99.1304H103.152V102.348H99.1304V104.761H95.1087V107.174H91.087L91.087 108.783H87.0652L87.0652 110.391H83.0435V111.196H79.0217V112H75H70.1739V111.196H66.1522V110.391H62.1304L62.1304 108.783H58.1087V107.174H54.087L54.087 104.761H50.0652V102.348H46.0435V99.1304H42.8261V95.1087H40.413V91.087H38.8043V87.0652L37.1957 87.0652V83.0435H36.3913V79.0217V75V70.9783H33.9783V67.7609H32.3696V63.7391L31.5652 63.7391V64.5435H27.5435V60.5217H25.9348V56.5H26.7391V52.4783H29.1522V48.4565H33.1739V52.4783H30.7609V56.5H29.9565V60.5217H31.5652V59.7174H35.587V63.7391L36.3913 63.7391V66.9565H37.1957H38L39.6087 66.9565V62.9348H42.0217V60.5217H44.4348V57.3043H47.6522V54.087H50.8696V51.6739V50.8696H47.6522V51.6739H44.4348V54.087H41.2174V58.1087H37.1957V54.087H40.413V50.0652H43.6304V47.6522H46.8478V46.8478H50.8696V47.6522H54.8913L54.8913 48.4565H55.6957V46.0435H52.4783L52.4783 42.8261H48.4565V42.0217H44.4348V42.8261H40.413L40.413 44.4348H37.1957V48.4565H33.1739V44.4348H36.3913V40.413H40.413L40.413 38.8043H44.4348V38ZM70.1739 107.978H75H79.0217V107.174H83.0435V106.37H87.0652L87.0652 104.761H91.087L91.087 103.152H95.1087V100.739H99.1304V98.3261H102.348V95.1087H104.761V91.087H106.37V87.0652L107.978 87.0652V83.0435H108.783V79.0217V75V70.9783H107.978V66.9565L105.565 66.9565V64.5435H103.152V61.3261H100.739V58.1087H97.5217V54.8913H94.3043V52.4783H90.2826V50.8696H86.2609L86.2609 50.0652H82.2391V49.2609H78.2174H75H74.1957H70.9783H66.9565V50.0652H62.9348L62.9348 50.8696H58.913V52.4783H54.8913L54.8913 54.8913H51.6739V58.1087H48.4565V61.3261H46.0435V64.5435H43.6304V66.9565L41.2174 66.9565V70.9783H40.413V75V79.0217V83.0435H41.2174V87.0652L42.8261 87.0652V91.087H44.4348V95.1087H46.8478V98.3261H50.0652V100.739H54.087L54.087 103.152H58.1087V104.761H62.1304L62.1304 106.37H66.1522V107.174H70.1739V107.978ZM75 68.5652H70.9783V70.1739H67.7609V74.1957H66.1522V78.2174V82.2391V86.2609V90.2826H67.7609V94.3043H70.9783V96.7174H75H79.0217V94.3043H82.2391V90.2826H83.0435V86.2609V82.2391V78.2174V74.1957H82.2391V70.1739H79.0217V68.5652H75ZM58.1087 74.1957H54.087V78.2174H58.1087V74.1957ZM91.8913 74.1957H95.913V78.2174H91.8913V74.1957Z" fill="black"/>
</svg>
